<?xml version="1.0" encoding="utf-8"?>
<!-- Generator: Adobe Illustrator 16.0.0, SVG Export Plug-In . SVG Version: 6.00 Build 0)  -->
<!DOCTYPE svg PUBLIC "-//W3C//DTD SVG 1.1//EN" "http://www.w3.org/Graphics/SVG/1.1/DTD/svg11.dtd">
<svg version="1.1" id="Layer_1" xmlns="http://www.w3.org/2000/svg" xmlns:xlink="http://www.w3.org/1999/xlink" x="0px" y="0px"
	 width="300px" height="300px" viewBox="0 0 300 300" enable-background="new 0 0 300 300" xml:space="preserve">
<g>
	<path fill="#28A8E0" d="M141.118,224.9l0.195-0.104C141.195,224.857,141.125,224.896,141.118,224.9z"/>
	<path fill="#28A8E0" d="M154.086,224.904c0,0-0.08-0.047-0.22-0.119L154.086,224.904L154.086,224.904z"/>
	<path fill="#28A8E0" d="M225.495,190.363l51.225-50.466l-28.825-4.474l-42.273,41.643l-0.178,0.172
		c-0.576,0.58-2.443,2.57-3.371,4.852c-0.018,0.056-0.042,0.109-0.063,0.165c-0.06,0.159-0.122,0.317-0.171,0.481
		c-0.053,0.164-0.091,0.33-0.137,0.496c-0.014,0.056-0.024,0.111-0.042,0.169c-0.551,2.427-0.149,5.174-0.014,5.959l0.038,0.216
		l16.681,91.583c1.166,6.4,7.234,10.631,13.554,9.452c5.039-0.94,8.704-5.043,9.401-9.909c0.175-1.237,0.168-2.521-0.069-3.817
		L225.495,190.363z"/>
	<path fill="#37B34A" d="M284.432,110.166c-1.096-0.574-2.296-0.989-3.584-1.188L194.981,95.65l-30.482-65.986L151.462,57.06
		l24.595,53.235l0.104,0.229c0.35,0.74,1.592,3.181,3.417,4.817c0.045,0.037,0.087,0.077,0.133,0.113
		c0.129,0.108,0.258,0.222,0.391,0.325c0.136,0.101,0.282,0.194,0.422,0.29c0.046,0.033,0.095,0.063,0.144,0.096
		c2.083,1.322,4.773,1.842,5.548,1.97l0.221,0.035l90.888,14.103c6.354,0.986,12.291-3.427,13.265-9.861
		C291.362,117.281,288.741,112.427,284.432,110.166z"/>
	<path fill="#EC1164" d="M72.561,189.184l-14.224,70.93l26.298-12.764l11.743-58.527l0.049-0.245c0.153-0.807,0.59-3.515,0.087-5.93
		c-0.014-0.058-0.028-0.115-0.042-0.173c-0.039-0.165-0.077-0.333-0.126-0.497c-0.045-0.166-0.108-0.324-0.164-0.486
		c-0.021-0.055-0.042-0.108-0.06-0.162c-0.897-2.321-2.753-4.36-3.301-4.93l-0.157-0.16l-64.747-66.123
		c-4.526-4.62-11.893-4.652-16.454-0.07c-3.64,3.656-4.387,9.136-2.251,13.551c0.544,1.122,1.263,2.179,2.181,3.116L72.561,189.184z
		"/>
	<path fill="#1B75BB" d="M67.975,290.639c1.218-0.213,2.422-0.617,3.566-1.244l76.389-41.892l63.641,33.956l-5.943-29.811
		l-51.343-27.394l-0.22-0.118c-0.723-0.375-3.165-1.559-5.594-1.75c-0.06-0.002-0.115-0.006-0.175-0.009
		c-0.171-0.007-0.338-0.018-0.506-0.018c-0.171,0.002-0.338,0.014-0.506,0.024c-0.06,0.002-0.115,0.009-0.175,0.01
		c-2.446,0.222-4.903,1.452-5.597,1.825l-0.192,0.106l-80.859,44.342c-5.653,3.101-7.754,10.251-4.694,15.974
		C58.208,289.206,63.19,291.473,67.975,290.639z"/>
	<g>
		<path fill="#1B75BB" d="M141.143,214.896l0.196-0.108c0.715-0.376,3.235-1.624,5.747-1.848c0.06-0.003,0.119-0.009,0.178-0.012
			c0.173-0.007,0.345-0.022,0.52-0.024c0.174,0,0.345,0.012,0.52,0.021c0.059,0.002,0.119,0.004,0.178,0.007
			c2.495,0.192,5.001,1.393,5.744,1.773l0.224,0.12l35.598,18.754v-37.57h-7.569v-24.304v-4.603v-2.53h-3.716v2.53h-9.416v-14.543
			h1.734l-5.45-3.965v-7.185c0.185,0,0.355,0,0.495,0c2.972,0,3.221-4.212,3.221-4.212c-9.91,3.469-21.308-6.938-21.308-6.938
			s-11.397,10.406-21.308,6.938c0,0,0.248,4.212,3.221,4.212c0.14,0,0.311,0,0.496,0v7.185l-5.451,3.965h1.734v14.543h-9.415v-2.53
			h-3.717v2.53v4.603v24.304h-7.569v37.901L141.143,214.896z M153.908,195.425c0,0.384-0.053,0.751-0.14,1.108h-11
			c-0.081-0.357-0.136-0.725-0.136-1.108v-11.891c0-3.113,2.523-5.64,5.639-5.64c3.121,0,5.636,2.526,5.636,5.64V195.425z
			 M143.268,159.492c0-2.635,2.136-4.771,4.77-4.771c2.635,0,4.771,2.136,4.771,4.771c0,2.633-2.136,4.771-4.771,4.771
			C145.404,164.263,143.268,162.125,143.268,159.492z M169.682,183.534v11.891c0,0.384-0.053,0.751-0.137,1.108h-10.999
			c-0.088-0.357-0.137-0.725-0.137-1.108v-11.891c0-3.113,2.513-5.64,5.636-5.64C167.162,177.895,169.682,180.421,169.682,183.534z
			 M135.898,142.199h12.14h12.141v4.356h-12.141h-12.14V142.199z M125.484,183.534c0-3.113,2.525-5.64,5.64-5.64
			c3.116,0,5.643,2.526,5.643,5.64v11.891c0,0.384-0.063,0.751-0.143,1.108h-10.998c-0.082-0.357-0.142-0.725-0.142-1.108V183.534z"
			/>
	</g>
	<polygon fill="#FBED1F" points="103.765,110.563 103.765,110.563 103.765,110.563 	"/>
	<path fill="#F6921E" d="M152.684,10.351c-4.621-2.245-9.967-1.118-13.359,2.401c-0.862,0.895-1.602,1.937-2.167,3.125
		L99.581,95.202l-66.859,9.699l20.418,20.848l54.767-7.948l0.244-0.035c0.806-0.124,3.469-0.62,5.549-1.909
		c0.045-0.033,0.094-0.064,0.143-0.098c0.139-0.093,0.286-0.185,0.422-0.285c0.136-0.101,0.266-0.213,0.395-0.321
		c0.049-0.037,0.091-0.075,0.133-0.112c1.856-1.633,3.13-4.092,3.479-4.805l0.094-0.201l39.772-83.963
		C160.919,20.204,158.479,13.169,152.684,10.351z"/>
</g>
</svg>
