<?xml version="1.0" encoding="utf-8"?>
<!-- Generator: Adobe Illustrator 16.0.0, SVG Export Plug-In . SVG Version: 6.00 Build 0)  -->
<!DOCTYPE svg PUBLIC "-//W3C//DTD SVG 1.1//EN" "http://www.w3.org/Graphics/SVG/1.1/DTD/svg11.dtd">
<svg version="1.1" id="Layer_1" editable="false" xmlns="http://www.w3.org/2000/svg" xmlns:xlink="http://www.w3.org/1999/xlink"
	 x="0px" y="0px" width="250px" height="160px" viewBox="261.609 226.2 250 160" enable-background="new 261.609 226.2 250 160"
	 xml:space="preserve">
<rect x="261.609" y="226.2" fill="#D6D6D6" width="250" height="160"/>
<g transform="matrix(0.4418522119522095 0 0 0.4395604133605957 0 0)">
	<path fill="#FFFFFF" d="M1157.776,665.307l-16.601,7.5c-0.701-2.402-148.2-53.303-149.199-53.2l-41.602-78.901l51.901-26.1h-35.999
		l-23.302,11.802l-5.3-11.802h-45.1l15.199,28.9L592.075,705.406v18l323.101-165.2l33.199,64.2l-127.9,63.2l35.502,72.5
		c1.399,2.799,4.199,4.499,7.198,4.499c1.2,0,2.4-0.3,3.499-0.8c4-1.9,5.6-6.698,3.7-10.7l-28.498-58.201l113.799-56.297
		l49.501,93.697l-286.5,121.502l-62.7-126.6l-63.9,31.199v17.8l56.6-27.598l55.199,111.5l-50.798,20.5h105.9l265-112.599l22,41.699
		l-139.7,70.901h28.701l118.699-56.7l29.8,56.7h44.002l-25.001-50.001l-13.5-25.5l68.899-34.798v-17.8l-76.401,38.4l-20.4-38.599
		l96.8-41.099v-43.9H1157.776z M1042.275,714.806l-39.9-75.399l121.3,40.999L1042.275,714.806z"/>
</g>
<g transform="matrix(1 0 0 1 179 64)">
	<path fill="#B3B3B3" stroke="#7A7A7A" d="M292.2,236.7c0-5.9-4.7-10.7-10.601-10.7c-5.8,0-10.6,4.8-10.6,10.7
		c0,4.1,2.6,6.8,4.6,8.8c3.301,3.3,5.9,12.9,5.9,12.9s2.7-9.5,5.6-12.801C289.1,243.3,292.2,240.9,292.2,236.7z"/>
	<circle fill="#444444" cx="281.5" cy="236" r="4"/>
	<ellipse fill="#444444" cx="281.5" cy="262" rx="8" ry="4"/>
</g>
<rect x="0.5" y="-1091.5" fill="none" stroke="#AAAAAA" width="250" height="160"/>
</svg>
