<?xml version="1.0" encoding="utf-8"?>
<!-- Generator: Adobe Illustrator 17.0.0, SVG Export Plug-In . SVG Version: 6.00 Build 0)  -->
<!DOCTYPE svg PUBLIC "-//W3C//DTD SVG 1.1//EN" "http://www.w3.org/Graphics/SVG/1.1/DTD/svg11.dtd" [
	<!ENTITY ns_flows "http://ns.adobe.com/Flows/1.0/">
	<!ENTITY ns_extend "http://ns.adobe.com/Extensibility/1.0/">
	<!ENTITY ns_ai "http://ns.adobe.com/AdobeIllustrator/10.0/">
	<!ENTITY ns_graphs "http://ns.adobe.com/Graphs/1.0/">
]>
<svg version="1.1" id="Layer_1" xmlns:x="&ns_extend;" xmlns:i="&ns_ai;" xmlns:graph="&ns_graphs;"
	 xmlns="http://www.w3.org/2000/svg" xmlns:xlink="http://www.w3.org/1999/xlink" xmlns:a="http://ns.adobe.com/AdobeSVGViewerExtensions/3.0/"
	 x="0px" y="0px" width="1247.24px" height="892.91px" viewBox="0 0 1247.24 892.91" enable-background="new 0 0 1247.24 892.91"
	 xml:space="preserve">
<g>
	<g>
		<g>
			<path fill="#1C1C1B" d="M78.353,867.473c-28.151,0-51.055-22.902-51.055-51.054V75.578c0-28.153,22.903-51.057,51.055-51.057
				h1090.202c28.151,0,51.054,22.904,51.054,51.057v740.841c0,28.151-22.902,51.054-51.054,51.054H78.353z"/>
			<path fill="#575756" d="M1168.555,26.021c27.368,0,49.553,22.187,49.553,49.557v740.841c0,27.367-22.185,49.553-49.553,49.553
				H78.353c-27.369,0-49.555-22.187-49.555-49.553V75.578c0-27.37,22.186-49.557,49.555-49.557H1168.555 M1168.555,23.021H78.353
				c-28.979,0-52.555,23.577-52.555,52.557v740.841c0,28.978,23.576,52.553,52.555,52.553h1090.202
				c28.978,0,52.553-23.575,52.553-52.553V75.578C1221.108,46.598,1197.533,23.021,1168.555,23.021L1168.555,23.021z"/>
		</g>
		<circle fill="#1C1C1B" stroke="#575756" stroke-width="1.5199" stroke-miterlimit="10" cx="79.81" cy="445.768" r="7.969"/>
		<circle fill="#1C1C1B" stroke="#575756" stroke-width="1.5199" stroke-miterlimit="10" cx="1169.192" cy="445.415" r="26.976"/>
		<path fill="none" stroke="#575756" stroke-width="0.8236" stroke-miterlimit="10" d="M1175.315,435.211
			c2.252,0,4.08,1.827,4.08,4.08v12.244c0,2.257-1.828,4.084-4.08,4.084h-12.244c-2.255,0-4.083-1.827-4.083-4.084v-12.244
			c0-2.254,1.828-4.08,4.083-4.08H1175.315z"/>
		<path fill="#FFFFFF" stroke="#575756" stroke-width="3" stroke-miterlimit="10" d="M1111.79,74.048
			c2.737,0,4.956,2.219,4.956,4.958v734.811c0,2.735-2.219,4.954-4.956,4.954H134.565c-2.737,0-4.955-2.219-4.955-4.954V79.006
			c0-2.738,2.218-4.958,4.955-4.958H1111.79z"/>
	</g>
	<g>
		<path fill="#00384B" d="M187.635,174.684v18.668h-1.404c-0.217,0-0.396-0.039-0.54-0.117c-0.143-0.078-0.288-0.203-0.436-0.377
			l-10.543-13.637c0.017,0.234,0.033,0.463,0.045,0.689c0.013,0.226,0.02,0.438,0.02,0.637v12.805h-2.431v-18.668h1.43
			c0.243,0,0.425,0.028,0.546,0.084c0.122,0.057,0.256,0.184,0.403,0.383l10.569,13.65c-0.026-0.251-0.045-0.496-0.059-0.735
			c-0.013-0.238-0.02-0.461-0.02-0.669v-12.714H187.635z"/>
		<path fill="#00384B" d="M202.572,191.467c-0.312,0.364-0.672,0.678-1.079,0.942s-0.841,0.479-1.3,0.644
			c-0.459,0.165-0.934,0.286-1.424,0.364s-0.973,0.117-1.449,0.117c-0.91,0-1.753-0.154-2.529-0.461
			c-0.775-0.308-1.447-0.758-2.015-1.352c-0.568-0.594-1.01-1.331-1.326-2.21c-0.316-0.88-0.475-1.892-0.475-3.036
			c0-0.918,0.143-1.774,0.429-2.567s0.695-1.484,1.229-2.074c0.533-0.589,1.185-1.053,1.957-1.391
			c0.771-0.338,1.638-0.507,2.6-0.507c0.806,0,1.549,0.132,2.229,0.396c0.68,0.265,1.267,0.648,1.761,1.15
			c0.494,0.503,0.882,1.123,1.164,1.859c0.282,0.736,0.422,1.577,0.422,2.522c0,0.39-0.043,0.652-0.13,0.786
			c-0.087,0.135-0.247,0.202-0.481,0.202h-8.658c0.026,0.789,0.139,1.476,0.338,2.061c0.199,0.585,0.474,1.072,0.825,1.462
			s0.769,0.681,1.254,0.871c0.485,0.191,1.027,0.286,1.625,0.286c0.563,0,1.051-0.065,1.463-0.195
			c0.411-0.13,0.767-0.271,1.066-0.422c0.299-0.151,0.55-0.292,0.754-0.422c0.204-0.13,0.383-0.195,0.54-0.195
			c0.208,0,0.368,0.078,0.481,0.234L202.572,191.467z M200.479,185.278c0-0.502-0.071-0.966-0.214-1.391s-0.353-0.793-0.63-1.105
			s-0.616-0.555-1.014-0.728s-0.858-0.26-1.378-0.26c-1.066,0-1.904,0.308-2.516,0.923c-0.611,0.615-0.999,1.469-1.164,2.561
			H200.479z"/>
		<path fill="#00384B" d="M216.339,191.467c-0.312,0.364-0.672,0.678-1.079,0.942s-0.841,0.479-1.3,0.644
			c-0.459,0.165-0.934,0.286-1.424,0.364s-0.973,0.117-1.449,0.117c-0.91,0-1.753-0.154-2.529-0.461
			c-0.775-0.308-1.447-0.758-2.015-1.352c-0.568-0.594-1.01-1.331-1.326-2.21c-0.316-0.88-0.475-1.892-0.475-3.036
			c0-0.918,0.143-1.774,0.429-2.567s0.695-1.484,1.229-2.074c0.533-0.589,1.185-1.053,1.957-1.391
			c0.771-0.338,1.638-0.507,2.6-0.507c0.806,0,1.549,0.132,2.229,0.396c0.68,0.265,1.267,0.648,1.761,1.15
			c0.494,0.503,0.882,1.123,1.164,1.859c0.282,0.736,0.422,1.577,0.422,2.522c0,0.39-0.043,0.652-0.13,0.786
			c-0.087,0.135-0.247,0.202-0.481,0.202h-8.658c0.026,0.789,0.139,1.476,0.338,2.061c0.199,0.585,0.474,1.072,0.825,1.462
			s0.769,0.681,1.254,0.871c0.485,0.191,1.027,0.286,1.625,0.286c0.563,0,1.051-0.065,1.463-0.195
			c0.411-0.13,0.767-0.271,1.066-0.422c0.299-0.151,0.55-0.292,0.754-0.422c0.204-0.13,0.383-0.195,0.54-0.195
			c0.208,0,0.368,0.078,0.481,0.234L216.339,191.467z M214.246,185.278c0-0.502-0.071-0.966-0.214-1.391s-0.353-0.793-0.63-1.105
			s-0.616-0.555-1.014-0.728s-0.858-0.26-1.378-0.26c-1.066,0-1.904,0.308-2.516,0.923c-0.611,0.615-0.999,1.469-1.164,2.561
			H214.246z"/>
		<path fill="#00384B" d="M230.327,174.164v19.188h-1.534c-0.355,0-0.577-0.169-0.663-0.507l-0.221-1.521
			c-0.563,0.667-1.202,1.202-1.917,1.605c-0.715,0.403-1.541,0.604-2.476,0.604c-0.754,0-1.437-0.147-2.048-0.442
			c-0.611-0.295-1.133-0.726-1.566-1.294c-0.434-0.567-0.767-1.271-1.001-2.112c-0.234-0.84-0.351-1.807-0.351-2.899
			c0-0.979,0.13-1.889,0.39-2.73c0.26-0.841,0.637-1.569,1.131-2.184s1.092-1.099,1.794-1.45c0.702-0.351,1.495-0.526,2.379-0.526
			c0.797,0,1.476,0.13,2.035,0.39c0.559,0.26,1.06,0.628,1.501,1.105v-7.228H230.327z M227.779,183.342
			c-0.416-0.546-0.864-0.928-1.345-1.144c-0.481-0.217-1.021-0.325-1.619-0.325c-1.162,0-2.061,0.418-2.698,1.254
			c-0.637,0.836-0.955,2.056-0.955,3.66c0,0.841,0.071,1.558,0.214,2.151c0.143,0.594,0.351,1.079,0.624,1.456
			s0.609,0.654,1.007,0.832s0.849,0.267,1.352,0.267c0.737,0,1.374-0.165,1.911-0.494c0.537-0.329,1.04-0.793,1.508-1.391V183.342z"
			/>
		<path fill="#00384B" d="M241.663,182.418c-0.069,0.113-0.143,0.193-0.221,0.241c-0.078,0.048-0.178,0.071-0.299,0.071
			c-0.139,0-0.292-0.047-0.461-0.143c-0.169-0.095-0.373-0.199-0.611-0.312c-0.239-0.112-0.518-0.216-0.838-0.312
			c-0.321-0.095-0.702-0.143-1.144-0.143c-0.364,0-0.696,0.045-0.995,0.136s-0.553,0.217-0.761,0.377
			c-0.208,0.161-0.368,0.351-0.481,0.572c-0.113,0.221-0.169,0.457-0.169,0.708c0,0.329,0.098,0.602,0.292,0.819
			c0.195,0.217,0.451,0.403,0.767,0.559c0.316,0.156,0.676,0.297,1.079,0.422c0.403,0.126,0.814,0.258,1.235,0.396
			s0.832,0.297,1.235,0.475c0.403,0.178,0.763,0.398,1.079,0.663c0.316,0.264,0.572,0.583,0.767,0.956s0.292,0.828,0.292,1.365
			c0,0.616-0.11,1.185-0.332,1.709c-0.221,0.524-0.546,0.977-0.975,1.358c-0.429,0.382-0.96,0.681-1.592,0.897
			c-0.633,0.217-1.356,0.325-2.171,0.325c-0.91,0-1.751-0.152-2.522-0.455c-0.771-0.303-1.417-0.689-1.937-1.157l0.598-0.975
			c0.069-0.122,0.156-0.214,0.26-0.28c0.104-0.065,0.243-0.097,0.416-0.097c0.165,0,0.333,0.061,0.507,0.182
			c0.173,0.122,0.381,0.254,0.624,0.396c0.243,0.143,0.537,0.273,0.884,0.39c0.346,0.117,0.78,0.176,1.3,0.176
			c0.433,0,0.81-0.054,1.131-0.163s0.587-0.256,0.8-0.442c0.212-0.187,0.37-0.401,0.474-0.644s0.156-0.499,0.156-0.767
			c0-0.347-0.098-0.635-0.292-0.865c-0.195-0.229-0.451-0.427-0.767-0.591s-0.678-0.308-1.085-0.429
			c-0.408-0.121-0.824-0.251-1.248-0.39c-0.425-0.139-0.841-0.299-1.248-0.481c-0.407-0.182-0.769-0.412-1.085-0.689
			s-0.572-0.616-0.767-1.014c-0.195-0.398-0.292-0.884-0.292-1.456c0-0.511,0.106-1.001,0.318-1.469
			c0.212-0.468,0.52-0.879,0.923-1.235c0.403-0.355,0.901-0.639,1.495-0.852c0.593-0.212,1.271-0.318,2.034-0.318
			c0.875,0,1.666,0.139,2.373,0.416c0.706,0.277,1.311,0.659,1.813,1.144L241.663,182.418z"/>
		<path fill="#00384B" d="M246.681,193.56c-0.122,0.329-0.312,0.574-0.572,0.734c-0.26,0.16-0.528,0.241-0.806,0.241h-1.066
			l7.748-19.448c0.122-0.294,0.297-0.522,0.527-0.682c0.229-0.161,0.496-0.241,0.799-0.241h1.079L246.681,193.56z"/>
		<path fill="#00384B" d="M272.771,184.265v7.28c-0.945,0.676-1.95,1.181-3.016,1.515s-2.228,0.5-3.484,0.5
			c-1.508,0-2.871-0.234-4.088-0.702c-1.218-0.468-2.256-1.122-3.114-1.963c-0.858-0.84-1.519-1.846-1.982-3.016
			c-0.464-1.17-0.695-2.457-0.695-3.861c0-1.413,0.223-2.706,0.669-3.88c0.446-1.174,1.085-2.18,1.917-3.016s1.839-1.486,3.022-1.95
			c1.183-0.463,2.511-0.695,3.984-0.695c0.745,0,1.437,0.057,2.074,0.169c0.637,0.113,1.229,0.273,1.774,0.481
			s1.051,0.458,1.514,0.748c0.464,0.291,0.895,0.618,1.294,0.981l-0.793,1.248c-0.121,0.2-0.282,0.325-0.481,0.377
			c-0.199,0.052-0.416,0.004-0.65-0.143c-0.226-0.13-0.475-0.281-0.748-0.455c-0.273-0.173-0.598-0.333-0.975-0.481
			c-0.377-0.147-0.817-0.273-1.32-0.377s-1.096-0.156-1.781-0.156c-1.023,0-1.946,0.167-2.769,0.5
			c-0.824,0.333-1.525,0.812-2.106,1.437c-0.581,0.624-1.027,1.376-1.339,2.255c-0.312,0.88-0.468,1.866-0.468,2.958
			c0,1.144,0.165,2.169,0.494,3.075c0.329,0.905,0.795,1.672,1.397,2.301c0.602,0.628,1.334,1.107,2.197,1.437
			c0.862,0.33,1.827,0.494,2.893,0.494c0.416,0,0.804-0.024,1.164-0.072c0.359-0.047,0.704-0.115,1.033-0.201
			c0.33-0.087,0.648-0.195,0.956-0.325s0.613-0.273,0.917-0.429v-3.913h-2.756c-0.173,0-0.314-0.052-0.422-0.156
			s-0.163-0.234-0.163-0.39v-1.573H272.771z"/>
		<path fill="#00384B" d="M275.644,181.99c0.737-0.702,1.536-1.227,2.398-1.573s1.809-0.52,2.841-0.52
			c0.754,0,1.421,0.124,2.002,0.371c0.581,0.247,1.07,0.591,1.469,1.034c0.399,0.442,0.7,0.971,0.904,1.586
			c0.204,0.615,0.305,1.295,0.305,2.041v8.424h-1.131c-0.251,0-0.442-0.041-0.572-0.124c-0.13-0.082-0.234-0.236-0.312-0.461
			l-0.273-1.157c-0.338,0.312-0.672,0.587-1.001,0.826c-0.33,0.238-0.674,0.442-1.034,0.611c-0.36,0.169-0.743,0.297-1.15,0.384
			c-0.408,0.086-0.858,0.13-1.352,0.13c-0.52,0-1.008-0.071-1.462-0.214c-0.455-0.143-0.852-0.362-1.19-0.657
			c-0.338-0.294-0.604-0.663-0.799-1.105s-0.292-0.958-0.292-1.547c0-0.52,0.141-1.021,0.422-1.501s0.741-0.912,1.378-1.293
			c0.637-0.381,1.469-0.693,2.496-0.936c1.027-0.243,2.29-0.381,3.79-0.416v-0.962c0-0.997-0.212-1.742-0.637-2.236
			c-0.425-0.494-1.049-0.741-1.872-0.741c-0.555,0-1.021,0.069-1.397,0.208s-0.702,0.292-0.975,0.461s-0.512,0.323-0.715,0.461
			c-0.204,0.139-0.414,0.208-0.631,0.208c-0.173,0-0.323-0.047-0.448-0.143c-0.126-0.095-0.228-0.208-0.306-0.338L275.644,181.99z
			 M283.08,187.489c-1.031,0.035-1.907,0.115-2.626,0.24c-0.719,0.126-1.304,0.292-1.755,0.5s-0.776,0.453-0.975,0.734
			c-0.199,0.282-0.299,0.596-0.299,0.943c0,0.329,0.054,0.613,0.163,0.852c0.108,0.238,0.255,0.433,0.442,0.585
			c0.186,0.151,0.405,0.262,0.656,0.332s0.524,0.104,0.819,0.104c0.39,0,0.747-0.039,1.072-0.117s0.63-0.188,0.917-0.332
			s0.559-0.318,0.819-0.526c0.26-0.208,0.516-0.446,0.767-0.715V187.489z"/>
		<path fill="#00384B" d="M291.374,182.12c0.277-0.329,0.574-0.63,0.891-0.904c0.316-0.273,0.656-0.507,1.021-0.702
			c0.364-0.195,0.751-0.347,1.164-0.455c0.411-0.108,0.851-0.163,1.319-0.163c0.754,0,1.437,0.147,2.047,0.442
			c0.611,0.295,1.133,0.728,1.566,1.3c0.434,0.572,0.769,1.278,1.008,2.119c0.238,0.841,0.357,1.807,0.357,2.899
			c0,0.979-0.132,1.887-0.396,2.723c-0.265,0.836-0.642,1.562-1.131,2.178c-0.49,0.615-1.088,1.099-1.794,1.449
			c-0.706,0.351-1.501,0.527-2.385,0.527c-0.789,0-1.465-0.13-2.028-0.39c-0.563-0.26-1.066-0.624-1.508-1.092v5.733h-2.535v-17.641
			h1.521c0.355,0,0.577,0.169,0.663,0.507L291.374,182.12z M291.504,190.102c0.416,0.546,0.865,0.927,1.346,1.144
			s1.021,0.325,1.618,0.325c1.162,0,2.061-0.418,2.698-1.255c0.637-0.836,0.956-2.056,0.956-3.659c0-0.841-0.072-1.558-0.215-2.152
			c-0.143-0.593-0.351-1.079-0.624-1.456c-0.273-0.377-0.609-0.654-1.008-0.832s-0.85-0.267-1.352-0.267
			c-0.737,0-1.376,0.165-1.917,0.494c-0.542,0.33-1.042,0.798-1.501,1.404V190.102z"/>
		<path fill="#00384B" d="M311.381,182.418c-0.069,0.113-0.143,0.193-0.221,0.241c-0.078,0.048-0.178,0.071-0.299,0.071
			c-0.139,0-0.292-0.047-0.461-0.143c-0.169-0.095-0.373-0.199-0.611-0.312c-0.239-0.112-0.518-0.216-0.838-0.312
			c-0.321-0.095-0.702-0.143-1.144-0.143c-0.364,0-0.696,0.045-0.995,0.136s-0.553,0.217-0.761,0.377
			c-0.208,0.161-0.368,0.351-0.481,0.572c-0.113,0.221-0.169,0.457-0.169,0.708c0,0.329,0.098,0.602,0.292,0.819
			c0.195,0.217,0.451,0.403,0.767,0.559c0.316,0.156,0.676,0.297,1.079,0.422c0.403,0.126,0.814,0.258,1.235,0.396
			s0.832,0.297,1.235,0.475c0.403,0.178,0.763,0.398,1.079,0.663c0.316,0.264,0.572,0.583,0.767,0.956s0.292,0.828,0.292,1.365
			c0,0.616-0.11,1.185-0.332,1.709c-0.221,0.524-0.546,0.977-0.975,1.358c-0.429,0.382-0.96,0.681-1.592,0.897
			c-0.633,0.217-1.356,0.325-2.171,0.325c-0.91,0-1.751-0.152-2.522-0.455c-0.771-0.303-1.417-0.689-1.937-1.157l0.598-0.975
			c0.069-0.122,0.156-0.214,0.26-0.28c0.104-0.065,0.243-0.097,0.416-0.097c0.165,0,0.333,0.061,0.507,0.182
			c0.173,0.122,0.381,0.254,0.624,0.396c0.243,0.143,0.537,0.273,0.884,0.39c0.346,0.117,0.78,0.176,1.3,0.176
			c0.433,0,0.81-0.054,1.131-0.163s0.587-0.256,0.8-0.442c0.212-0.187,0.37-0.401,0.474-0.644s0.156-0.499,0.156-0.767
			c0-0.347-0.098-0.635-0.292-0.865c-0.195-0.229-0.451-0.427-0.767-0.591s-0.678-0.308-1.085-0.429
			c-0.408-0.121-0.824-0.251-1.248-0.39c-0.425-0.139-0.841-0.299-1.248-0.481c-0.407-0.182-0.769-0.412-1.085-0.689
			s-0.572-0.616-0.767-1.014c-0.195-0.398-0.292-0.884-0.292-1.456c0-0.511,0.106-1.001,0.318-1.469
			c0.212-0.468,0.52-0.879,0.923-1.235c0.403-0.355,0.901-0.639,1.495-0.852c0.593-0.212,1.271-0.318,2.034-0.318
			c0.875,0,1.666,0.139,2.373,0.416c0.706,0.277,1.311,0.659,1.813,1.144L311.381,182.418z"/>
		<path fill="#00384B" d="M337.367,193.352h-2.132c-0.243,0-0.442-0.061-0.598-0.182c-0.156-0.121-0.269-0.277-0.338-0.468
			l-1.651-4.329h-8.229l-1.651,4.329c-0.061,0.165-0.174,0.314-0.338,0.448c-0.165,0.135-0.364,0.202-0.598,0.202H319.7
			l7.436-18.668h2.795L337.367,193.352z M331.895,186.396l-2.769-7.241c-0.2-0.494-0.399-1.118-0.598-1.872
			c-0.096,0.373-0.193,0.719-0.292,1.04s-0.197,0.606-0.292,0.858l-2.756,7.215H331.895z"/>
		<path fill="#00384B" d="M341.553,181.977c0.286-0.303,0.585-0.581,0.897-0.832s0.644-0.466,0.994-0.644
			c0.351-0.177,0.728-0.316,1.131-0.416c0.403-0.1,0.834-0.149,1.293-0.149c0.728,0,1.367,0.122,1.917,0.364s1.012,0.583,1.384,1.02
			c0.373,0.438,0.654,0.964,0.845,1.58c0.19,0.616,0.286,1.296,0.286,2.041v8.411h-2.548v-8.411c0-0.944-0.217-1.679-0.65-2.203
			c-0.434-0.524-1.096-0.787-1.989-0.787c-0.65,0-1.259,0.154-1.827,0.461c-0.568,0.308-1.094,0.726-1.58,1.254v9.685h-2.535
			v-13.208h1.521c0.355,0,0.577,0.169,0.663,0.507L341.553,181.977z"/>
		<path fill="#00384B" d="M353.383,181.99c0.737-0.702,1.536-1.227,2.398-1.573s1.809-0.52,2.841-0.52
			c0.754,0,1.421,0.124,2.002,0.371c0.581,0.247,1.07,0.591,1.469,1.034c0.399,0.442,0.7,0.971,0.904,1.586
			c0.204,0.615,0.305,1.295,0.305,2.041v8.424h-1.131c-0.251,0-0.442-0.041-0.572-0.124c-0.13-0.082-0.234-0.236-0.312-0.461
			l-0.273-1.157c-0.338,0.312-0.672,0.587-1.001,0.826c-0.33,0.238-0.674,0.442-1.034,0.611c-0.36,0.169-0.743,0.297-1.15,0.384
			c-0.408,0.086-0.858,0.13-1.352,0.13c-0.52,0-1.008-0.071-1.462-0.214c-0.455-0.143-0.852-0.362-1.19-0.657
			c-0.338-0.294-0.604-0.663-0.799-1.105s-0.292-0.958-0.292-1.547c0-0.52,0.141-1.021,0.422-1.501s0.741-0.912,1.378-1.293
			c0.637-0.381,1.469-0.693,2.496-0.936c1.027-0.243,2.29-0.381,3.79-0.416v-0.962c0-0.997-0.212-1.742-0.637-2.236
			c-0.425-0.494-1.049-0.741-1.872-0.741c-0.555,0-1.021,0.069-1.397,0.208s-0.702,0.292-0.975,0.461s-0.512,0.323-0.715,0.461
			c-0.204,0.139-0.414,0.208-0.631,0.208c-0.173,0-0.323-0.047-0.448-0.143c-0.126-0.095-0.228-0.208-0.306-0.338L353.383,181.99z
			 M360.819,187.489c-1.031,0.035-1.907,0.115-2.626,0.24c-0.719,0.126-1.304,0.292-1.755,0.5s-0.776,0.453-0.975,0.734
			c-0.199,0.282-0.299,0.596-0.299,0.943c0,0.329,0.054,0.613,0.163,0.852c0.108,0.238,0.255,0.433,0.442,0.585
			c0.186,0.151,0.405,0.262,0.656,0.332s0.524,0.104,0.819,0.104c0.39,0,0.747-0.039,1.072-0.117s0.63-0.188,0.917-0.332
			s0.559-0.318,0.819-0.526c0.26-0.208,0.516-0.446,0.767-0.715V187.489z"/>
		<path fill="#00384B" d="M369.308,174.164v19.188h-2.548v-19.188H369.308z"/>
		<path fill="#00384B" d="M384.466,180.144l-7.332,17.043c-0.078,0.19-0.182,0.338-0.312,0.442c-0.13,0.104-0.321,0.156-0.572,0.156
			h-1.885l2.418-5.265l-5.421-12.376h2.21c0.216,0,0.385,0.052,0.507,0.156c0.121,0.104,0.208,0.221,0.26,0.351l3.354,7.93
			c0.069,0.2,0.137,0.401,0.202,0.604s0.119,0.405,0.163,0.604c0.061-0.208,0.125-0.414,0.195-0.618
			c0.069-0.203,0.143-0.405,0.221-0.604l3.237-7.917c0.061-0.147,0.156-0.269,0.286-0.364s0.277-0.143,0.442-0.143H384.466z"/>
		<path fill="#00384B" d="M394.189,182.418c-0.069,0.113-0.143,0.193-0.221,0.241c-0.078,0.048-0.178,0.071-0.299,0.071
			c-0.139,0-0.292-0.047-0.461-0.143c-0.169-0.095-0.373-0.199-0.611-0.312c-0.239-0.112-0.518-0.216-0.838-0.312
			c-0.321-0.095-0.702-0.143-1.144-0.143c-0.364,0-0.696,0.045-0.995,0.136s-0.553,0.217-0.761,0.377
			c-0.208,0.161-0.368,0.351-0.481,0.572c-0.113,0.221-0.169,0.457-0.169,0.708c0,0.329,0.098,0.602,0.292,0.819
			c0.195,0.217,0.451,0.403,0.767,0.559c0.316,0.156,0.676,0.297,1.079,0.422c0.403,0.126,0.814,0.258,1.235,0.396
			s0.832,0.297,1.235,0.475c0.403,0.178,0.763,0.398,1.079,0.663c0.316,0.264,0.572,0.583,0.767,0.956s0.292,0.828,0.292,1.365
			c0,0.616-0.11,1.185-0.332,1.709c-0.221,0.524-0.546,0.977-0.975,1.358c-0.429,0.382-0.96,0.681-1.592,0.897
			c-0.633,0.217-1.356,0.325-2.171,0.325c-0.91,0-1.751-0.152-2.522-0.455c-0.771-0.303-1.417-0.689-1.937-1.157l0.598-0.975
			c0.069-0.122,0.156-0.214,0.26-0.28c0.104-0.065,0.243-0.097,0.416-0.097c0.165,0,0.333,0.061,0.507,0.182
			c0.173,0.122,0.381,0.254,0.624,0.396c0.243,0.143,0.537,0.273,0.884,0.39c0.346,0.117,0.78,0.176,1.3,0.176
			c0.433,0,0.81-0.054,1.131-0.163s0.587-0.256,0.8-0.442c0.212-0.187,0.37-0.401,0.474-0.644s0.156-0.499,0.156-0.767
			c0-0.347-0.098-0.635-0.292-0.865c-0.195-0.229-0.451-0.427-0.767-0.591s-0.678-0.308-1.085-0.429
			c-0.408-0.121-0.824-0.251-1.248-0.39c-0.425-0.139-0.841-0.299-1.248-0.481c-0.407-0.182-0.769-0.412-1.085-0.689
			s-0.572-0.616-0.767-1.014c-0.195-0.398-0.292-0.884-0.292-1.456c0-0.511,0.106-1.001,0.318-1.469
			c0.212-0.468,0.52-0.879,0.923-1.235c0.403-0.355,0.901-0.639,1.495-0.852c0.593-0.212,1.271-0.318,2.034-0.318
			c0.875,0,1.666,0.139,2.373,0.416c0.706,0.277,1.311,0.659,1.813,1.144L394.189,182.418z"/>
		<path fill="#00384B" d="M400.833,176.062c0,0.234-0.048,0.457-0.143,0.669c-0.096,0.212-0.223,0.399-0.383,0.559
			c-0.161,0.161-0.349,0.286-0.566,0.377c-0.216,0.091-0.442,0.137-0.676,0.137s-0.455-0.045-0.663-0.137
			c-0.208-0.091-0.392-0.216-0.552-0.377c-0.161-0.16-0.286-0.347-0.377-0.559c-0.091-0.212-0.137-0.436-0.137-0.669
			c0-0.243,0.045-0.47,0.137-0.683c0.091-0.212,0.216-0.398,0.377-0.559c0.16-0.16,0.344-0.286,0.552-0.377
			c0.208-0.091,0.429-0.136,0.663-0.136s0.459,0.045,0.676,0.136c0.217,0.091,0.405,0.217,0.566,0.377
			c0.16,0.161,0.288,0.347,0.383,0.559C400.785,175.591,400.833,175.819,400.833,176.062z M400.352,180.144v13.208h-2.535v-13.208
			H400.352z"/>
		<path fill="#00384B" d="M411.817,182.418c-0.069,0.113-0.143,0.193-0.221,0.241c-0.078,0.048-0.178,0.071-0.299,0.071
			c-0.139,0-0.292-0.047-0.461-0.143c-0.169-0.095-0.373-0.199-0.611-0.312c-0.239-0.112-0.518-0.216-0.838-0.312
			c-0.321-0.095-0.702-0.143-1.144-0.143c-0.364,0-0.696,0.045-0.995,0.136s-0.553,0.217-0.761,0.377
			c-0.208,0.161-0.368,0.351-0.481,0.572c-0.113,0.221-0.169,0.457-0.169,0.708c0,0.329,0.098,0.602,0.292,0.819
			c0.195,0.217,0.451,0.403,0.767,0.559c0.316,0.156,0.676,0.297,1.079,0.422c0.403,0.126,0.814,0.258,1.235,0.396
			s0.832,0.297,1.235,0.475c0.403,0.178,0.763,0.398,1.079,0.663c0.316,0.264,0.572,0.583,0.767,0.956s0.292,0.828,0.292,1.365
			c0,0.616-0.11,1.185-0.332,1.709c-0.221,0.524-0.546,0.977-0.975,1.358c-0.429,0.382-0.96,0.681-1.592,0.897
			c-0.633,0.217-1.356,0.325-2.171,0.325c-0.91,0-1.751-0.152-2.522-0.455c-0.771-0.303-1.417-0.689-1.937-1.157l0.598-0.975
			c0.069-0.122,0.156-0.214,0.26-0.28c0.104-0.065,0.243-0.097,0.416-0.097c0.165,0,0.333,0.061,0.507,0.182
			c0.173,0.122,0.381,0.254,0.624,0.396c0.243,0.143,0.537,0.273,0.884,0.39c0.346,0.117,0.78,0.176,1.3,0.176
			c0.433,0,0.81-0.054,1.131-0.163s0.587-0.256,0.8-0.442c0.212-0.187,0.37-0.401,0.474-0.644s0.156-0.499,0.156-0.767
			c0-0.347-0.098-0.635-0.292-0.865c-0.195-0.229-0.451-0.427-0.767-0.591s-0.678-0.308-1.085-0.429
			c-0.408-0.121-0.824-0.251-1.248-0.39c-0.425-0.139-0.841-0.299-1.248-0.481c-0.407-0.182-0.769-0.412-1.085-0.689
			s-0.572-0.616-0.767-1.014c-0.195-0.398-0.292-0.884-0.292-1.456c0-0.511,0.106-1.001,0.318-1.469
			c0.212-0.468,0.52-0.879,0.923-1.235c0.403-0.355,0.901-0.639,1.495-0.852c0.593-0.212,1.271-0.318,2.034-0.318
			c0.875,0,1.666,0.139,2.373,0.416c0.706,0.277,1.311,0.659,1.813,1.144L411.817,182.418z"/>
	</g>
	<g>
		<g>
			<g>
				<polygon fill="#1E3C4D" points="571.683,85.738 557.591,101.02 565.899,113.483 583.489,121.637 595.49,97.892 				"/>
				<polygon opacity="0.85" fill="#D06F6E" points="548.052,97.841 562.924,117.586 580.515,117.586 585.95,100.918 571.683,90.609 
									"/>
				<polygon opacity="0.85" fill="#9DC3CC" points="557.129,125.688 567.181,104.046 571.683,95.584 585.95,100.918 
					583.489,121.637 				"/>
			</g>
			<g>
				<path fill="#1E424D" d="M606.467,98.2v6.87l7.777-0.05v1.183l-7.777-0.051v8.155h-2.013V97.118h10.117v1.233L606.467,98.2z"/>
				<path fill="#1E424D" d="M619.907,114.307V97.118h1.937v16.107l8.18-0.151v1.233H619.907z"/>
				<path fill="#1E424D" d="M641.652,114.509c-4.882,0-8.808-3.926-8.808-8.784c0-4.883,3.925-8.809,8.808-8.809
					c4.882,0,8.808,3.926,8.808,8.809C650.46,110.583,646.534,114.509,641.652,114.509z M641.652,97.974
					c-3.75,0-6.72,3.422-6.72,7.751c0,4.329,2.97,7.727,6.72,7.727c3.749,0,6.719-3.398,6.719-7.727
					C648.371,101.396,645.401,97.974,641.652,97.974z"/>
				<path fill="#1E424D" d="M655.77,97.118l4.203,13.364l4.984-13.942l5.159,13.892l4.128-13.314h1.434l-5.864,17.768l-5.159-13.817
					l-5.184,13.817l-5.863-17.768H655.77z"/>
			</g>
		</g>
		<g>
			<g>
				<rect x="147.213" y="95.921" fill="#00141E" width="23.833" height="3.833"/>
				<rect x="147.213" y="103.796" fill="#00141E" width="23.833" height="3.833"/>
				<rect x="147.213" y="111.671" fill="#00141E" width="23.833" height="3.833"/>
			</g>
			<g>
				<path fill="#00141E" d="M205.229,98.675v11.608h-2.12v-7.128c0-0.149,0.004-0.309,0.012-0.48
					c0.008-0.171,0.022-0.344,0.044-0.52l-3.32,6.296c-0.181,0.347-0.461,0.52-0.84,0.52h-0.336c-0.187,0-0.352-0.044-0.496-0.132
					c-0.144-0.088-0.259-0.217-0.344-0.388l-3.336-6.32c0.016,0.187,0.029,0.367,0.04,0.54s0.016,0.334,0.016,0.484v7.128h-2.12
					V98.675h1.824c0.101,0,0.192,0.002,0.272,0.008s0.15,0.02,0.212,0.044s0.117,0.062,0.168,0.112s0.1,0.121,0.148,0.212
					l3.248,6.192c0.102,0.187,0.196,0.379,0.284,0.576s0.172,0.4,0.252,0.608c0.08-0.213,0.164-0.421,0.252-0.624
					s0.183-0.397,0.284-0.584l3.224-6.168c0.048-0.091,0.099-0.161,0.152-0.212c0.053-0.051,0.11-0.088,0.172-0.112
					c0.061-0.024,0.131-0.039,0.208-0.044s0.169-0.008,0.276-0.008H205.229z"/>
				<path fill="#00141E" d="M210.068,100.555v2.984h3.872v1.816h-3.872v3.048h4.976v1.88h-7.392V98.675h7.392v1.88H210.068z"/>
				<path fill="#00141E" d="M226.78,98.675v11.608h-1.24c-0.187,0-0.344-0.031-0.472-0.092c-0.128-0.062-0.253-0.167-0.376-0.316
					l-5.784-7.36c0.016,0.187,0.028,0.371,0.036,0.552c0.008,0.181,0.012,0.349,0.012,0.504v6.712h-2.12V98.675h1.264
					c0.101,0,0.188,0.004,0.26,0.012c0.072,0.008,0.137,0.027,0.196,0.056s0.115,0.068,0.168,0.116
					c0.053,0.048,0.112,0.112,0.176,0.192l5.824,7.392c-0.021-0.203-0.038-0.399-0.048-0.588c-0.011-0.189-0.016-0.369-0.016-0.54
					v-6.64H226.78z"/>
				<path fill="#00141E" d="M233.963,108.363c0.39,0,0.739-0.065,1.048-0.196c0.309-0.13,0.57-0.316,0.784-0.556
					c0.213-0.24,0.376-0.531,0.488-0.872c0.112-0.341,0.168-0.725,0.168-1.152v-6.912h2.4v6.912c0,0.704-0.113,1.351-0.34,1.94
					c-0.227,0.589-0.551,1.097-0.972,1.524s-0.933,0.76-1.536,1c-0.603,0.24-1.283,0.36-2.04,0.36s-1.438-0.12-2.044-0.36
					c-0.605-0.24-1.119-0.573-1.54-1s-0.745-0.935-0.972-1.524c-0.227-0.589-0.34-1.236-0.34-1.94v-6.912h2.4v6.912
					c0,0.427,0.056,0.811,0.168,1.152c0.112,0.341,0.274,0.632,0.488,0.872c0.213,0.24,0.475,0.425,0.784,0.556
					C233.217,108.297,233.569,108.363,233.963,108.363z"/>
			</g>
		</g>
		<line fill="none" stroke="#00141E" stroke-miterlimit="10" x1="1115.635" y1="134.955" x2="130.536" y2="134.955"/>
	</g>
	<g>
		<g>
			<g>
				<polygon fill="none" stroke="#9FA19E" stroke-miterlimit="10" points="646.113,695.742 542.436,629.113 491.24,517.009 
					508.779,395.022 589.485,301.882 707.734,267.161 825.983,301.882 906.689,395.022 924.228,517.009 873.031,629.113 
					769.354,695.742 				"/>
				<polygon fill="none" stroke="#9FA19E" stroke-miterlimit="10" points="701.572,502.881 691.204,496.218 686.084,485.007 
					687.838,472.809 695.909,463.495 707.734,460.023 719.559,463.495 727.629,472.809 729.383,485.007 724.264,496.218 
					713.896,502.881 				"/>
				<polygon fill="none" stroke="#9FA19E" stroke-miterlimit="10" points="695.41,524.31 674.674,510.984 664.435,488.563 
					667.943,464.166 684.084,445.538 707.734,438.594 731.384,445.538 747.525,464.166 751.033,488.563 740.793,510.984 
					720.058,524.31 				"/>
				<polygon fill="none" stroke="#9FA19E" stroke-miterlimit="10" points="689.248,545.739 658.144,525.75 642.786,492.119 
					648.047,455.523 672.259,427.581 707.734,417.164 743.208,427.581 767.42,455.523 772.682,492.119 757.323,525.75 
					726.22,545.739 				"/>
				<polygon fill="none" stroke="#9FA19E" stroke-miterlimit="10" points="683.086,567.168 641.615,540.516 621.136,495.674 
					628.152,446.88 660.434,409.624 707.734,395.735 755.033,409.624 787.316,446.88 794.331,495.674 773.853,540.516 
					732.382,567.168 				"/>
				<polygon fill="none" stroke="#9FA19E" stroke-miterlimit="10" points="676.923,588.597 625.085,555.282 599.487,499.23 
					608.256,438.237 648.609,391.667 707.734,374.306 766.858,391.667 807.211,438.237 815.981,499.23 790.383,555.282 
					738.544,588.597 				"/>
				<polygon fill="none" stroke="#9FA19E" stroke-miterlimit="10" points="670.761,610.026 608.555,570.048 577.837,502.786 
					588.361,429.594 636.784,373.71 707.734,352.877 778.683,373.71 827.107,429.594 837.63,502.786 806.912,570.048 
					744.706,610.026 				"/>
				<polygon fill="none" stroke="#9FA19E" stroke-miterlimit="10" points="664.599,631.455 592.025,584.814 556.188,506.342 
					568.465,420.951 624.959,355.753 707.734,331.448 790.508,355.753 847.002,420.951 859.28,506.342 823.442,584.814 
					750.868,631.455 				"/>
				<polygon fill="none" stroke="#9FA19E" stroke-miterlimit="10" points="658.437,652.884 575.496,599.581 534.539,509.897 
					548.57,412.308 613.134,337.796 707.734,310.019 802.333,337.796 866.898,412.308 880.929,509.897 839.972,599.581 
					757.03,652.884 				"/>
				<polygon fill="none" stroke="#9FA19E" stroke-miterlimit="10" points="652.275,674.313 558.966,614.347 512.889,513.453 
					528.674,403.665 601.31,319.839 707.734,288.59 814.158,319.839 886.793,403.665 902.578,513.453 856.502,614.347 
					763.192,674.313 				"/>
			</g>
		</g>
		<g>
			<g>
				<line fill="none" stroke="#9FA19E" stroke-miterlimit="10" x1="469.59" y1="520.564" x2="707.734" y2="481.199"/>
				<line fill="none" stroke="#9FA19E" stroke-miterlimit="10" x1="488.883" y1="386.379" x2="707.734" y2="481.199"/>
				<line fill="none" stroke="#9FA19E" stroke-miterlimit="10" x1="525.906" y1="643.879" x2="707.734" y2="481.199"/>
				<line fill="none" stroke="#9FA19E" stroke-miterlimit="10" x1="639.826" y1="717.604" x2="707.734" y2="481.199"/>
				<line fill="none" stroke="#9FA19E" stroke-miterlimit="10" x1="775.516" y1="717.171" x2="707.734" y2="481.199"/>
				<line fill="none" stroke="#9FA19E" stroke-miterlimit="10" x1="889.561" y1="643.879" x2="707.734" y2="481.199"/>
				<line fill="none" stroke="#9FA19E" stroke-miterlimit="10" x1="945.877" y1="520.564" x2="707.734" y2="481.199"/>
				<line fill="none" stroke="#9FA19E" stroke-miterlimit="10" x1="926.584" y1="386.379" x2="707.734" y2="481.199"/>
				<line fill="none" stroke="#9FA19E" stroke-miterlimit="10" x1="837.808" y1="283.925" x2="707.734" y2="481.199"/>
				<line fill="none" stroke="#9FA19E" stroke-miterlimit="10" x1="707.734" y1="245.351" x2="707.734" y2="481.199"/>
				<line fill="none" stroke="#9FA19E" stroke-miterlimit="10" x1="577.837" y1="283.925" x2="707.734" y2="481.199"/>
			</g>
		</g>
		<circle fill="#9DC3CC" stroke="#9DC3CC" stroke-width="2" stroke-miterlimit="10" cx="707.734" cy="245.732" r="3.608"/>
		<circle fill="#9DC3CC" stroke="#9DC3CC" stroke-width="2" stroke-miterlimit="10" cx="837.808" cy="283.925" r="3.608"/>
		<circle fill="#9DC3CC" stroke="#9DC3CC" stroke-width="2" stroke-miterlimit="10" cx="926.584" cy="386.379" r="3.608"/>
		<circle fill="#9DC3CC" stroke="#9DC3CC" stroke-width="2" stroke-miterlimit="10" cx="945.877" cy="520.564" r="3.608"/>
		<circle fill="#9DC3CC" stroke="#9DC3CC" stroke-width="2" stroke-miterlimit="10" cx="889.561" cy="643.879" r="3.608"/>
		<circle fill="#9DC3CC" stroke="#9DC3CC" stroke-width="2" stroke-miterlimit="10" cx="775.516" cy="717.171" r="3.608"/>
		<circle fill="#9DC3CC" stroke="#9DC3CC" stroke-width="2" stroke-miterlimit="10" cx="639.951" cy="717.171" r="3.608"/>
		<circle fill="#9DC3CC" stroke="#9DC3CC" stroke-width="2" stroke-miterlimit="10" cx="525.906" cy="643.879" r="3.608"/>
		<circle fill="#9DC3CC" stroke="#9DC3CC" stroke-width="2" stroke-miterlimit="10" cx="469.59" cy="520.564" r="3.608"/>
		<circle fill="#9DC3CC" stroke="#9DC3CC" stroke-width="2" stroke-miterlimit="10" cx="488.883" cy="386.379" r="3.608"/>
		<circle fill="#9DC3CC" stroke="#9DC3CC" stroke-width="2" stroke-miterlimit="10" cx="577.837" cy="283.925" r="3.608"/>
		<g>
			<g>
				<path fill="#00384B" d="M684.944,222.748c-0.048,0.08-0.1,0.14-0.156,0.18c-0.056,0.04-0.124,0.061-0.204,0.061
					c-0.09,0-0.197-0.046-0.319-0.137c-0.123-0.09-0.276-0.19-0.46-0.3c-0.185-0.109-0.405-0.209-0.664-0.3s-0.572-0.136-0.94-0.136
					c-0.347,0-0.651,0.047-0.916,0.14c-0.264,0.094-0.485,0.22-0.664,0.38s-0.313,0.349-0.403,0.564
					c-0.091,0.216-0.137,0.449-0.137,0.7c0,0.319,0.079,0.585,0.236,0.796c0.157,0.21,0.365,0.391,0.624,0.54
					s0.552,0.278,0.88,0.388s0.664,0.223,1.008,0.34c0.345,0.117,0.681,0.249,1.009,0.396c0.327,0.146,0.621,0.332,0.88,0.556
					c0.258,0.224,0.466,0.499,0.624,0.824c0.157,0.325,0.235,0.725,0.235,1.199c0,0.502-0.085,0.973-0.256,1.412
					c-0.171,0.44-0.42,0.823-0.748,1.148s-0.73,0.581-1.208,0.768s-1.02,0.28-1.628,0.28c-0.747,0-1.424-0.135-2.032-0.404
					c-0.607-0.269-1.128-0.633-1.56-1.092l0.448-0.735c0.042-0.06,0.095-0.108,0.155-0.148c0.062-0.04,0.13-0.06,0.204-0.06
					c0.069,0,0.148,0.027,0.236,0.084c0.088,0.056,0.188,0.126,0.3,0.212c0.112,0.085,0.24,0.179,0.384,0.279
					c0.145,0.102,0.309,0.195,0.492,0.28c0.185,0.085,0.394,0.156,0.628,0.212c0.235,0.056,0.499,0.084,0.792,0.084
					c0.368,0,0.696-0.051,0.984-0.151c0.288-0.102,0.532-0.244,0.731-0.429c0.2-0.184,0.354-0.403,0.461-0.66
					c0.106-0.256,0.159-0.541,0.159-0.855c0-0.347-0.078-0.631-0.235-0.853c-0.157-0.221-0.364-0.406-0.62-0.556
					s-0.55-0.276-0.88-0.38c-0.331-0.104-0.667-0.211-1.009-0.32c-0.341-0.109-0.677-0.235-1.008-0.38
					c-0.33-0.144-0.624-0.33-0.88-0.56s-0.463-0.517-0.62-0.86s-0.235-0.77-0.235-1.276c0-0.405,0.078-0.797,0.235-1.176
					c0.157-0.378,0.387-0.715,0.688-1.008c0.301-0.293,0.672-0.528,1.111-0.704c0.44-0.176,0.945-0.264,1.517-0.264
					c0.64,0,1.223,0.102,1.748,0.304c0.525,0.203,0.988,0.496,1.388,0.88L684.944,222.748z"/>
				<path fill="#00384B" d="M696.312,222.26h-3.712v10.16h-1.544v-10.16h-3.72v-1.304h8.976V222.26z"/>
				<path fill="#00384B" d="M707.009,232.42h-1.2c-0.139,0-0.251-0.034-0.336-0.104c-0.086-0.069-0.149-0.158-0.192-0.265
					l-1.072-2.768h-5.144l-1.072,2.768c-0.032,0.096-0.093,0.182-0.184,0.256c-0.091,0.075-0.203,0.112-0.336,0.112h-1.2
					l4.584-11.464h1.568L707.009,232.42z M703.776,228.164l-1.8-4.664c-0.054-0.139-0.109-0.3-0.168-0.484
					c-0.059-0.184-0.115-0.38-0.168-0.588c-0.112,0.433-0.227,0.792-0.345,1.08l-1.8,4.656H703.776z"/>
				<path fill="#00384B" d="M715.944,222.26h-3.712v10.16h-1.544v-10.16h-3.72v-1.304h8.976V222.26z"/>
				<path fill="#00384B" d="M722.864,231.188c0.475,0,0.898-0.079,1.272-0.239c0.373-0.16,0.688-0.385,0.947-0.672
					c0.259-0.288,0.456-0.633,0.593-1.032c0.136-0.4,0.203-0.84,0.203-1.32v-6.968h1.545v6.968c0,0.661-0.105,1.274-0.316,1.84
					s-0.512,1.055-0.904,1.468c-0.392,0.414-0.87,0.738-1.436,0.973s-1.2,0.352-1.904,0.352s-1.339-0.117-1.904-0.352
					s-1.045-0.559-1.439-0.973c-0.395-0.413-0.697-0.902-0.908-1.468s-0.316-1.179-0.316-1.84v-6.968h1.544v6.96
					c0,0.479,0.068,0.92,0.204,1.32c0.137,0.399,0.334,0.743,0.593,1.031c0.258,0.288,0.575,0.514,0.951,0.677
					C721.964,231.106,722.39,231.188,722.864,231.188z"/>
				<path fill="#00384B" d="M736.872,222.748c-0.048,0.08-0.1,0.14-0.156,0.18c-0.056,0.04-0.124,0.061-0.204,0.061
					c-0.09,0-0.197-0.046-0.319-0.137c-0.123-0.09-0.276-0.19-0.46-0.3c-0.185-0.109-0.405-0.209-0.664-0.3s-0.572-0.136-0.94-0.136
					c-0.347,0-0.651,0.047-0.916,0.14c-0.264,0.094-0.485,0.22-0.664,0.38s-0.313,0.349-0.403,0.564
					c-0.091,0.216-0.137,0.449-0.137,0.7c0,0.319,0.079,0.585,0.236,0.796c0.157,0.21,0.365,0.391,0.624,0.54
					s0.552,0.278,0.88,0.388s0.664,0.223,1.008,0.34c0.345,0.117,0.681,0.249,1.009,0.396c0.327,0.146,0.621,0.332,0.88,0.556
					c0.258,0.224,0.466,0.499,0.624,0.824c0.157,0.325,0.235,0.725,0.235,1.199c0,0.502-0.085,0.973-0.256,1.412
					c-0.171,0.44-0.42,0.823-0.748,1.148s-0.73,0.581-1.208,0.768s-1.02,0.28-1.628,0.28c-0.747,0-1.424-0.135-2.032-0.404
					c-0.607-0.269-1.128-0.633-1.56-1.092l0.448-0.735c0.042-0.06,0.095-0.108,0.155-0.148c0.062-0.04,0.13-0.06,0.204-0.06
					c0.069,0,0.148,0.027,0.236,0.084c0.088,0.056,0.188,0.126,0.3,0.212c0.112,0.085,0.24,0.179,0.384,0.279
					c0.145,0.102,0.309,0.195,0.492,0.28c0.185,0.085,0.394,0.156,0.628,0.212c0.235,0.056,0.499,0.084,0.792,0.084
					c0.368,0,0.696-0.051,0.984-0.151c0.288-0.102,0.532-0.244,0.731-0.429c0.2-0.184,0.354-0.403,0.461-0.66
					c0.106-0.256,0.159-0.541,0.159-0.855c0-0.347-0.078-0.631-0.235-0.853c-0.157-0.221-0.364-0.406-0.62-0.556
					s-0.55-0.276-0.88-0.38c-0.331-0.104-0.667-0.211-1.009-0.32c-0.341-0.109-0.677-0.235-1.008-0.38
					c-0.33-0.144-0.624-0.33-0.88-0.56s-0.463-0.517-0.62-0.86s-0.235-0.77-0.235-1.276c0-0.405,0.078-0.797,0.235-1.176
					c0.157-0.378,0.387-0.715,0.688-1.008c0.301-0.293,0.672-0.528,1.111-0.704c0.44-0.176,0.945-0.264,1.517-0.264
					c0.64,0,1.223,0.102,1.748,0.304c0.525,0.203,0.988,0.496,1.388,0.88L736.872,222.748z"/>
			</g>
		</g>
		<g>
			<g>
				<path fill="#00384B" d="M853.615,270.783c0.085,0,0.159,0.035,0.224,0.104l0.616,0.664c-0.47,0.544-1.039,0.968-1.708,1.271
					c-0.67,0.304-1.479,0.456-2.429,0.456c-0.821,0-1.567-0.143-2.239-0.428s-1.246-0.686-1.721-1.2s-0.843-1.132-1.104-1.852
					c-0.262-0.721-0.393-1.513-0.393-2.376c0-0.864,0.137-1.656,0.408-2.376c0.272-0.721,0.655-1.339,1.148-1.856
					s1.084-0.919,1.771-1.204c0.688-0.285,1.448-0.428,2.28-0.428c0.816,0,1.536,0.131,2.16,0.392
					c0.624,0.262,1.173,0.616,1.647,1.064l-0.512,0.712c-0.032,0.053-0.073,0.098-0.124,0.132c-0.051,0.035-0.118,0.052-0.204,0.052
					c-0.096,0-0.213-0.052-0.352-0.156c-0.139-0.104-0.32-0.22-0.544-0.348c-0.225-0.128-0.504-0.244-0.84-0.348
					c-0.336-0.104-0.75-0.156-1.24-0.156c-0.592,0-1.134,0.103-1.624,0.308c-0.491,0.206-0.913,0.503-1.269,0.893
					c-0.354,0.39-0.63,0.864-0.827,1.424c-0.198,0.56-0.296,1.192-0.296,1.896c0,0.714,0.103,1.352,0.308,1.911
					c0.205,0.561,0.485,1.034,0.84,1.42c0.354,0.388,0.773,0.682,1.256,0.885c0.482,0.202,1.004,0.304,1.564,0.304
					c0.341,0,0.649-0.02,0.924-0.06s0.528-0.104,0.76-0.188c0.232-0.085,0.448-0.193,0.648-0.324c0.2-0.13,0.398-0.286,0.596-0.468
					C853.434,270.823,853.524,270.783,853.615,270.783z"/>
				<path fill="#00384B" d="M865.526,273.151h-1.376c-0.282,0-0.49-0.109-0.624-0.328l-2.976-4.096
					c-0.091-0.128-0.188-0.22-0.292-0.276c-0.104-0.056-0.266-0.084-0.484-0.084h-1.176v4.784h-1.544v-11.464h3.24
					c0.725,0,1.352,0.073,1.88,0.22c0.527,0.146,0.964,0.359,1.308,0.636c0.344,0.277,0.599,0.612,0.764,1.005
					c0.166,0.392,0.248,0.83,0.248,1.315c0,0.405-0.063,0.784-0.191,1.136c-0.128,0.353-0.313,0.668-0.557,0.948
					c-0.242,0.28-0.538,0.519-0.888,0.716s-0.745,0.347-1.188,0.448c0.197,0.112,0.368,0.274,0.512,0.488L865.526,273.151z
					 M860.23,267.239c0.448,0,0.844-0.055,1.188-0.164c0.344-0.109,0.632-0.264,0.863-0.464c0.232-0.2,0.407-0.438,0.524-0.716
					s0.176-0.584,0.176-0.92c0-0.683-0.224-1.197-0.672-1.544s-1.12-0.521-2.016-0.521h-1.696v4.328H860.23z"/>
				<path fill="#00384B" d="M874.951,271.888l-0.009,1.264h-7.063v-11.464h7.063v1.264h-5.512v3.809h4.464v1.216h-4.464v3.912
					H874.951z"/>
				<path fill="#00384B" d="M887.239,273.151h-1.2c-0.139,0-0.251-0.034-0.336-0.104c-0.086-0.069-0.149-0.158-0.192-0.265
					l-1.072-2.768h-5.144l-1.072,2.768c-0.032,0.096-0.093,0.182-0.184,0.256c-0.091,0.075-0.203,0.112-0.336,0.112h-1.2
					l4.584-11.464h1.568L887.239,273.151z M884.007,268.896l-1.8-4.664c-0.054-0.139-0.109-0.3-0.168-0.484
					c-0.059-0.184-0.115-0.38-0.168-0.588c-0.112,0.433-0.227,0.792-0.345,1.08l-1.8,4.656H884.007z"/>
				<path fill="#00384B" d="M896.175,262.991h-3.712v10.16h-1.544v-10.16h-3.72v-1.304h8.976V262.991z"/>
				<path fill="#00384B" d="M900.223,273.151h-1.553v-11.464h1.553V273.151z"/>
				<path fill="#00384B" d="M913.271,261.688l-4.672,11.464h-1.392l-4.673-11.464h1.24c0.139,0,0.251,0.034,0.336,0.104
					c0.086,0.069,0.149,0.158,0.192,0.265l3.231,8.088c0.069,0.182,0.138,0.379,0.204,0.592c0.067,0.214,0.127,0.438,0.181,0.672
					c0.053-0.234,0.108-0.458,0.168-0.672c0.059-0.213,0.122-0.41,0.191-0.592l3.225-8.088c0.031-0.091,0.095-0.175,0.188-0.252
					c0.094-0.077,0.207-0.116,0.34-0.116H913.271z"/>
				<path fill="#00384B" d="M917.135,273.151h-1.553v-11.464h1.553V273.151z"/>
				<path fill="#00384B" d="M928.614,262.991h-3.712v10.16h-1.544v-10.16h-3.72v-1.304h8.976V262.991z"/>
				<path fill="#00384B" d="M935.414,268.583v4.568h-1.552v-4.568l-4.2-6.896h1.36c0.139,0,0.248,0.033,0.328,0.1
					c0.08,0.067,0.148,0.153,0.208,0.261l2.624,4.455c0.096,0.188,0.184,0.361,0.264,0.524s0.149,0.327,0.208,0.492
					c0.059-0.165,0.125-0.329,0.2-0.492c0.074-0.163,0.157-0.337,0.248-0.524l2.615-4.455c0.049-0.091,0.115-0.174,0.2-0.248
					c0.086-0.075,0.195-0.112,0.328-0.112h1.368L935.414,268.583z"/>
			</g>
		</g>
		<g>
			<g>
				<path fill="#00384B" d="M940.766,373.918c0.726,0,1.356,0.084,1.893,0.252c0.535,0.168,0.979,0.406,1.331,0.716
					c0.353,0.31,0.615,0.683,0.788,1.12c0.174,0.438,0.261,0.926,0.261,1.464c0,0.533-0.094,1.021-0.28,1.464
					c-0.187,0.443-0.46,0.824-0.82,1.145c-0.359,0.319-0.805,0.569-1.336,0.748c-0.53,0.179-1.143,0.268-1.836,0.268h-1.84v4.288
					h-1.544v-11.464H940.766z M940.766,379.862c0.442,0,0.833-0.06,1.172-0.177s0.624-0.281,0.856-0.492
					c0.231-0.21,0.406-0.462,0.523-0.756c0.117-0.293,0.177-0.615,0.177-0.968c0-0.73-0.226-1.301-0.677-1.712
					c-0.45-0.41-1.135-0.616-2.052-0.616h-1.84v4.721H940.766z"/>
				<path fill="#00384B" d="M956.262,385.382h-1.376c-0.283,0-0.491-0.109-0.624-0.328l-2.977-4.096
					c-0.091-0.128-0.188-0.22-0.292-0.276c-0.104-0.056-0.265-0.084-0.483-0.084h-1.177v4.784h-1.544v-11.464h3.24
					c0.726,0,1.353,0.073,1.88,0.22c0.528,0.146,0.964,0.359,1.309,0.636c0.344,0.277,0.599,0.612,0.764,1.005
					c0.165,0.392,0.248,0.83,0.248,1.315c0,0.405-0.064,0.784-0.192,1.136c-0.128,0.353-0.313,0.668-0.556,0.948
					c-0.243,0.28-0.539,0.519-0.888,0.716c-0.35,0.197-0.746,0.347-1.188,0.448c0.197,0.112,0.368,0.274,0.512,0.488
					L956.262,385.382z M950.966,379.47c0.447,0,0.844-0.055,1.188-0.164s0.632-0.264,0.864-0.464c0.231-0.2,0.406-0.438,0.523-0.716
					s0.177-0.584,0.177-0.92c0-0.683-0.225-1.197-0.672-1.544c-0.448-0.347-1.12-0.521-2.017-0.521h-1.696v4.328H950.966z"/>
				<path fill="#00384B" d="M969.094,379.654c0,0.858-0.136,1.646-0.408,2.363c-0.271,0.718-0.655,1.335-1.151,1.853
					s-1.093,0.919-1.788,1.204c-0.696,0.285-1.466,0.428-2.309,0.428s-1.61-0.143-2.304-0.428s-1.288-0.687-1.784-1.204
					s-0.88-1.135-1.151-1.853c-0.272-0.717-0.408-1.505-0.408-2.363c0-0.859,0.136-1.647,0.408-2.364
					c0.271-0.718,0.655-1.336,1.151-1.856c0.496-0.52,1.091-0.924,1.784-1.212s1.461-0.432,2.304-0.432s1.612,0.144,2.309,0.432
					c0.695,0.288,1.292,0.692,1.788,1.212c0.496,0.521,0.88,1.139,1.151,1.856C968.958,378.007,969.094,378.795,969.094,379.654z
					 M967.502,379.654c0-0.704-0.096-1.337-0.288-1.896s-0.464-1.033-0.816-1.42c-0.352-0.387-0.778-0.684-1.279-0.892
					c-0.502-0.208-1.062-0.312-1.681-0.312c-0.613,0-1.17,0.104-1.672,0.312c-0.501,0.208-0.929,0.505-1.284,0.892
					c-0.354,0.387-0.628,0.86-0.819,1.42c-0.192,0.56-0.288,1.192-0.288,1.896c0,0.703,0.096,1.334,0.288,1.892
					c0.191,0.558,0.465,1.029,0.819,1.416c0.355,0.387,0.783,0.683,1.284,0.888c0.502,0.206,1.059,0.309,1.672,0.309
					c0.619,0,1.179-0.103,1.681-0.309c0.501-0.205,0.928-0.501,1.279-0.888c0.353-0.387,0.624-0.858,0.816-1.416
					S967.502,380.357,967.502,379.654z"/>
				<path fill="#00384B" d="M981.422,379.87v4.399c-0.576,0.416-1.19,0.728-1.844,0.933s-1.37,0.308-2.148,0.308
					c-0.923,0-1.755-0.143-2.496-0.428s-1.375-0.686-1.899-1.2c-0.525-0.515-0.93-1.132-1.213-1.852
					c-0.282-0.721-0.424-1.513-0.424-2.376c0-0.875,0.138-1.673,0.412-2.393s0.665-1.337,1.172-1.852s1.123-0.913,1.849-1.196
					c0.725-0.282,1.536-0.424,2.432-0.424c0.453,0,0.875,0.033,1.264,0.1c0.39,0.067,0.75,0.163,1.08,0.288
					c0.331,0.125,0.638,0.277,0.92,0.456c0.283,0.179,0.547,0.38,0.792,0.604l-0.439,0.703c-0.069,0.107-0.159,0.175-0.269,0.204
					s-0.23,0.004-0.363-0.075c-0.128-0.075-0.275-0.166-0.44-0.272s-0.366-0.209-0.604-0.308s-0.518-0.183-0.841-0.252
					c-0.322-0.069-0.705-0.104-1.147-0.104c-0.646,0-1.229,0.105-1.752,0.316c-0.522,0.21-0.968,0.512-1.336,0.903
					c-0.368,0.393-0.651,0.867-0.849,1.425c-0.197,0.557-0.296,1.183-0.296,1.876c0,0.72,0.103,1.363,0.309,1.932
					c0.205,0.568,0.498,1.051,0.88,1.448c0.381,0.397,0.844,0.699,1.388,0.907s1.154,0.312,1.832,0.312
					c0.533,0,1.007-0.061,1.42-0.18c0.413-0.12,0.817-0.287,1.212-0.5v-2.521h-1.784c-0.101,0-0.183-0.029-0.243-0.088
					c-0.062-0.059-0.093-0.131-0.093-0.216v-0.88H981.422z"/>
				<path fill="#00384B" d="M993.069,385.382h-1.376c-0.282,0-0.49-0.109-0.624-0.328l-2.976-4.096
					c-0.091-0.128-0.188-0.22-0.292-0.276c-0.104-0.056-0.266-0.084-0.484-0.084h-1.176v4.784h-1.544v-11.464h3.24
					c0.725,0,1.352,0.073,1.88,0.22c0.527,0.146,0.964,0.359,1.308,0.636c0.344,0.277,0.599,0.612,0.764,1.005
					c0.166,0.392,0.248,0.83,0.248,1.315c0,0.405-0.063,0.784-0.191,1.136c-0.128,0.353-0.313,0.668-0.557,0.948
					c-0.242,0.28-0.538,0.519-0.888,0.716s-0.745,0.347-1.188,0.448c0.197,0.112,0.368,0.274,0.512,0.488L993.069,385.382z
					 M987.773,379.47c0.448,0,0.844-0.055,1.188-0.164c0.344-0.109,0.632-0.264,0.863-0.464c0.232-0.2,0.407-0.438,0.524-0.716
					s0.176-0.584,0.176-0.92c0-0.683-0.224-1.197-0.672-1.544s-1.12-0.521-2.016-0.521h-1.696v4.328H987.773z"/>
				<path fill="#00384B" d="M1002.493,384.118l-0.008,1.264h-7.064v-11.464h7.064v1.264h-5.512v3.809h4.464v1.216h-4.464v3.912
					H1002.493z"/>
				<path fill="#00384B" d="M1011.325,375.71c-0.048,0.08-0.1,0.14-0.156,0.18c-0.056,0.04-0.124,0.061-0.204,0.061
					c-0.09,0-0.197-0.046-0.319-0.137c-0.123-0.09-0.276-0.19-0.46-0.3c-0.185-0.109-0.405-0.209-0.664-0.3s-0.572-0.136-0.94-0.136
					c-0.347,0-0.651,0.047-0.916,0.14c-0.264,0.094-0.485,0.22-0.664,0.38s-0.313,0.349-0.403,0.564
					c-0.091,0.216-0.137,0.449-0.137,0.7c0,0.319,0.079,0.585,0.236,0.796c0.157,0.21,0.365,0.391,0.624,0.54
					s0.552,0.278,0.88,0.388s0.664,0.223,1.008,0.34c0.345,0.117,0.681,0.249,1.009,0.396c0.327,0.146,0.621,0.332,0.88,0.556
					c0.258,0.224,0.466,0.499,0.624,0.824c0.157,0.325,0.235,0.725,0.235,1.199c0,0.502-0.085,0.973-0.256,1.412
					c-0.171,0.44-0.42,0.823-0.748,1.148s-0.73,0.581-1.208,0.768s-1.02,0.28-1.628,0.28c-0.747,0-1.424-0.135-2.032-0.404
					c-0.607-0.269-1.128-0.633-1.56-1.092l0.448-0.735c0.042-0.06,0.095-0.108,0.155-0.148c0.062-0.04,0.13-0.06,0.204-0.06
					c0.069,0,0.148,0.027,0.236,0.084c0.088,0.056,0.188,0.126,0.3,0.212c0.112,0.085,0.24,0.179,0.384,0.279
					c0.145,0.102,0.309,0.195,0.492,0.28c0.185,0.085,0.394,0.156,0.628,0.212c0.235,0.056,0.499,0.084,0.792,0.084
					c0.368,0,0.696-0.051,0.984-0.151c0.288-0.102,0.532-0.244,0.731-0.429c0.2-0.184,0.354-0.403,0.461-0.66
					c0.106-0.256,0.159-0.541,0.159-0.855c0-0.347-0.078-0.631-0.235-0.853c-0.157-0.221-0.364-0.406-0.62-0.556
					s-0.55-0.276-0.88-0.38c-0.331-0.104-0.667-0.211-1.009-0.32c-0.341-0.109-0.677-0.235-1.008-0.38
					c-0.33-0.144-0.624-0.33-0.88-0.56s-0.463-0.517-0.62-0.86s-0.235-0.77-0.235-1.276c0-0.405,0.078-0.797,0.235-1.176
					c0.157-0.378,0.387-0.715,0.688-1.008c0.301-0.293,0.672-0.528,1.111-0.704c0.44-0.176,0.945-0.264,1.517-0.264
					c0.64,0,1.223,0.102,1.748,0.304c0.525,0.203,0.988,0.496,1.388,0.88L1011.325,375.71z"/>
				<path fill="#00384B" d="M1020.806,375.71c-0.049,0.08-0.101,0.14-0.156,0.18s-0.124,0.061-0.204,0.061
					c-0.091,0-0.197-0.046-0.32-0.137c-0.122-0.09-0.275-0.19-0.46-0.3c-0.184-0.109-0.405-0.209-0.664-0.3
					s-0.571-0.136-0.939-0.136c-0.347,0-0.652,0.047-0.916,0.14c-0.265,0.094-0.485,0.22-0.664,0.38s-0.313,0.349-0.404,0.564
					s-0.136,0.449-0.136,0.7c0,0.319,0.078,0.585,0.236,0.796c0.157,0.21,0.365,0.391,0.624,0.54
					c0.258,0.149,0.552,0.278,0.88,0.388s0.664,0.223,1.008,0.34s0.68,0.249,1.008,0.396c0.328,0.146,0.621,0.332,0.88,0.556
					s0.467,0.499,0.624,0.824s0.236,0.725,0.236,1.199c0,0.502-0.086,0.973-0.256,1.412c-0.171,0.44-0.42,0.823-0.748,1.148
					s-0.731,0.581-1.208,0.768c-0.478,0.187-1.021,0.28-1.628,0.28c-0.747,0-1.425-0.135-2.032-0.404
					c-0.608-0.269-1.128-0.633-1.561-1.092l0.448-0.735c0.043-0.06,0.095-0.108,0.156-0.148s0.129-0.06,0.204-0.06
					c0.069,0,0.147,0.027,0.235,0.084c0.089,0.056,0.188,0.126,0.301,0.212c0.111,0.085,0.239,0.179,0.384,0.279
					c0.144,0.102,0.308,0.195,0.492,0.28c0.184,0.085,0.393,0.156,0.628,0.212c0.234,0.056,0.498,0.084,0.792,0.084
					c0.368,0,0.695-0.051,0.983-0.151c0.288-0.102,0.532-0.244,0.732-0.429c0.2-0.184,0.354-0.403,0.46-0.66
					c0.106-0.256,0.16-0.541,0.16-0.855c0-0.347-0.079-0.631-0.236-0.853c-0.157-0.221-0.364-0.406-0.62-0.556
					s-0.549-0.276-0.88-0.38c-0.331-0.104-0.667-0.211-1.008-0.32c-0.342-0.109-0.678-0.235-1.008-0.38
					c-0.331-0.144-0.624-0.33-0.88-0.56s-0.463-0.517-0.62-0.86s-0.236-0.77-0.236-1.276c0-0.405,0.079-0.797,0.236-1.176
					c0.157-0.378,0.387-0.715,0.688-1.008c0.302-0.293,0.672-0.528,1.112-0.704s0.945-0.264,1.516-0.264
					c0.641,0,1.223,0.102,1.748,0.304c0.525,0.203,0.988,0.496,1.389,0.88L1020.806,375.71z"/>
			</g>
		</g>
		<g>
			<g>
				<path fill="#00384B" d="M959.03,516.065v4.008h4.712v1.265h-4.712v4.928h-1.552v-11.464h7.063v1.264H959.03z"/>
				<path fill="#00384B" d="M974.398,525.002l-0.009,1.264h-7.063v-11.464h7.063v1.264h-5.512v3.809h4.464v1.216h-4.464v3.912
					H974.398z"/>
				<path fill="#00384B" d="M984.438,525.002l-0.009,1.264h-7.063v-11.464h7.063v1.264h-5.512v3.809h4.464v1.216h-4.464v3.912
					H984.438z"/>
				<path fill="#00384B" d="M997.342,520.538c0,0.858-0.136,1.64-0.407,2.344c-0.272,0.704-0.656,1.307-1.152,1.808
					c-0.496,0.502-1.092,0.89-1.788,1.164s-1.466,0.412-2.308,0.412h-4.28v-11.464h4.28c0.842,0,1.611,0.138,2.308,0.412
					s1.292,0.664,1.788,1.168s0.88,1.107,1.152,1.812C997.206,518.897,997.342,519.679,997.342,520.538z M995.75,520.538
					c0-0.704-0.096-1.334-0.288-1.889c-0.191-0.555-0.464-1.023-0.815-1.408c-0.353-0.384-0.779-0.677-1.28-0.88
					c-0.501-0.202-1.062-0.304-1.68-0.304h-2.729v8.952h2.729c0.618,0,1.179-0.102,1.68-0.304c0.501-0.203,0.928-0.495,1.28-0.876
					c0.352-0.382,0.624-0.85,0.815-1.404C995.654,521.871,995.75,521.241,995.75,520.538z"/>
				<path fill="#00384B" d="M1004.03,514.802c0.704,0,1.311,0.069,1.82,0.208c0.509,0.139,0.928,0.336,1.256,0.592
					s0.569,0.569,0.724,0.94c0.155,0.37,0.232,0.788,0.232,1.252c0,0.282-0.044,0.553-0.132,0.812s-0.221,0.5-0.396,0.725
					c-0.176,0.224-0.398,0.425-0.668,0.604s-0.585,0.324-0.948,0.436c0.843,0.16,1.477,0.461,1.9,0.9
					c0.424,0.44,0.636,1.018,0.636,1.732c0,0.485-0.089,0.928-0.268,1.328c-0.179,0.399-0.44,0.743-0.784,1.031
					s-0.767,0.511-1.268,0.668c-0.502,0.157-1.072,0.236-1.712,0.236h-4.049v-11.464H1004.03z M1001.918,516.025v3.912h2.049
					c0.437,0,0.816-0.048,1.14-0.144c0.322-0.097,0.589-0.229,0.8-0.4s0.367-0.377,0.468-0.62c0.102-0.242,0.152-0.508,0.152-0.796
					c0-0.677-0.203-1.172-0.608-1.484c-0.405-0.312-1.034-0.468-1.888-0.468H1001.918z M1004.398,525.033
					c0.442,0,0.824-0.05,1.144-0.151c0.32-0.102,0.583-0.244,0.788-0.428c0.206-0.185,0.356-0.403,0.452-0.656
					c0.096-0.254,0.145-0.532,0.145-0.836c0-0.593-0.211-1.061-0.633-1.404c-0.421-0.344-1.053-0.516-1.896-0.516h-2.48v3.991
					H1004.398z"/>
				<path fill="#00384B" d="M1020.679,526.266h-1.2c-0.139,0-0.251-0.034-0.336-0.104c-0.086-0.069-0.149-0.158-0.192-0.265
					l-1.072-2.768h-5.144l-1.072,2.768c-0.032,0.096-0.093,0.182-0.184,0.256c-0.091,0.075-0.203,0.112-0.336,0.112h-1.2
					l4.584-11.464h1.568L1020.679,526.266z M1017.446,522.01l-1.8-4.664c-0.054-0.139-0.109-0.3-0.168-0.484
					c-0.059-0.184-0.115-0.38-0.168-0.588c-0.112,0.433-0.227,0.792-0.345,1.08l-1.8,4.656H1017.446z"/>
				<path fill="#00384B" d="M1030.742,523.897c0.085,0,0.16,0.035,0.224,0.104l0.616,0.664c-0.469,0.544-1.038,0.968-1.708,1.271
					c-0.669,0.304-1.479,0.456-2.428,0.456c-0.821,0-1.568-0.143-2.24-0.428s-1.245-0.686-1.72-1.2s-0.843-1.132-1.104-1.852
					c-0.261-0.721-0.392-1.513-0.392-2.376c0-0.864,0.136-1.656,0.408-2.376c0.271-0.721,0.654-1.339,1.147-1.856
					s1.084-0.919,1.772-1.204c0.688-0.285,1.448-0.428,2.28-0.428c0.815,0,1.535,0.131,2.159,0.392
					c0.624,0.262,1.174,0.616,1.648,1.064l-0.512,0.712c-0.032,0.053-0.073,0.098-0.124,0.132c-0.051,0.035-0.119,0.052-0.204,0.052
					c-0.096,0-0.214-0.052-0.353-0.156c-0.139-0.104-0.319-0.22-0.544-0.348c-0.224-0.128-0.504-0.244-0.84-0.348
					c-0.336-0.104-0.749-0.156-1.24-0.156c-0.592,0-1.133,0.103-1.624,0.308c-0.49,0.206-0.913,0.503-1.268,0.893
					s-0.631,0.864-0.828,1.424s-0.296,1.192-0.296,1.896c0,0.714,0.103,1.352,0.308,1.911c0.206,0.561,0.485,1.034,0.841,1.42
					c0.354,0.388,0.772,0.682,1.256,0.885c0.482,0.202,1.004,0.304,1.563,0.304c0.342,0,0.649-0.02,0.924-0.06
					c0.275-0.04,0.528-0.104,0.761-0.188c0.231-0.085,0.447-0.193,0.647-0.324c0.2-0.13,0.398-0.286,0.597-0.468
					C1030.561,523.938,1030.651,523.897,1030.742,523.897z"/>
				<path fill="#00384B" d="M1035.726,519.825h0.584c0.203,0,0.365-0.024,0.488-0.075s0.234-0.138,0.336-0.261l3.816-4.319
					c0.106-0.139,0.219-0.235,0.336-0.288c0.117-0.054,0.261-0.08,0.432-0.08h1.312l-4.368,4.936
					c-0.106,0.128-0.209,0.233-0.308,0.316c-0.1,0.083-0.204,0.15-0.316,0.204c0.144,0.048,0.274,0.118,0.392,0.212
					s0.232,0.215,0.345,0.364l4.56,5.432h-1.344c-0.102,0-0.188-0.007-0.26-0.02c-0.072-0.014-0.135-0.035-0.188-0.064
					s-0.1-0.064-0.14-0.104c-0.04-0.039-0.079-0.086-0.116-0.14l-3.952-4.552c-0.106-0.134-0.222-0.229-0.344-0.284
					c-0.123-0.056-0.31-0.084-0.561-0.084h-0.704v5.248h-1.544v-11.464h1.544V519.825z"/>
			</g>
		</g>
		<g>
			<g>
				<path fill="#00384B" d="M906.272,656.661h-1.2c-0.139,0-0.251-0.034-0.336-0.104c-0.086-0.069-0.149-0.158-0.192-0.265
					l-1.072-2.768h-5.144l-1.072,2.768c-0.032,0.096-0.093,0.182-0.184,0.256c-0.091,0.075-0.203,0.112-0.336,0.112h-1.2
					l4.584-11.464h1.568L906.272,656.661z M903.04,652.405l-1.8-4.664c-0.054-0.139-0.109-0.3-0.168-0.484
					c-0.059-0.184-0.115-0.38-0.168-0.588c-0.112,0.433-0.227,0.792-0.345,1.08l-1.8,4.656H903.04z"/>
				<path fill="#00384B" d="M912.744,655.429c0.475,0,0.898-0.079,1.271-0.239s0.689-0.385,0.948-0.672
					c0.259-0.288,0.456-0.633,0.592-1.032c0.136-0.4,0.204-0.84,0.204-1.32v-6.968h1.544v6.968c0,0.661-0.105,1.274-0.316,1.84
					c-0.21,0.565-0.512,1.055-0.903,1.468c-0.393,0.414-0.871,0.738-1.437,0.973s-1.2,0.352-1.903,0.352
					c-0.704,0-1.339-0.117-1.904-0.352s-1.046-0.559-1.44-0.973c-0.395-0.413-0.697-0.902-0.907-1.468
					c-0.211-0.565-0.316-1.179-0.316-1.84v-6.968h1.544v6.96c0,0.479,0.068,0.92,0.204,1.32c0.136,0.399,0.333,0.743,0.592,1.031
					s0.576,0.514,0.952,0.677C911.844,655.348,912.269,655.429,912.744,655.429z"/>
				<path fill="#00384B" d="M928.64,646.501h-3.712v10.16h-1.544v-10.16h-3.72v-1.304h8.976V646.501z"/>
				<path fill="#00384B" d="M941.216,650.934c0,0.858-0.136,1.646-0.408,2.363c-0.271,0.718-0.655,1.335-1.151,1.853
					s-1.093,0.919-1.788,1.204c-0.696,0.285-1.466,0.428-2.309,0.428s-1.61-0.143-2.304-0.428s-1.288-0.687-1.784-1.204
					s-0.88-1.135-1.151-1.853c-0.272-0.717-0.408-1.505-0.408-2.363c0-0.859,0.136-1.647,0.408-2.364
					c0.271-0.718,0.655-1.336,1.151-1.856c0.496-0.52,1.091-0.924,1.784-1.212s1.461-0.432,2.304-0.432s1.612,0.144,2.309,0.432
					c0.695,0.288,1.292,0.692,1.788,1.212c0.496,0.521,0.88,1.139,1.151,1.856C941.08,649.286,941.216,650.074,941.216,650.934z
					 M939.624,650.934c0-0.704-0.096-1.337-0.288-1.896s-0.464-1.033-0.816-1.42c-0.352-0.387-0.778-0.684-1.279-0.892
					c-0.502-0.208-1.062-0.312-1.681-0.312c-0.613,0-1.17,0.104-1.672,0.312c-0.501,0.208-0.929,0.505-1.284,0.892
					c-0.354,0.387-0.628,0.86-0.819,1.42c-0.192,0.56-0.288,1.192-0.288,1.896c0,0.703,0.096,1.334,0.288,1.892
					c0.191,0.558,0.465,1.029,0.819,1.416c0.355,0.387,0.783,0.683,1.284,0.888c0.502,0.206,1.059,0.309,1.672,0.309
					c0.619,0,1.179-0.103,1.681-0.309c0.501-0.205,0.928-0.501,1.279-0.888c0.353-0.387,0.624-0.858,0.816-1.416
					S939.624,651.637,939.624,650.934z"/>
				<path fill="#00384B" d="M953.52,645.197v11.464h-0.775c-0.123,0-0.226-0.021-0.309-0.064c-0.082-0.042-0.164-0.114-0.244-0.216
					l-6.632-8.64c0.011,0.133,0.019,0.264,0.024,0.392c0.005,0.128,0.008,0.248,0.008,0.36v8.168h-1.36v-11.464h0.801
					c0.068,0,0.128,0.004,0.176,0.012s0.091,0.021,0.128,0.04s0.074,0.046,0.112,0.08c0.037,0.035,0.077,0.079,0.119,0.132
					l6.633,8.632c-0.011-0.139-0.021-0.272-0.028-0.403s-0.012-0.255-0.012-0.372v-8.12H953.52z"/>
				<path fill="#00384B" d="M967.84,650.934c0,0.858-0.137,1.646-0.408,2.363c-0.272,0.718-0.656,1.335-1.152,1.853
					s-1.092,0.919-1.788,1.204c-0.695,0.285-1.465,0.428-2.308,0.428s-1.611-0.143-2.304-0.428
					c-0.693-0.285-1.288-0.687-1.784-1.204s-0.88-1.135-1.152-1.853c-0.271-0.717-0.408-1.505-0.408-2.363
					c0-0.859,0.137-1.647,0.408-2.364c0.272-0.718,0.656-1.336,1.152-1.856c0.496-0.52,1.091-0.924,1.784-1.212
					c0.692-0.288,1.461-0.432,2.304-0.432s1.612,0.144,2.308,0.432c0.696,0.288,1.292,0.692,1.788,1.212
					c0.496,0.521,0.88,1.139,1.152,1.856C967.703,649.286,967.84,650.074,967.84,650.934z M966.247,650.934
					c0-0.704-0.096-1.337-0.288-1.896c-0.191-0.56-0.464-1.033-0.815-1.42c-0.353-0.387-0.779-0.684-1.28-0.892
					s-1.062-0.312-1.68-0.312c-0.613,0-1.171,0.104-1.672,0.312c-0.502,0.208-0.93,0.505-1.284,0.892s-0.628,0.86-0.82,1.42
					c-0.191,0.56-0.288,1.192-0.288,1.896c0,0.703,0.097,1.334,0.288,1.892c0.192,0.558,0.466,1.029,0.82,1.416
					s0.782,0.683,1.284,0.888c0.501,0.206,1.059,0.309,1.672,0.309c0.618,0,1.179-0.103,1.68-0.309
					c0.501-0.205,0.928-0.501,1.28-0.888c0.352-0.387,0.624-0.858,0.815-1.416C966.151,652.268,966.247,651.637,966.247,650.934z"/>
				<path fill="#00384B" d="M982.783,645.197v11.464h-1.359v-8.424c0-0.112,0.004-0.232,0.012-0.36s0.017-0.259,0.027-0.392
					l-3.936,7.168c-0.123,0.24-0.31,0.359-0.56,0.359h-0.225c-0.251,0-0.438-0.119-0.56-0.359l-4.017-7.2
					c0.032,0.283,0.049,0.544,0.049,0.784v8.424h-1.36v-11.464h1.144c0.139,0,0.245,0.014,0.32,0.04
					c0.074,0.026,0.146,0.102,0.216,0.224l3.96,7.057c0.064,0.128,0.127,0.261,0.188,0.399c0.061,0.139,0.118,0.28,0.172,0.424
					c0.053-0.144,0.109-0.286,0.168-0.428s0.122-0.276,0.192-0.404l3.888-7.048c0.063-0.122,0.135-0.197,0.212-0.224
					s0.186-0.04,0.324-0.04H982.783z"/>
				<path fill="#00384B" d="M990.815,652.093v4.568h-1.553v-4.568l-4.199-6.896h1.359c0.139,0,0.248,0.033,0.328,0.1
					c0.08,0.067,0.149,0.153,0.208,0.261l2.624,4.455c0.096,0.188,0.185,0.361,0.264,0.524c0.08,0.163,0.149,0.327,0.208,0.492
					c0.059-0.165,0.126-0.329,0.2-0.492c0.075-0.163,0.157-0.337,0.248-0.524l2.616-4.455c0.048-0.091,0.114-0.174,0.2-0.248
					c0.085-0.075,0.194-0.112,0.328-0.112h1.367L990.815,652.093z"/>
			</g>
		</g>
		<g>
			<g>
				<path fill="#00384B" d="M782.845,728.776c-0.048,0.08-0.1,0.14-0.156,0.18c-0.056,0.04-0.124,0.061-0.204,0.061
					c-0.09,0-0.197-0.046-0.319-0.137c-0.123-0.09-0.276-0.19-0.46-0.3c-0.185-0.109-0.405-0.209-0.664-0.3s-0.572-0.136-0.94-0.136
					c-0.347,0-0.651,0.047-0.916,0.14c-0.264,0.094-0.485,0.22-0.664,0.38s-0.313,0.349-0.403,0.564
					c-0.091,0.216-0.137,0.449-0.137,0.7c0,0.319,0.079,0.585,0.236,0.796c0.157,0.21,0.365,0.391,0.624,0.54
					s0.552,0.278,0.88,0.388s0.664,0.223,1.008,0.34c0.345,0.117,0.681,0.249,1.009,0.396c0.327,0.146,0.621,0.332,0.88,0.556
					c0.258,0.224,0.466,0.499,0.624,0.824c0.157,0.325,0.235,0.725,0.235,1.199c0,0.502-0.085,0.973-0.256,1.412
					c-0.171,0.44-0.42,0.823-0.748,1.148s-0.73,0.581-1.208,0.768s-1.02,0.28-1.628,0.28c-0.747,0-1.424-0.135-2.032-0.404
					c-0.607-0.269-1.128-0.633-1.56-1.092l0.448-0.735c0.042-0.06,0.095-0.108,0.155-0.148c0.062-0.04,0.13-0.06,0.204-0.06
					c0.069,0,0.148,0.027,0.236,0.084c0.088,0.056,0.188,0.126,0.3,0.212c0.112,0.085,0.24,0.179,0.384,0.279
					c0.145,0.102,0.309,0.195,0.492,0.28c0.185,0.085,0.394,0.156,0.628,0.212c0.235,0.056,0.499,0.084,0.792,0.084
					c0.368,0,0.696-0.051,0.984-0.151c0.288-0.102,0.532-0.244,0.731-0.429c0.2-0.184,0.354-0.403,0.461-0.66
					c0.106-0.256,0.159-0.541,0.159-0.855c0-0.347-0.078-0.631-0.235-0.853c-0.157-0.221-0.364-0.406-0.62-0.556
					s-0.55-0.276-0.88-0.38c-0.331-0.104-0.667-0.211-1.009-0.32c-0.341-0.109-0.677-0.235-1.008-0.38
					c-0.33-0.144-0.624-0.33-0.88-0.56s-0.463-0.517-0.62-0.86s-0.235-0.77-0.235-1.276c0-0.405,0.078-0.797,0.235-1.176
					c0.157-0.378,0.387-0.715,0.688-1.008c0.301-0.293,0.672-0.528,1.111-0.704c0.44-0.176,0.945-0.264,1.517-0.264
					c0.64,0,1.223,0.102,1.748,0.304c0.525,0.203,0.988,0.496,1.388,0.88L782.845,728.776z"/>
				<path fill="#00384B" d="M797.053,732.721c0,0.858-0.136,1.646-0.408,2.363c-0.271,0.718-0.655,1.335-1.151,1.853
					s-1.093,0.919-1.788,1.204c-0.696,0.285-1.466,0.428-2.309,0.428s-1.61-0.143-2.304-0.428s-1.288-0.687-1.784-1.204
					s-0.88-1.135-1.151-1.853c-0.272-0.717-0.408-1.505-0.408-2.363c0-0.859,0.136-1.647,0.408-2.364
					c0.271-0.718,0.655-1.336,1.151-1.856c0.496-0.52,1.091-0.924,1.784-1.212s1.461-0.432,2.304-0.432s1.612,0.144,2.309,0.432
					c0.695,0.288,1.292,0.692,1.788,1.212c0.496,0.521,0.88,1.139,1.151,1.856C796.917,731.073,797.053,731.861,797.053,732.721z
					 M795.461,732.721c0-0.704-0.096-1.337-0.288-1.896s-0.464-1.033-0.816-1.42c-0.352-0.387-0.778-0.684-1.279-0.892
					c-0.502-0.208-1.062-0.312-1.681-0.312c-0.613,0-1.17,0.104-1.672,0.312c-0.501,0.208-0.929,0.505-1.284,0.892
					c-0.354,0.387-0.628,0.86-0.819,1.42c-0.192,0.56-0.288,1.192-0.288,1.896c0,0.703,0.096,1.334,0.288,1.892
					c0.191,0.558,0.465,1.029,0.819,1.416c0.355,0.387,0.783,0.683,1.284,0.888c0.502,0.206,1.059,0.309,1.672,0.309
					c0.619,0,1.179-0.103,1.681-0.309c0.501-0.205,0.928-0.501,1.279-0.888c0.353-0.387,0.624-0.858,0.816-1.416
					S795.461,733.424,795.461,732.721z"/>
				<path fill="#00384B" d="M808.117,736.08c0.085,0,0.159,0.035,0.224,0.104l0.616,0.664c-0.47,0.544-1.039,0.968-1.708,1.271
					c-0.67,0.304-1.479,0.456-2.429,0.456c-0.821,0-1.567-0.143-2.239-0.428s-1.246-0.686-1.721-1.2s-0.843-1.132-1.104-1.852
					c-0.262-0.721-0.393-1.513-0.393-2.376c0-0.864,0.137-1.656,0.408-2.376c0.272-0.721,0.655-1.339,1.148-1.856
					s1.084-0.919,1.771-1.204c0.688-0.285,1.448-0.428,2.28-0.428c0.816,0,1.536,0.131,2.16,0.392
					c0.624,0.262,1.173,0.616,1.647,1.064l-0.512,0.712c-0.032,0.053-0.073,0.098-0.124,0.132c-0.051,0.035-0.118,0.052-0.204,0.052
					c-0.096,0-0.213-0.052-0.352-0.156c-0.139-0.104-0.32-0.22-0.544-0.348c-0.225-0.128-0.504-0.244-0.84-0.348
					c-0.336-0.104-0.75-0.156-1.24-0.156c-0.592,0-1.134,0.103-1.624,0.308c-0.491,0.206-0.913,0.503-1.269,0.893
					c-0.354,0.39-0.63,0.864-0.827,1.424c-0.198,0.56-0.296,1.192-0.296,1.896c0,0.714,0.103,1.352,0.308,1.911
					c0.205,0.561,0.485,1.034,0.84,1.42c0.354,0.388,0.773,0.682,1.256,0.885c0.482,0.202,1.004,0.304,1.564,0.304
					c0.341,0,0.649-0.02,0.924-0.06s0.528-0.104,0.76-0.188c0.232-0.085,0.448-0.193,0.648-0.324c0.2-0.13,0.398-0.286,0.596-0.468
					C807.936,736.12,808.026,736.08,808.117,736.08z"/>
				<path fill="#00384B" d="M813.108,738.448h-1.552v-11.464h1.552V738.448z"/>
				<path fill="#00384B" d="M826.157,738.448h-1.2c-0.139,0-0.251-0.034-0.336-0.104c-0.086-0.069-0.149-0.158-0.192-0.265
					l-1.072-2.768h-5.144l-1.072,2.768c-0.032,0.096-0.093,0.182-0.184,0.256c-0.091,0.075-0.203,0.112-0.336,0.112h-1.2
					l4.584-11.464h1.568L826.157,738.448z M822.925,734.192l-1.8-4.664c-0.054-0.139-0.109-0.3-0.168-0.484
					c-0.059-0.184-0.115-0.38-0.168-0.588c-0.112,0.433-0.227,0.792-0.345,1.08l-1.8,4.656H822.925z"/>
				<path fill="#00384B" d="M834.972,737.145v1.304h-6.504v-11.464h1.544v10.16H834.972z"/>
				<path fill="#00384B" d="M850.372,738.448h-1.376c-0.282,0-0.49-0.109-0.624-0.328l-2.976-4.096
					c-0.091-0.128-0.188-0.22-0.292-0.276c-0.104-0.056-0.266-0.084-0.484-0.084h-1.176v4.784H841.9v-11.464h3.24
					c0.725,0,1.352,0.073,1.88,0.22c0.527,0.146,0.964,0.359,1.308,0.636c0.344,0.277,0.599,0.612,0.764,1.005
					c0.166,0.392,0.248,0.83,0.248,1.315c0,0.405-0.063,0.784-0.191,1.136c-0.128,0.353-0.313,0.668-0.557,0.948
					c-0.242,0.28-0.538,0.519-0.888,0.716s-0.745,0.347-1.188,0.448c0.197,0.112,0.368,0.274,0.512,0.488L850.372,738.448z
					 M845.076,732.536c0.448,0,0.844-0.055,1.188-0.164c0.344-0.109,0.632-0.264,0.863-0.464c0.232-0.2,0.407-0.438,0.524-0.716
					s0.176-0.584,0.176-0.92c0-0.683-0.224-1.197-0.672-1.544s-1.12-0.521-2.016-0.521h-1.696v4.328H845.076z"/>
				<path fill="#00384B" d="M859.796,737.185l-0.008,1.264h-7.064v-11.464h7.064v1.264h-5.512v3.809h4.464v1.216h-4.464v3.912
					H859.796z"/>
				<path fill="#00384B" d="M869.268,737.145v1.304h-6.504v-11.464h1.544v10.16H869.268z"/>
				<path fill="#00384B" d="M881.1,738.448h-1.2c-0.139,0-0.251-0.034-0.336-0.104s-0.149-0.158-0.191-0.265l-1.072-2.768h-5.145
					l-1.071,2.768c-0.032,0.096-0.094,0.182-0.185,0.256c-0.091,0.075-0.202,0.112-0.336,0.112h-1.2l4.584-11.464h1.568
					L881.1,738.448z M877.867,734.192l-1.8-4.664c-0.053-0.139-0.109-0.3-0.168-0.484c-0.059-0.184-0.114-0.38-0.168-0.588
					c-0.111,0.433-0.227,0.792-0.344,1.08l-1.8,4.656H877.867z"/>
				<path fill="#00384B" d="M890.035,728.288h-3.712v10.16h-1.544v-10.16h-3.72v-1.304h8.976V728.288z"/>
				<path fill="#00384B" d="M894.084,738.448h-1.553v-11.464h1.553V738.448z"/>
				<path fill="#00384B" d="M908.404,732.721c0,0.858-0.137,1.646-0.408,2.363c-0.272,0.718-0.656,1.335-1.152,1.853
					s-1.092,0.919-1.788,1.204c-0.695,0.285-1.465,0.428-2.308,0.428s-1.611-0.143-2.304-0.428
					c-0.693-0.285-1.288-0.687-1.784-1.204s-0.88-1.135-1.152-1.853c-0.271-0.717-0.408-1.505-0.408-2.363
					c0-0.859,0.137-1.647,0.408-2.364c0.272-0.718,0.656-1.336,1.152-1.856c0.496-0.52,1.091-0.924,1.784-1.212
					c0.692-0.288,1.461-0.432,2.304-0.432s1.612,0.144,2.308,0.432c0.696,0.288,1.292,0.692,1.788,1.212
					c0.496,0.521,0.88,1.139,1.152,1.856C908.268,731.073,908.404,731.861,908.404,732.721z M906.812,732.721
					c0-0.704-0.096-1.337-0.288-1.896c-0.191-0.56-0.464-1.033-0.815-1.42c-0.353-0.387-0.779-0.684-1.28-0.892
					s-1.062-0.312-1.68-0.312c-0.613,0-1.171,0.104-1.672,0.312c-0.502,0.208-0.93,0.505-1.284,0.892s-0.628,0.86-0.82,1.42
					c-0.191,0.56-0.288,1.192-0.288,1.896c0,0.703,0.097,1.334,0.288,1.892c0.192,0.558,0.466,1.029,0.82,1.416
					s0.782,0.683,1.284,0.888c0.501,0.206,1.059,0.309,1.672,0.309c0.618,0,1.179-0.103,1.68-0.309
					c0.501-0.205,0.928-0.501,1.28-0.888c0.352-0.387,0.624-0.858,0.815-1.416C906.716,734.055,906.812,733.424,906.812,732.721z"/>
				<path fill="#00384B" d="M920.708,726.984v11.464h-0.776c-0.123,0-0.226-0.021-0.308-0.064c-0.083-0.042-0.164-0.114-0.244-0.216
					l-6.632-8.64c0.011,0.133,0.019,0.264,0.023,0.392c0.006,0.128,0.009,0.248,0.009,0.36v8.168h-1.36v-11.464h0.8
					c0.069,0,0.128,0.004,0.176,0.012s0.091,0.021,0.128,0.04c0.038,0.019,0.075,0.046,0.112,0.08
					c0.037,0.035,0.077,0.079,0.12,0.132l6.632,8.632c-0.011-0.139-0.02-0.272-0.028-0.403c-0.008-0.131-0.012-0.255-0.012-0.372
					v-8.12H920.708z"/>
				<path fill="#00384B" d="M930.3,728.776c-0.049,0.08-0.101,0.14-0.156,0.18s-0.124,0.061-0.204,0.061
					c-0.091,0-0.197-0.046-0.32-0.137c-0.122-0.09-0.275-0.19-0.46-0.3c-0.184-0.109-0.405-0.209-0.664-0.3
					s-0.571-0.136-0.939-0.136c-0.347,0-0.652,0.047-0.916,0.14c-0.265,0.094-0.485,0.22-0.664,0.38s-0.313,0.349-0.404,0.564
					s-0.136,0.449-0.136,0.7c0,0.319,0.078,0.585,0.236,0.796c0.157,0.21,0.365,0.391,0.624,0.54
					c0.258,0.149,0.552,0.278,0.88,0.388s0.664,0.223,1.008,0.34s0.68,0.249,1.008,0.396c0.328,0.146,0.621,0.332,0.88,0.556
					s0.467,0.499,0.624,0.824s0.236,0.725,0.236,1.199c0,0.502-0.086,0.973-0.256,1.412c-0.171,0.44-0.42,0.823-0.748,1.148
					s-0.731,0.581-1.208,0.768c-0.478,0.187-1.021,0.28-1.628,0.28c-0.747,0-1.425-0.135-2.032-0.404
					c-0.608-0.269-1.128-0.633-1.561-1.092l0.448-0.735c0.043-0.06,0.095-0.108,0.156-0.148s0.129-0.06,0.204-0.06
					c0.069,0,0.147,0.027,0.235,0.084c0.089,0.056,0.188,0.126,0.301,0.212c0.111,0.085,0.239,0.179,0.384,0.279
					c0.144,0.102,0.308,0.195,0.492,0.28c0.184,0.085,0.393,0.156,0.628,0.212c0.234,0.056,0.498,0.084,0.792,0.084
					c0.368,0,0.695-0.051,0.983-0.151c0.288-0.102,0.532-0.244,0.732-0.429c0.2-0.184,0.354-0.403,0.46-0.66
					c0.106-0.256,0.16-0.541,0.16-0.855c0-0.347-0.079-0.631-0.236-0.853c-0.157-0.221-0.364-0.406-0.62-0.556
					s-0.549-0.276-0.88-0.38c-0.331-0.104-0.667-0.211-1.008-0.32c-0.342-0.109-0.678-0.235-1.008-0.38
					c-0.331-0.144-0.624-0.33-0.88-0.56s-0.463-0.517-0.62-0.86s-0.236-0.77-0.236-1.276c0-0.405,0.079-0.797,0.236-1.176
					c0.157-0.378,0.387-0.715,0.688-1.008c0.302-0.293,0.672-0.528,1.112-0.704s0.945-0.264,1.516-0.264
					c0.641,0,1.223,0.102,1.748,0.304c0.525,0.203,0.988,0.496,1.389,0.88L930.3,728.776z"/>
				<path fill="#00384B" d="M943.203,726.984v11.464h-1.552v-5.216h-6.184v5.216h-1.553v-11.464h1.553v5.112h6.184v-5.112H943.203z"
					/>
				<path fill="#00384B" d="M948.483,738.448h-1.553v-11.464h1.553V738.448z"/>
				<path fill="#00384B" d="M955.596,726.984c0.725,0,1.355,0.084,1.892,0.252s0.98,0.406,1.332,0.716s0.614,0.683,0.788,1.12
					c0.173,0.438,0.26,0.926,0.26,1.464c0,0.533-0.093,1.021-0.28,1.464c-0.187,0.443-0.46,0.824-0.819,1.145
					c-0.36,0.319-0.806,0.569-1.336,0.748c-0.531,0.179-1.144,0.268-1.836,0.268h-1.841v4.288h-1.544v-11.464H955.596z
					 M955.596,732.929c0.442,0,0.833-0.06,1.172-0.177c0.338-0.117,0.624-0.281,0.855-0.492c0.232-0.21,0.407-0.462,0.524-0.756
					c0.117-0.293,0.176-0.615,0.176-0.968c0-0.73-0.226-1.301-0.676-1.712c-0.451-0.41-1.135-0.616-2.052-0.616h-1.841v4.721
					H955.596z"/>
				<path fill="#00384B" d="M968.483,728.776c-0.049,0.08-0.101,0.14-0.156,0.18s-0.124,0.061-0.204,0.061
					c-0.091,0-0.197-0.046-0.32-0.137c-0.122-0.09-0.275-0.19-0.46-0.3c-0.184-0.109-0.405-0.209-0.664-0.3
					s-0.571-0.136-0.939-0.136c-0.347,0-0.652,0.047-0.916,0.14c-0.265,0.094-0.485,0.22-0.664,0.38s-0.313,0.349-0.404,0.564
					s-0.136,0.449-0.136,0.7c0,0.319,0.078,0.585,0.236,0.796c0.157,0.21,0.365,0.391,0.624,0.54
					c0.258,0.149,0.552,0.278,0.88,0.388s0.664,0.223,1.008,0.34s0.68,0.249,1.008,0.396c0.328,0.146,0.621,0.332,0.88,0.556
					s0.467,0.499,0.624,0.824s0.236,0.725,0.236,1.199c0,0.502-0.086,0.973-0.256,1.412c-0.171,0.44-0.42,0.823-0.748,1.148
					s-0.731,0.581-1.208,0.768c-0.478,0.187-1.021,0.28-1.628,0.28c-0.747,0-1.425-0.135-2.032-0.404
					c-0.608-0.269-1.128-0.633-1.561-1.092l0.448-0.735c0.043-0.06,0.095-0.108,0.156-0.148s0.129-0.06,0.204-0.06
					c0.069,0,0.147,0.027,0.235,0.084c0.089,0.056,0.188,0.126,0.301,0.212c0.111,0.085,0.239,0.179,0.384,0.279
					c0.144,0.102,0.308,0.195,0.492,0.28c0.184,0.085,0.393,0.156,0.628,0.212c0.234,0.056,0.498,0.084,0.792,0.084
					c0.368,0,0.695-0.051,0.983-0.151c0.288-0.102,0.532-0.244,0.732-0.429c0.2-0.184,0.354-0.403,0.46-0.66
					c0.106-0.256,0.16-0.541,0.16-0.855c0-0.347-0.079-0.631-0.236-0.853c-0.157-0.221-0.364-0.406-0.62-0.556
					s-0.549-0.276-0.88-0.38c-0.331-0.104-0.667-0.211-1.008-0.32c-0.342-0.109-0.678-0.235-1.008-0.38
					c-0.331-0.144-0.624-0.33-0.88-0.56s-0.463-0.517-0.62-0.86s-0.236-0.77-0.236-1.276c0-0.405,0.079-0.797,0.236-1.176
					c0.157-0.378,0.387-0.715,0.688-1.008c0.302-0.293,0.672-0.528,1.112-0.704s0.945-0.264,1.516-0.264
					c0.641,0,1.223,0.102,1.748,0.304c0.525,0.203,0.988,0.496,1.389,0.88L968.483,728.776z"/>
			</g>
		</g>
		<g>
			<g>
				<path fill="#00384B" d="M539.739,738.448h-1.376c-0.283,0-0.491-0.109-0.624-0.328l-2.976-4.096
					c-0.091-0.128-0.188-0.22-0.292-0.276c-0.104-0.056-0.265-0.084-0.484-0.084h-1.176v4.784h-1.544v-11.464h3.24
					c0.725,0,1.352,0.073,1.88,0.22s0.964,0.359,1.308,0.636c0.344,0.277,0.599,0.612,0.764,1.005
					c0.166,0.392,0.248,0.83,0.248,1.315c0,0.405-0.064,0.784-0.192,1.136c-0.128,0.353-0.313,0.668-0.556,0.948
					s-0.539,0.519-0.888,0.716c-0.35,0.197-0.746,0.347-1.188,0.448c0.197,0.112,0.368,0.274,0.512,0.488L539.739,738.448z
					 M534.443,732.536c0.448,0,0.844-0.055,1.188-0.164c0.344-0.109,0.632-0.264,0.864-0.464s0.407-0.438,0.524-0.716
					s0.176-0.584,0.176-0.92c0-0.683-0.224-1.197-0.672-1.544c-0.448-0.347-1.12-0.521-2.016-0.521h-1.696v4.328H534.443z"/>
				<path fill="#00384B" d="M551.411,738.448h-1.2c-0.139,0-0.251-0.034-0.336-0.104c-0.085-0.069-0.149-0.158-0.192-0.265
					l-1.072-2.768h-5.144l-1.072,2.768c-0.032,0.096-0.093,0.182-0.184,0.256c-0.091,0.075-0.203,0.112-0.336,0.112h-1.2
					l4.584-11.464h1.568L551.411,738.448z M548.179,734.192l-1.8-4.664c-0.053-0.139-0.109-0.3-0.168-0.484
					c-0.059-0.184-0.115-0.38-0.168-0.588c-0.112,0.433-0.227,0.792-0.344,1.08l-1.8,4.656H548.179z"/>
				<path fill="#00384B" d="M560.347,728.288h-3.712v10.16h-1.544v-10.16h-3.72v-1.304h8.976V728.288z"/>
				<path fill="#00384B" d="M564.395,738.448h-1.552v-11.464h1.552V738.448z"/>
				<path fill="#00384B" d="M578.715,732.721c0,0.858-0.136,1.646-0.408,2.363c-0.272,0.718-0.656,1.335-1.152,1.853
					s-1.092,0.919-1.788,1.204s-1.465,0.428-2.308,0.428s-1.611-0.143-2.304-0.428c-0.693-0.285-1.288-0.687-1.784-1.204
					s-0.88-1.135-1.152-1.853c-0.272-0.717-0.408-1.505-0.408-2.363c0-0.859,0.136-1.647,0.408-2.364
					c0.272-0.718,0.656-1.336,1.152-1.856c0.496-0.52,1.091-0.924,1.784-1.212c0.693-0.288,1.461-0.432,2.304-0.432
					s1.612,0.144,2.308,0.432s1.292,0.692,1.788,1.212c0.496,0.521,0.88,1.139,1.152,1.856
					C578.579,731.073,578.715,731.861,578.715,732.721z M577.123,732.721c0-0.704-0.096-1.337-0.288-1.896
					c-0.192-0.56-0.464-1.033-0.816-1.42s-0.779-0.684-1.28-0.892c-0.501-0.208-1.062-0.312-1.68-0.312
					c-0.613,0-1.17,0.104-1.672,0.312s-0.929,0.505-1.284,0.892c-0.354,0.387-0.628,0.86-0.82,1.42s-0.288,1.192-0.288,1.896
					c0,0.703,0.096,1.334,0.288,1.892s0.465,1.029,0.82,1.416c0.355,0.387,0.783,0.683,1.284,0.888
					c0.501,0.206,1.059,0.309,1.672,0.309c0.619,0,1.179-0.103,1.68-0.309c0.501-0.205,0.928-0.501,1.28-0.888
					s0.624-0.858,0.816-1.416C577.027,734.055,577.123,733.424,577.123,732.721z"/>
				<path fill="#00384B" d="M591.019,726.984v11.464h-0.776c-0.123,0-0.226-0.021-0.308-0.064c-0.083-0.042-0.164-0.114-0.244-0.216
					l-6.632-8.64c0.011,0.133,0.019,0.264,0.024,0.392s0.008,0.248,0.008,0.36v8.168h-1.36v-11.464h0.8
					c0.069,0,0.128,0.004,0.176,0.012s0.091,0.021,0.128,0.04c0.038,0.019,0.075,0.046,0.112,0.08
					c0.037,0.035,0.077,0.079,0.12,0.132l6.632,8.632c-0.011-0.139-0.02-0.272-0.028-0.403c-0.008-0.131-0.012-0.255-0.012-0.372
					v-8.12H591.019z"/>
				<path fill="#00384B" d="M604.067,738.448h-1.2c-0.139,0-0.251-0.034-0.336-0.104c-0.085-0.069-0.149-0.158-0.192-0.265
					l-1.072-2.768h-5.144l-1.072,2.768c-0.032,0.096-0.093,0.182-0.184,0.256c-0.091,0.075-0.203,0.112-0.336,0.112h-1.2
					l4.584-11.464h1.568L604.067,738.448z M600.834,734.192l-1.8-4.664c-0.053-0.139-0.109-0.3-0.168-0.484
					c-0.059-0.184-0.115-0.38-0.168-0.588c-0.112,0.433-0.227,0.792-0.344,1.08l-1.8,4.656H600.834z"/>
				<path fill="#00384B" d="M612.882,737.145v1.304h-6.504v-11.464h1.544v10.16H612.882z"/>
				<path fill="#00384B" d="M616.946,738.448h-1.552v-11.464h1.552V738.448z"/>
				<path fill="#00384B" d="M628.427,728.288h-3.712v10.16h-1.544v-10.16h-3.72v-1.304h8.976V728.288z"/>
				<path fill="#00384B" d="M635.227,733.88v4.568h-1.553v-4.568l-4.199-6.896h1.359c0.139,0,0.248,0.033,0.328,0.1
					c0.08,0.067,0.149,0.153,0.208,0.261l2.624,4.455c0.096,0.188,0.185,0.361,0.264,0.524c0.08,0.163,0.149,0.327,0.208,0.492
					c0.059-0.165,0.126-0.329,0.2-0.492c0.075-0.163,0.157-0.337,0.248-0.524l2.616-4.455c0.048-0.091,0.114-0.174,0.2-0.248
					c0.085-0.075,0.194-0.112,0.328-0.112h1.367L635.227,733.88z"/>
			</g>
		</g>
		<g>
			<g>
				<path fill="#00384B" d="M445.019,651.626c-0.048,0.08-0.1,0.14-0.156,0.18c-0.056,0.04-0.124,0.061-0.204,0.061
					c-0.09,0-0.197-0.046-0.32-0.137c-0.123-0.09-0.276-0.19-0.46-0.3s-0.405-0.209-0.664-0.3s-0.572-0.136-0.94-0.136
					c-0.347,0-0.652,0.047-0.916,0.14c-0.264,0.094-0.485,0.22-0.664,0.38s-0.313,0.349-0.404,0.564
					c-0.091,0.216-0.136,0.449-0.136,0.7c0,0.319,0.079,0.585,0.236,0.796c0.157,0.21,0.365,0.391,0.624,0.54
					c0.258,0.149,0.552,0.278,0.88,0.388s0.664,0.223,1.008,0.34c0.344,0.117,0.68,0.249,1.008,0.396
					c0.328,0.146,0.621,0.332,0.88,0.556c0.258,0.224,0.466,0.499,0.624,0.824c0.157,0.325,0.236,0.725,0.236,1.199
					c0,0.502-0.085,0.973-0.256,1.412c-0.171,0.44-0.42,0.823-0.748,1.148s-0.731,0.581-1.208,0.768
					c-0.478,0.187-1.02,0.28-1.628,0.28c-0.747,0-1.424-0.135-2.032-0.404c-0.608-0.269-1.128-0.633-1.56-1.092l0.448-0.735
					c0.042-0.06,0.095-0.108,0.156-0.148c0.062-0.04,0.129-0.06,0.204-0.06c0.069,0,0.148,0.027,0.236,0.084
					c0.088,0.056,0.188,0.126,0.3,0.212c0.112,0.085,0.24,0.179,0.384,0.279c0.144,0.102,0.308,0.195,0.492,0.28
					s0.393,0.156,0.628,0.212s0.499,0.084,0.792,0.084c0.368,0,0.696-0.051,0.984-0.151c0.288-0.102,0.532-0.244,0.732-0.429
					c0.2-0.184,0.354-0.403,0.46-0.66c0.106-0.256,0.16-0.541,0.16-0.855c0-0.347-0.079-0.631-0.236-0.853
					c-0.157-0.221-0.364-0.406-0.62-0.556s-0.549-0.276-0.88-0.38c-0.331-0.104-0.667-0.211-1.008-0.32s-0.677-0.235-1.008-0.38
					c-0.331-0.144-0.624-0.33-0.88-0.56s-0.463-0.517-0.62-0.86s-0.236-0.77-0.236-1.276c0-0.405,0.079-0.797,0.236-1.176
					c0.157-0.378,0.387-0.715,0.688-1.008s0.672-0.528,1.112-0.704c0.44-0.176,0.945-0.264,1.516-0.264
					c0.64,0,1.223,0.102,1.748,0.304c0.525,0.203,0.988,0.496,1.388,0.88L445.019,651.626z"/>
				<path fill="#00384B" d="M455.707,660.034l-0.008,1.264h-7.064v-11.464h7.064v1.264h-5.512v3.809h4.464v1.216h-4.464v3.912
					H455.707z"/>
				<path fill="#00384B" d="M466.475,658.93c0.085,0,0.16,0.035,0.224,0.104l0.616,0.664c-0.469,0.544-1.039,0.968-1.708,1.271
					s-1.479,0.456-2.428,0.456c-0.821,0-1.568-0.143-2.24-0.428s-1.246-0.686-1.72-1.2s-0.843-1.132-1.104-1.852
					c-0.261-0.721-0.392-1.513-0.392-2.376c0-0.864,0.136-1.656,0.408-2.376c0.272-0.721,0.655-1.339,1.148-1.856
					s1.084-0.919,1.772-1.204s1.448-0.428,2.28-0.428c0.816,0,1.536,0.131,2.16,0.392c0.624,0.262,1.173,0.616,1.648,1.064
					l-0.512,0.712c-0.032,0.053-0.073,0.098-0.124,0.132c-0.051,0.035-0.119,0.052-0.204,0.052c-0.096,0-0.213-0.052-0.352-0.156
					c-0.139-0.104-0.32-0.22-0.544-0.348s-0.504-0.244-0.84-0.348c-0.336-0.104-0.75-0.156-1.24-0.156
					c-0.592,0-1.133,0.103-1.624,0.308c-0.491,0.206-0.913,0.503-1.268,0.893c-0.354,0.39-0.63,0.864-0.828,1.424
					c-0.198,0.56-0.296,1.192-0.296,1.896c0,0.714,0.103,1.352,0.308,1.911c0.206,0.561,0.485,1.034,0.84,1.42
					c0.354,0.388,0.773,0.682,1.256,0.885c0.482,0.202,1.004,0.304,1.564,0.304c0.341,0,0.649-0.02,0.924-0.06
					c0.275-0.04,0.528-0.104,0.76-0.188s0.448-0.193,0.648-0.324c0.2-0.13,0.398-0.286,0.596-0.468
					C466.293,658.97,466.384,658.93,466.475,658.93z"/>
				<path fill="#00384B" d="M474.339,660.065c0.475,0,0.898-0.079,1.272-0.239c0.373-0.16,0.689-0.385,0.948-0.672
					c0.259-0.288,0.456-0.633,0.592-1.032c0.136-0.4,0.204-0.84,0.204-1.32v-6.968h1.544v6.968c0,0.661-0.105,1.274-0.316,1.84
					c-0.21,0.565-0.512,1.055-0.904,1.468c-0.392,0.414-0.871,0.738-1.436,0.973s-1.2,0.352-1.904,0.352
					c-0.704,0-1.339-0.117-1.904-0.352s-1.045-0.559-1.44-0.973c-0.395-0.413-0.697-0.902-0.908-1.468
					c-0.211-0.565-0.316-1.179-0.316-1.84v-6.968h1.544v6.96c0,0.479,0.068,0.92,0.204,1.32c0.136,0.399,0.333,0.743,0.592,1.031
					c0.258,0.288,0.576,0.514,0.952,0.677C473.439,659.984,473.864,660.065,474.339,660.065z"/>
				<path fill="#00384B" d="M490.955,661.298h-1.376c-0.283,0-0.491-0.109-0.624-0.328l-2.976-4.096
					c-0.091-0.128-0.188-0.22-0.292-0.276c-0.104-0.056-0.265-0.084-0.484-0.084h-1.176v4.784h-1.544v-11.464h3.24
					c0.725,0,1.352,0.073,1.88,0.22s0.964,0.359,1.308,0.636c0.344,0.277,0.599,0.612,0.764,1.005
					c0.166,0.392,0.248,0.83,0.248,1.315c0,0.405-0.064,0.784-0.192,1.136c-0.128,0.353-0.313,0.668-0.556,0.948
					s-0.539,0.519-0.888,0.716c-0.35,0.197-0.746,0.347-1.188,0.448c0.197,0.112,0.368,0.274,0.512,0.488L490.955,661.298z
					 M485.659,655.386c0.448,0,0.844-0.055,1.188-0.164c0.344-0.109,0.632-0.264,0.864-0.464s0.407-0.438,0.524-0.716
					s0.176-0.584,0.176-0.92c0-0.683-0.224-1.197-0.672-1.544c-0.448-0.347-1.12-0.521-2.016-0.521h-1.696v4.328H485.659z"/>
				<path fill="#00384B" d="M494.859,661.298h-1.552v-11.464h1.552V661.298z"/>
				<path fill="#00384B" d="M506.338,651.138h-3.712v10.16h-1.544v-10.16h-3.72v-1.304h8.976V651.138z"/>
				<path fill="#00384B" d="M513.139,656.729v4.568h-1.552v-4.568l-4.2-6.896h1.36c0.139,0,0.248,0.033,0.328,0.1
					c0.08,0.067,0.149,0.153,0.208,0.261l2.624,4.455c0.096,0.188,0.184,0.361,0.264,0.524c0.08,0.163,0.149,0.327,0.208,0.492
					c0.059-0.165,0.125-0.329,0.2-0.492s0.157-0.337,0.248-0.524l2.616-4.455c0.048-0.091,0.115-0.174,0.2-0.248
					c0.085-0.075,0.195-0.112,0.328-0.112h1.368L513.139,656.729z"/>
			</g>
		</g>
		<g>
			<g>
				<path fill="#00384B" d="M312.251,515.051v4.008h4.712v1.265h-4.712v4.928h-1.552v-11.464h7.064v1.264H312.251z"/>
				<path fill="#00384B" d="M322.099,525.251h-1.552v-11.464h1.552V525.251z"/>
				<path fill="#00384B" d="M335.115,513.787v11.464h-0.776c-0.123,0-0.226-0.021-0.308-0.064c-0.083-0.042-0.164-0.114-0.244-0.216
					l-6.632-8.64c0.011,0.133,0.019,0.264,0.024,0.392s0.008,0.248,0.008,0.36v8.168h-1.36v-11.464h0.8
					c0.069,0,0.128,0.004,0.176,0.012s0.091,0.021,0.128,0.04c0.038,0.019,0.075,0.046,0.112,0.08
					c0.037,0.035,0.077,0.079,0.12,0.132l6.632,8.632c-0.011-0.139-0.02-0.272-0.028-0.403c-0.008-0.131-0.012-0.255-0.012-0.372
					v-8.12H335.115z"/>
				<path fill="#00384B" d="M348.163,525.251h-1.2c-0.139,0-0.251-0.034-0.336-0.104c-0.085-0.069-0.149-0.158-0.192-0.265
					l-1.072-2.768h-5.144l-1.072,2.768c-0.032,0.096-0.093,0.182-0.184,0.256c-0.091,0.075-0.203,0.112-0.336,0.112h-1.2
					l4.584-11.464h1.568L348.163,525.251z M344.93,520.995l-1.8-4.664c-0.053-0.139-0.109-0.3-0.168-0.484
					c-0.059-0.184-0.115-0.38-0.168-0.588c-0.112,0.433-0.227,0.792-0.344,1.08l-1.8,4.656H344.93z"/>
				<path fill="#00384B" d="M359.762,513.787v11.464h-0.776c-0.123,0-0.226-0.021-0.308-0.064c-0.083-0.042-0.164-0.114-0.244-0.216
					l-6.632-8.64c0.011,0.133,0.019,0.264,0.024,0.392s0.008,0.248,0.008,0.36v8.168h-1.36v-11.464h0.8
					c0.069,0,0.128,0.004,0.176,0.012s0.091,0.021,0.128,0.04c0.038,0.019,0.075,0.046,0.112,0.08
					c0.037,0.035,0.077,0.079,0.12,0.132l6.632,8.632c-0.011-0.139-0.02-0.272-0.028-0.403c-0.008-0.131-0.012-0.255-0.012-0.372
					v-8.12H359.762z"/>
				<path fill="#00384B" d="M371.539,522.883c0.085,0,0.16,0.035,0.224,0.104l0.616,0.664c-0.469,0.544-1.039,0.968-1.708,1.271
					s-1.479,0.456-2.428,0.456c-0.821,0-1.568-0.143-2.24-0.428s-1.246-0.686-1.72-1.2s-0.843-1.132-1.104-1.852
					c-0.261-0.721-0.392-1.513-0.392-2.376c0-0.864,0.136-1.656,0.408-2.376c0.272-0.721,0.655-1.339,1.148-1.856
					s1.084-0.919,1.772-1.204s1.448-0.428,2.28-0.428c0.816,0,1.536,0.131,2.16,0.392c0.624,0.262,1.173,0.616,1.648,1.064
					l-0.512,0.712c-0.032,0.053-0.073,0.098-0.124,0.132c-0.051,0.035-0.119,0.052-0.204,0.052c-0.096,0-0.213-0.052-0.352-0.156
					c-0.139-0.104-0.32-0.22-0.544-0.348s-0.504-0.244-0.84-0.348c-0.336-0.104-0.75-0.156-1.24-0.156
					c-0.592,0-1.133,0.103-1.624,0.308c-0.491,0.206-0.913,0.503-1.268,0.893c-0.354,0.39-0.63,0.864-0.828,1.424
					c-0.198,0.56-0.296,1.192-0.296,1.896c0,0.714,0.103,1.352,0.308,1.911c0.206,0.561,0.485,1.034,0.84,1.42
					c0.354,0.388,0.773,0.682,1.256,0.885c0.482,0.202,1.004,0.304,1.564,0.304c0.341,0,0.649-0.02,0.924-0.06
					c0.275-0.04,0.528-0.104,0.76-0.188s0.448-0.193,0.648-0.324c0.2-0.13,0.398-0.286,0.596-0.468
					C371.357,522.923,371.448,522.883,371.539,522.883z"/>
				<path fill="#00384B" d="M376.53,525.251h-1.552v-11.464h1.552V525.251z"/>
				<path fill="#00384B" d="M389.578,525.251h-1.2c-0.139,0-0.251-0.034-0.336-0.104c-0.085-0.069-0.149-0.158-0.192-0.265
					l-1.072-2.768h-5.144l-1.072,2.768c-0.032,0.096-0.093,0.182-0.184,0.256c-0.091,0.075-0.203,0.112-0.336,0.112h-1.2
					l4.584-11.464h1.568L389.578,525.251z M386.346,520.995l-1.8-4.664c-0.053-0.139-0.109-0.3-0.168-0.484
					c-0.059-0.184-0.115-0.38-0.168-0.588c-0.112,0.433-0.227,0.792-0.344,1.08l-1.8,4.656H386.346z"/>
				<path fill="#00384B" d="M398.394,523.947v1.304h-6.504v-11.464h1.544v10.16H398.394z"/>
				<path fill="#00384B" d="M414.609,513.787v11.464h-0.776c-0.123,0-0.226-0.021-0.308-0.064c-0.083-0.042-0.164-0.114-0.244-0.216
					l-6.632-8.64c0.011,0.133,0.019,0.264,0.024,0.392s0.008,0.248,0.008,0.36v8.168h-1.36v-11.464h0.8
					c0.069,0,0.128,0.004,0.176,0.012s0.091,0.021,0.128,0.04c0.038,0.019,0.075,0.046,0.112,0.08
					c0.037,0.035,0.077,0.079,0.12,0.132l6.632,8.632c-0.011-0.139-0.02-0.272-0.028-0.403c-0.008-0.131-0.012-0.255-0.012-0.372
					v-8.12H414.609z"/>
				<path fill="#00384B" d="M425.41,523.987l-0.008,1.264h-7.064v-11.464h7.064v1.264h-5.512v3.809h4.464v1.216h-4.464v3.912H425.41
					z"/>
				<path fill="#00384B" d="M435.45,523.987l-0.008,1.264h-7.064v-11.464h7.064v1.264h-5.512v3.809h4.464v1.216h-4.464v3.912H435.45
					z"/>
				<path fill="#00384B" d="M448.354,519.523c0,0.858-0.136,1.64-0.408,2.344s-0.656,1.307-1.152,1.808
					c-0.496,0.502-1.092,0.89-1.788,1.164c-0.696,0.274-1.465,0.412-2.308,0.412h-4.28v-11.464h4.28
					c0.842,0,1.612,0.138,2.308,0.412c0.696,0.274,1.292,0.664,1.788,1.168c0.496,0.504,0.88,1.107,1.152,1.812
					S448.354,518.664,448.354,519.523z M446.762,519.523c0-0.704-0.096-1.334-0.288-1.889s-0.464-1.023-0.816-1.408
					c-0.352-0.384-0.779-0.677-1.28-0.88c-0.501-0.202-1.061-0.304-1.68-0.304h-2.728v8.952h2.728c0.619,0,1.179-0.102,1.68-0.304
					c0.501-0.203,0.928-0.495,1.28-0.876c0.352-0.382,0.624-0.85,0.816-1.404S446.762,520.227,446.762,519.523z"/>
				<path fill="#00384B" d="M457.25,515.579c-0.048,0.08-0.1,0.14-0.156,0.18c-0.056,0.04-0.124,0.061-0.204,0.061
					c-0.09,0-0.197-0.046-0.32-0.137c-0.123-0.09-0.276-0.19-0.46-0.3s-0.405-0.209-0.664-0.3s-0.572-0.136-0.94-0.136
					c-0.347,0-0.652,0.047-0.916,0.14c-0.264,0.094-0.485,0.22-0.664,0.38s-0.313,0.349-0.404,0.564
					c-0.091,0.216-0.136,0.449-0.136,0.7c0,0.319,0.079,0.585,0.236,0.796c0.157,0.21,0.365,0.391,0.624,0.54
					c0.258,0.149,0.552,0.278,0.88,0.388s0.664,0.223,1.008,0.34c0.344,0.117,0.68,0.249,1.008,0.396
					c0.328,0.146,0.621,0.332,0.88,0.556c0.258,0.224,0.466,0.499,0.624,0.824c0.157,0.325,0.236,0.725,0.236,1.199
					c0,0.502-0.085,0.973-0.256,1.412c-0.171,0.44-0.42,0.823-0.748,1.148s-0.731,0.581-1.208,0.768
					c-0.478,0.187-1.02,0.28-1.628,0.28c-0.747,0-1.424-0.135-2.032-0.404c-0.608-0.269-1.128-0.633-1.56-1.092l0.448-0.735
					c0.042-0.06,0.095-0.108,0.156-0.148c0.062-0.04,0.129-0.06,0.204-0.06c0.069,0,0.148,0.027,0.236,0.084
					c0.088,0.056,0.188,0.126,0.3,0.212c0.112,0.085,0.24,0.179,0.384,0.279c0.144,0.102,0.308,0.195,0.492,0.28
					s0.393,0.156,0.628,0.212s0.499,0.084,0.792,0.084c0.368,0,0.696-0.051,0.984-0.151c0.288-0.102,0.532-0.244,0.732-0.429
					c0.2-0.184,0.354-0.403,0.46-0.66c0.106-0.256,0.16-0.541,0.16-0.855c0-0.347-0.079-0.631-0.236-0.853
					c-0.157-0.221-0.364-0.406-0.62-0.556s-0.549-0.276-0.88-0.38c-0.331-0.104-0.667-0.211-1.008-0.32s-0.677-0.235-1.008-0.38
					c-0.331-0.144-0.624-0.33-0.88-0.56s-0.463-0.517-0.62-0.86s-0.236-0.77-0.236-1.276c0-0.405,0.079-0.797,0.236-1.176
					c0.157-0.378,0.387-0.715,0.688-1.008s0.672-0.528,1.112-0.704c0.44-0.176,0.945-0.264,1.516-0.264
					c0.64,0,1.223,0.102,1.748,0.304c0.525,0.203,0.988,0.496,1.388,0.88L457.25,515.579z"/>
			</g>
		</g>
		<g>
			<g>
				<path fill="#00384B" d="M370.736,383.014c0.085,0,0.16,0.035,0.224,0.104l0.616,0.664c-0.469,0.544-1.039,0.968-1.708,1.271
					s-1.479,0.456-2.428,0.456c-0.821,0-1.568-0.143-2.24-0.428s-1.246-0.686-1.72-1.2s-0.843-1.132-1.104-1.852
					c-0.261-0.721-0.392-1.513-0.392-2.376c0-0.864,0.136-1.656,0.408-2.376c0.272-0.721,0.655-1.339,1.148-1.856
					s1.084-0.919,1.772-1.204s1.448-0.428,2.28-0.428c0.816,0,1.536,0.131,2.16,0.392c0.624,0.262,1.173,0.616,1.648,1.064
					l-0.512,0.712c-0.032,0.053-0.073,0.098-0.124,0.132c-0.051,0.035-0.119,0.052-0.204,0.052c-0.096,0-0.213-0.052-0.352-0.156
					c-0.139-0.104-0.32-0.22-0.544-0.348s-0.504-0.244-0.84-0.348c-0.336-0.104-0.75-0.156-1.24-0.156
					c-0.592,0-1.133,0.103-1.624,0.308c-0.491,0.206-0.913,0.503-1.268,0.893c-0.354,0.39-0.63,0.864-0.828,1.424
					c-0.198,0.56-0.296,1.192-0.296,1.896c0,0.714,0.103,1.352,0.308,1.911c0.206,0.561,0.485,1.034,0.84,1.42
					c0.354,0.388,0.773,0.682,1.256,0.885c0.482,0.202,1.004,0.304,1.564,0.304c0.341,0,0.649-0.02,0.924-0.06
					c0.275-0.04,0.528-0.104,0.76-0.188s0.448-0.193,0.648-0.324c0.2-0.13,0.398-0.286,0.596-0.468
					C370.554,383.054,370.645,383.014,370.736,383.014z"/>
				<path fill="#00384B" d="M384.544,379.654c0,0.858-0.136,1.646-0.408,2.363c-0.272,0.718-0.656,1.335-1.152,1.853
					s-1.092,0.919-1.788,1.204s-1.465,0.428-2.308,0.428s-1.611-0.143-2.304-0.428c-0.693-0.285-1.288-0.687-1.784-1.204
					s-0.88-1.135-1.152-1.853c-0.272-0.717-0.408-1.505-0.408-2.363c0-0.859,0.136-1.647,0.408-2.364
					c0.272-0.718,0.656-1.336,1.152-1.856c0.496-0.52,1.091-0.924,1.784-1.212c0.693-0.288,1.461-0.432,2.304-0.432
					s1.612,0.144,2.308,0.432s1.292,0.692,1.788,1.212c0.496,0.521,0.88,1.139,1.152,1.856
					C384.408,378.007,384.544,378.795,384.544,379.654z M382.952,379.654c0-0.704-0.096-1.337-0.288-1.896
					c-0.192-0.56-0.464-1.033-0.816-1.42s-0.779-0.684-1.28-0.892c-0.501-0.208-1.062-0.312-1.68-0.312
					c-0.613,0-1.17,0.104-1.672,0.312s-0.929,0.505-1.284,0.892c-0.354,0.387-0.628,0.86-0.82,1.42s-0.288,1.192-0.288,1.896
					c0,0.703,0.096,1.334,0.288,1.892s0.465,1.029,0.82,1.416c0.355,0.387,0.783,0.683,1.284,0.888
					c0.501,0.206,1.059,0.309,1.672,0.309c0.619,0,1.179-0.103,1.68-0.309c0.501-0.205,0.928-0.501,1.28-0.888
					s0.624-0.858,0.816-1.416C382.856,380.988,382.952,380.357,382.952,379.654z"/>
				<path fill="#00384B" d="M399.488,373.918v11.464h-1.36v-8.424c0-0.112,0.004-0.232,0.012-0.36s0.017-0.259,0.028-0.392
					l-3.936,7.168c-0.123,0.24-0.31,0.359-0.56,0.359h-0.224c-0.251,0-0.438-0.119-0.56-0.359l-4.016-7.2
					c0.032,0.283,0.048,0.544,0.048,0.784v8.424h-1.36v-11.464h1.144c0.139,0,0.245,0.014,0.32,0.04
					c0.074,0.026,0.146,0.102,0.216,0.224l3.96,7.057c0.064,0.128,0.126,0.261,0.188,0.399c0.061,0.139,0.119,0.28,0.172,0.424
					c0.053-0.144,0.109-0.286,0.168-0.428s0.123-0.276,0.192-0.404l3.888-7.048c0.064-0.122,0.135-0.197,0.212-0.224
					c0.078-0.026,0.186-0.04,0.324-0.04H399.488z"/>
				<path fill="#00384B" d="M406.6,373.918c0.725,0,1.356,0.084,1.892,0.252c0.536,0.168,0.98,0.406,1.332,0.716
					c0.352,0.31,0.615,0.683,0.788,1.12s0.26,0.926,0.26,1.464c0,0.533-0.093,1.021-0.28,1.464c-0.187,0.443-0.46,0.824-0.82,1.145
					c-0.36,0.319-0.805,0.569-1.336,0.748s-1.143,0.268-1.836,0.268h-1.84v4.288h-1.544v-11.464H406.6z M406.6,379.862
					c0.442,0,0.833-0.06,1.172-0.177c0.338-0.117,0.624-0.281,0.856-0.492c0.232-0.21,0.407-0.462,0.524-0.756
					c0.117-0.293,0.176-0.615,0.176-0.968c0-0.73-0.226-1.301-0.676-1.712c-0.451-0.41-1.135-0.616-2.052-0.616h-1.84v4.721H406.6z"
					/>
				<path fill="#00384B" d="M420.696,384.118l-0.008,1.264h-7.064v-11.464h7.064v1.264h-5.512v3.809h4.464v1.216h-4.464v3.912
					H420.696z"/>
				<path fill="#00384B" d="M431.415,375.222h-3.712v10.16h-1.544v-10.16h-3.72v-1.304h8.976V375.222z"/>
				<path fill="#00384B" d="M435.463,385.382h-1.552v-11.464h1.552V385.382z"/>
				<path fill="#00384B" d="M446.943,375.222h-3.712v10.16h-1.544v-10.16h-3.72v-1.304h8.976V375.222z"/>
				<path fill="#00384B" d="M450.992,385.382h-1.552v-11.464h1.552V385.382z"/>
				<path fill="#00384B" d="M465.312,379.654c0,0.858-0.136,1.646-0.408,2.363c-0.272,0.718-0.656,1.335-1.152,1.853
					s-1.092,0.919-1.788,1.204s-1.465,0.428-2.308,0.428s-1.611-0.143-2.304-0.428c-0.693-0.285-1.288-0.687-1.784-1.204
					s-0.88-1.135-1.152-1.853c-0.272-0.717-0.408-1.505-0.408-2.363c0-0.859,0.136-1.647,0.408-2.364
					c0.272-0.718,0.656-1.336,1.152-1.856c0.496-0.52,1.091-0.924,1.784-1.212c0.693-0.288,1.461-0.432,2.304-0.432
					s1.612,0.144,2.308,0.432s1.292,0.692,1.788,1.212c0.496,0.521,0.88,1.139,1.152,1.856
					C465.175,378.007,465.312,378.795,465.312,379.654z M463.719,379.654c0-0.704-0.096-1.337-0.288-1.896
					c-0.192-0.56-0.464-1.033-0.816-1.42s-0.779-0.684-1.28-0.892c-0.501-0.208-1.062-0.312-1.68-0.312
					c-0.613,0-1.17,0.104-1.672,0.312s-0.929,0.505-1.284,0.892c-0.354,0.387-0.628,0.86-0.82,1.42s-0.288,1.192-0.288,1.896
					c0,0.703,0.096,1.334,0.288,1.892s0.465,1.029,0.82,1.416c0.355,0.387,0.783,0.683,1.284,0.888
					c0.501,0.206,1.059,0.309,1.672,0.309c0.619,0,1.179-0.103,1.68-0.309c0.501-0.205,0.928-0.501,1.28-0.888
					s0.624-0.858,0.816-1.416C463.624,380.988,463.719,380.357,463.719,379.654z"/>
				<path fill="#00384B" d="M477.615,373.918v11.464h-0.776c-0.123,0-0.226-0.021-0.308-0.064c-0.083-0.042-0.164-0.114-0.244-0.216
					l-6.632-8.64c0.011,0.133,0.019,0.264,0.024,0.392s0.008,0.248,0.008,0.36v8.168h-1.36v-11.464h0.8
					c0.069,0,0.128,0.004,0.176,0.012s0.091,0.021,0.128,0.04c0.038,0.019,0.075,0.046,0.112,0.08
					c0.037,0.035,0.077,0.079,0.12,0.132l6.632,8.632c-0.011-0.139-0.02-0.272-0.028-0.403c-0.008-0.131-0.012-0.255-0.012-0.372
					v-8.12H477.615z"/>
			</g>
		</g>
		<g>
			<g>
				<path fill="#00384B" d="M500.248,273.027h-1.2c-0.139,0-0.251-0.034-0.336-0.104c-0.085-0.069-0.149-0.158-0.192-0.265
					l-1.072-2.768h-5.144l-1.072,2.768c-0.032,0.096-0.093,0.182-0.184,0.256c-0.091,0.075-0.203,0.112-0.336,0.112h-1.2
					l4.584-11.464h1.568L500.248,273.027z M497.016,268.771l-1.8-4.664c-0.053-0.139-0.109-0.3-0.168-0.484
					c-0.059-0.184-0.115-0.38-0.168-0.588c-0.112,0.433-0.227,0.792-0.344,1.08l-1.8,4.656H497.016z"/>
				<path fill="#00384B" d="M509.063,271.724v1.304h-6.504v-11.464h1.544v10.16H509.063z"/>
				<path fill="#00384B" d="M517.823,262.867h-3.712v10.16h-1.544v-10.16h-3.72v-1.304h8.976V262.867z"/>
				<path fill="#00384B" d="M528.792,273.027h-1.376c-0.283,0-0.491-0.109-0.624-0.328l-2.976-4.096
					c-0.091-0.128-0.188-0.22-0.292-0.276c-0.104-0.056-0.265-0.084-0.484-0.084h-1.176v4.784h-1.544v-11.464h3.24
					c0.725,0,1.352,0.073,1.88,0.22s0.964,0.359,1.308,0.636c0.344,0.277,0.599,0.612,0.764,1.005
					c0.166,0.392,0.248,0.83,0.248,1.315c0,0.405-0.064,0.784-0.192,1.136c-0.128,0.353-0.313,0.668-0.556,0.948
					s-0.539,0.519-0.888,0.716c-0.35,0.197-0.746,0.347-1.188,0.448c0.197,0.112,0.368,0.274,0.512,0.488L528.792,273.027z
					 M523.496,267.115c0.448,0,0.844-0.055,1.188-0.164c0.344-0.109,0.632-0.264,0.864-0.464s0.407-0.438,0.524-0.716
					s0.176-0.584,0.176-0.92c0-0.683-0.224-1.197-0.672-1.544c-0.448-0.347-1.12-0.521-2.016-0.521h-1.696v4.328H523.496z"/>
				<path fill="#00384B" d="M535.504,271.795c0.475,0,0.898-0.079,1.272-0.239c0.373-0.16,0.689-0.385,0.948-0.672
					c0.259-0.288,0.456-0.633,0.592-1.032c0.136-0.4,0.204-0.84,0.204-1.32v-6.968h1.544v6.968c0,0.661-0.105,1.274-0.316,1.84
					c-0.21,0.565-0.512,1.055-0.904,1.468c-0.392,0.414-0.871,0.738-1.436,0.973s-1.2,0.352-1.904,0.352
					c-0.704,0-1.339-0.117-1.904-0.352s-1.045-0.559-1.44-0.973c-0.395-0.413-0.697-0.902-0.908-1.468
					c-0.211-0.565-0.316-1.179-0.316-1.84v-6.968h1.544v6.96c0,0.479,0.068,0.92,0.204,1.32c0.136,0.399,0.333,0.743,0.592,1.031
					c0.258,0.288,0.576,0.514,0.952,0.677C534.604,271.714,535.029,271.795,535.504,271.795z"/>
				<path fill="#00384B" d="M545.2,273.027h-1.552v-11.464h1.552V273.027z"/>
				<path fill="#00384B" d="M554.792,263.355c-0.048,0.08-0.1,0.14-0.156,0.18c-0.056,0.04-0.124,0.061-0.204,0.061
					c-0.09,0-0.197-0.046-0.32-0.137c-0.123-0.09-0.276-0.19-0.46-0.3s-0.405-0.209-0.664-0.3s-0.572-0.136-0.94-0.136
					c-0.347,0-0.652,0.047-0.916,0.14c-0.264,0.094-0.485,0.22-0.664,0.38s-0.313,0.349-0.404,0.564
					c-0.091,0.216-0.136,0.449-0.136,0.7c0,0.319,0.079,0.585,0.236,0.796c0.157,0.21,0.365,0.391,0.624,0.54
					c0.258,0.149,0.552,0.278,0.88,0.388s0.664,0.223,1.008,0.34c0.344,0.117,0.68,0.249,1.008,0.396
					c0.328,0.146,0.621,0.332,0.88,0.556c0.258,0.224,0.466,0.499,0.624,0.824c0.157,0.325,0.236,0.725,0.236,1.199
					c0,0.502-0.085,0.973-0.256,1.412c-0.171,0.44-0.42,0.823-0.748,1.148s-0.731,0.581-1.208,0.768
					c-0.478,0.187-1.02,0.28-1.628,0.28c-0.747,0-1.424-0.135-2.032-0.404c-0.608-0.269-1.128-0.633-1.56-1.092l0.448-0.735
					c0.042-0.06,0.095-0.108,0.156-0.148c0.062-0.04,0.129-0.06,0.204-0.06c0.069,0,0.148,0.027,0.236,0.084
					c0.088,0.056,0.188,0.126,0.3,0.212c0.112,0.085,0.24,0.179,0.384,0.279c0.144,0.102,0.308,0.195,0.492,0.28
					s0.393,0.156,0.628,0.212s0.499,0.084,0.792,0.084c0.368,0,0.696-0.051,0.984-0.151c0.288-0.102,0.532-0.244,0.732-0.429
					c0.2-0.184,0.354-0.403,0.46-0.66c0.106-0.256,0.16-0.541,0.16-0.855c0-0.347-0.079-0.631-0.236-0.853
					c-0.157-0.221-0.364-0.406-0.62-0.556s-0.549-0.276-0.88-0.38c-0.331-0.104-0.667-0.211-1.008-0.32s-0.677-0.235-1.008-0.38
					c-0.331-0.144-0.624-0.33-0.88-0.56s-0.463-0.517-0.62-0.86s-0.236-0.77-0.236-1.276c0-0.405,0.079-0.797,0.236-1.176
					c0.157-0.378,0.387-0.715,0.688-1.008s0.672-0.528,1.112-0.704c0.44-0.176,0.945-0.264,1.516-0.264
					c0.64,0,1.223,0.102,1.748,0.304c0.525,0.203,0.988,0.496,1.388,0.88L554.792,263.355z"/>
				<path fill="#00384B" d="M570.335,261.563v11.464h-1.36v-8.424c0-0.112,0.004-0.232,0.012-0.36s0.017-0.259,0.028-0.392
					l-3.936,7.168c-0.123,0.24-0.31,0.359-0.56,0.359h-0.224c-0.251,0-0.438-0.119-0.56-0.359l-4.016-7.2
					c0.032,0.283,0.048,0.544,0.048,0.784v8.424h-1.36v-11.464h1.144c0.139,0,0.245,0.014,0.32,0.04
					c0.074,0.026,0.146,0.102,0.216,0.224l3.96,7.057c0.064,0.128,0.126,0.261,0.188,0.399c0.061,0.139,0.119,0.28,0.172,0.424
					c0.053-0.144,0.109-0.286,0.168-0.428s0.123-0.276,0.192-0.404l3.888-7.048c0.064-0.122,0.135-0.197,0.212-0.224
					c0.078-0.026,0.186-0.04,0.324-0.04H570.335z"/>
			</g>
		</g>
		<polygon opacity="0.75" fill="#D06F6E" stroke="#993D2E" stroke-width="1.5" stroke-miterlimit="10" points="659.665,648.541 
			698.825,489.169 576.283,502.957 564.708,419.231 634.568,370.234 707.734,351.156 809.532,326.809 876.413,408.116 
			803.966,497.106 823.442,584.814 720.629,526.092 		"/>
		<polygon opacity="0.65" fill="#00384B" stroke="#00141E" stroke-width="2" stroke-miterlimit="10" points="676.102,591.319 
			663.735,520.564 658.58,489.324 620.347,443.337 635.67,371.905 707.734,409.657 791.484,354.182 792.524,444.462 824.922,500.57 
			838.703,598.376 734.447,574.194 		"/>
	</g>
	<g>
		<g>
			<g>
				<g>
					<path fill="#00384B" d="M253.319,767.22v4.008h4.712v1.265h-4.712v4.928h-1.552v-11.464h7.064v1.264H253.319z"/>
					<path fill="#00384B" d="M266.039,776.188c0.475,0,0.898-0.079,1.272-0.239c0.373-0.16,0.689-0.385,0.948-0.672
						c0.259-0.288,0.456-0.633,0.592-1.032c0.136-0.4,0.204-0.84,0.204-1.32v-6.968h1.544v6.968c0,0.661-0.105,1.274-0.316,1.84
						c-0.21,0.565-0.512,1.055-0.904,1.468c-0.392,0.414-0.871,0.738-1.436,0.973s-1.2,0.352-1.904,0.352
						c-0.704,0-1.339-0.117-1.904-0.352s-1.045-0.559-1.44-0.973c-0.395-0.413-0.697-0.902-0.908-1.468
						c-0.211-0.565-0.316-1.179-0.316-1.84v-6.968h1.544v6.96c0,0.479,0.068,0.92,0.204,1.32c0.136,0.399,0.333,0.743,0.592,1.031
						c0.258,0.288,0.576,0.514,0.952,0.677C265.138,776.106,265.563,776.188,266.039,776.188z"/>
					<path fill="#00384B" d="M280.686,776.116v1.304h-6.504v-11.464h1.544v10.16H280.686z"/>
					<path fill="#00384B" d="M284.75,767.22v4.008h4.712v1.265h-4.712v4.928h-1.552v-11.464h7.064v1.264H284.75z"/>
					<path fill="#00384B" d="M294.598,777.42h-1.552v-11.464h1.552V777.42z"/>
					<path fill="#00384B" d="M304.83,776.116v1.304h-6.504v-11.464h1.544v10.16H304.83z"/>
					<path fill="#00384B" d="M313.846,776.116v1.304h-6.504v-11.464h1.544v10.16H313.846z"/>
					<path fill="#00384B" d="M328.286,765.956v11.464h-1.36v-8.424c0-0.112,0.004-0.232,0.012-0.36s0.017-0.259,0.028-0.392
						l-3.936,7.168c-0.123,0.24-0.31,0.359-0.56,0.359h-0.224c-0.251,0-0.438-0.119-0.56-0.359l-4.016-7.2
						c0.032,0.283,0.048,0.544,0.048,0.784v8.424h-1.36v-11.464h1.144c0.139,0,0.245,0.014,0.32,0.04
						c0.074,0.026,0.146,0.102,0.216,0.224l3.96,7.057c0.064,0.128,0.126,0.261,0.188,0.399c0.061,0.139,0.119,0.28,0.172,0.424
						c0.053-0.144,0.109-0.286,0.168-0.428s0.123-0.276,0.192-0.404l3.888-7.048c0.064-0.122,0.135-0.197,0.212-0.224
						c0.078-0.026,0.186-0.04,0.324-0.04H328.286z"/>
					<path fill="#00384B" d="M339.086,776.156l-0.008,1.264h-7.064v-11.464h7.064v1.264h-5.512v3.809h4.464v1.216h-4.464v3.912
						H339.086z"/>
					<path fill="#00384B" d="M351.342,765.956v11.464h-0.776c-0.123,0-0.226-0.021-0.308-0.064
						c-0.083-0.042-0.164-0.114-0.244-0.216l-6.632-8.64c0.011,0.133,0.019,0.264,0.024,0.392s0.008,0.248,0.008,0.36v8.168h-1.36
						v-11.464h0.8c0.069,0,0.128,0.004,0.176,0.012s0.091,0.021,0.128,0.04c0.038,0.019,0.075,0.046,0.112,0.08
						c0.037,0.035,0.077,0.079,0.12,0.132l6.632,8.632c-0.011-0.139-0.02-0.272-0.028-0.403c-0.008-0.131-0.012-0.255-0.012-0.372
						v-8.12H351.342z"/>
					<path fill="#00384B" d="M362.821,767.26h-3.712v10.16h-1.544v-10.16h-3.72v-1.304h8.976V767.26z"/>
				</g>
			</g>
			
				<rect x="191.212" y="759.724" opacity="0.65" fill="#00384B" stroke="#00141E" stroke-width="2" stroke-miterlimit="10" width="49.542" height="24.779"/>
		</g>
		<g>
			<g>
				<g>
					<path fill="#00384B" d="M261.055,727.984v11.464h-0.776c-0.123,0-0.226-0.021-0.308-0.064
						c-0.083-0.042-0.164-0.114-0.244-0.216l-6.632-8.64c0.011,0.133,0.019,0.264,0.024,0.392s0.008,0.248,0.008,0.36v8.168h-1.36
						v-11.464h0.8c0.069,0,0.128,0.004,0.176,0.012s0.091,0.021,0.128,0.04c0.038,0.019,0.075,0.046,0.112,0.08
						c0.037,0.035,0.077,0.079,0.12,0.132l6.632,8.632c-0.011-0.139-0.02-0.272-0.028-0.403c-0.008-0.131-0.012-0.255-0.012-0.372
						v-8.12H261.055z"/>
					<path fill="#00384B" d="M271.854,738.185l-0.008,1.264h-7.064v-11.464h7.064v1.264h-5.512v3.809h4.464v1.216h-4.464v3.912
						H271.854z"/>
					<path fill="#00384B" d="M281.895,738.185l-0.008,1.264h-7.064v-11.464h7.064v1.264h-5.512v3.809h4.464v1.216h-4.464v3.912
						H281.895z"/>
					<path fill="#00384B" d="M294.798,733.721c0,0.858-0.136,1.64-0.408,2.344s-0.656,1.307-1.152,1.808
						c-0.496,0.502-1.092,0.89-1.788,1.164c-0.696,0.274-1.465,0.412-2.308,0.412h-4.28v-11.464h4.28
						c0.842,0,1.612,0.138,2.308,0.412c0.696,0.274,1.292,0.664,1.788,1.168c0.496,0.504,0.88,1.107,1.152,1.812
						S294.798,732.861,294.798,733.721z M293.207,733.721c0-0.704-0.096-1.334-0.288-1.889s-0.464-1.023-0.816-1.408
						c-0.352-0.384-0.779-0.677-1.28-0.88c-0.501-0.202-1.061-0.304-1.68-0.304h-2.728v8.952h2.728c0.619,0,1.179-0.102,1.68-0.304
						c0.501-0.203,0.928-0.495,1.28-0.876c0.352-0.382,0.624-0.85,0.816-1.404S293.207,734.424,293.207,733.721z"/>
				</g>
			</g>
			
				<rect x="191.863" y="721.184" opacity="0.75" fill="#D06F6E" stroke="#993D2E" stroke-width="1.5" stroke-miterlimit="10" width="49.542" height="24.779"/>
		</g>
	</g>
</g>
</svg>
