<?xml version="1.0" encoding="utf-8"?>
<!-- Generator: Adobe Illustrator 16.0.0, SVG Export Plug-In . SVG Version: 6.00 Build 0)  -->
<!DOCTYPE svg PUBLIC "-//W3C//DTD SVG 1.1//EN" "http://www.w3.org/Graphics/SVG/1.1/DTD/svg11.dtd">
<svg version="1.1" id="Layer_1" xmlns="http://www.w3.org/2000/svg" xmlns:xlink="http://www.w3.org/1999/xlink" x="0px" y="0px"
	 width="16px" height="17.455px" viewBox="41.741 21.793 16 17.455" enable-background="new 41.741 21.793 16 17.455"
	 xml:space="preserve">
<rect width="16" height="17.455"/>
<path fill="#9FA19E" d="M57.741,36.305c0,0.904-0.277,1.62-0.832,2.146s-1.29,0.792-2.206,0.797h-9.926
	c-0.916,0-1.651-0.266-2.206-0.797c-0.554-0.531-0.832-1.247-0.832-2.146c0-0.401,0.014-0.794,0.042-1.179
	c0.028-0.384,0.079-0.797,0.153-1.238c0.073-0.441,0.175-0.851,0.305-1.229c0.13-0.379,0.294-0.75,0.492-1.111
	c0.198-0.362,0.433-0.667,0.704-0.916c0.271-0.249,0.594-0.453,0.967-0.611c0.373-0.158,0.794-0.235,1.264-0.229
	c0.068,0,0.229,0.082,0.484,0.246c0.254,0.164,0.534,0.345,0.84,0.542c0.305,0.198,0.715,0.382,1.23,0.551
	c0.515,0.17,1.021,0.249,1.519,0.238s1.004-0.091,1.519-0.238s0.922-0.331,1.222-0.551c0.3-0.22,0.583-0.401,0.848-0.542
	c0.266-0.142,0.424-0.224,0.475-0.246c0.464,0,0.888,0.076,1.272,0.229c0.385,0.153,0.707,0.356,0.967,0.611
	c0.26,0.254,0.495,0.56,0.704,0.916c0.209,0.356,0.374,0.727,0.492,1.111c0.119,0.384,0.218,0.794,0.297,1.229
	c0.079,0.436,0.133,0.848,0.161,1.238S57.741,35.909,57.741,36.305L57.741,36.305 M54.101,26.161c0,1.204-0.427,2.23-1.281,3.079
	s-1.88,1.275-3.08,1.281c-1.199,0.005-2.229-0.421-3.088-1.281c-0.86-0.859-1.284-1.886-1.272-3.079
	c0.011-1.193,0.435-2.222,1.272-3.087c0.837-0.865,1.866-1.292,3.088-1.281c1.222,0.012,2.248,0.438,3.08,1.281
	C53.652,23.917,54.079,24.945,54.101,26.161L54.101,26.161"/>
</svg>
