<?xml version="1.0" encoding="utf-8"?>
<!-- Generator: Adobe Illustrator 16.0.0, SVG Export Plug-In . SVG Version: 6.00 Build 0)  -->
<!DOCTYPE svg PUBLIC "-//W3C//DTD SVG 1.1//EN" "http://www.w3.org/Graphics/SVG/1.1/DTD/svg11.dtd">
<svg version="1.1" id="Layer_1" xmlns="http://www.w3.org/2000/svg" xmlns:xlink="http://www.w3.org/1999/xlink" x="0px" y="0px"
	 width="24px" height="24px" viewBox="41.504 21.342 24 24" enable-background="new 41.504 21.342 24 24" xml:space="preserve">
<rect width="24" height="24"/>
<path fill="#D06F6E" d="M61.502,28.875c-0.583,0.256-1.213,0.431-1.89,0.524c0.708-0.412,1.194-1.018,1.458-1.819
	c-0.677,0.396-1.377,0.661-2.1,0.793c-0.63-0.685-1.427-1.026-2.392-1.026c-0.902,0-1.672,0.319-2.31,0.956
	c-0.638,0.638-0.96,1.411-0.968,2.321c0,0.303,0.027,0.552,0.082,0.747c-1.346-0.07-2.605-0.408-3.78-1.015
	c-1.174-0.606-2.174-1.411-2.999-2.414c-0.303,0.521-0.455,1.073-0.455,1.656c0,1.182,0.475,2.091,1.423,2.729
	c-0.49-0.008-1.011-0.144-1.563-0.408v0.035c0,0.777,0.261,1.473,0.782,2.087c0.521,0.614,1.159,0.991,1.914,1.131
	c-0.295,0.078-0.56,0.116-0.793,0.116c-0.132,0-0.334-0.019-0.606-0.058c0.218,0.653,0.606,1.193,1.167,1.621s1.19,0.649,1.89,0.665
	c-1.206,0.933-2.563,1.399-4.072,1.399c-0.272,0-0.533-0.016-0.782-0.046c1.54,0.979,3.216,1.469,5.029,1.469
	c1.167,0,2.259-0.187,3.278-0.56c1.019-0.374,1.894-0.867,2.625-1.481c0.731-0.614,1.361-1.325,1.89-2.134
	c0.529-0.809,0.917-1.652,1.167-2.531s0.377-1.757,0.385-2.635c0-0.187-0.004-0.327-0.012-0.42
	C60.522,30.111,61.067,29.544,61.502,28.875L61.502,28.875 M65.504,25.843V40.84c0,1.236-0.439,2.293-1.318,3.172
	s-1.941,1.322-3.185,1.33H46.008c-1.244,0-2.306-0.443-3.185-1.33s-1.318-1.943-1.318-3.172V25.843c0-1.236,0.439-2.293,1.318-3.172
	s1.941-1.322,3.185-1.33h14.993c1.244,0,2.306,0.443,3.185,1.33S65.504,24.615,65.504,25.843L65.504,25.843"/>
</svg>
