<?xml version="1.0" encoding="utf-8"?>
<!-- Generator: Adobe Illustrator 16.0.0, SVG Export Plug-In . SVG Version: 6.00 Build 0)  -->
<!DOCTYPE svg PUBLIC "-//W3C//DTD SVG 1.1//EN" "http://www.w3.org/Graphics/SVG/1.1/DTD/svg11.dtd">
<svg version="1.1" id="Layer_1" xmlns="http://www.w3.org/2000/svg" xmlns:xlink="http://www.w3.org/1999/xlink" x="0px" y="0px"
	 width="24px" height="24px" viewBox="0 0 24 24" enable-background="new 0 0 24 24" xml:space="preserve">
<rect width="24" height="24"/>
<path fill="#993D2E" d="M61.502,28.875c-0.583,0.256-1.213,0.432-1.891,0.523c0.709-0.411,1.195-1.018,1.459-1.818
	c-0.678,0.396-1.377,0.661-2.101,0.793c-0.63-0.686-1.427-1.025-2.392-1.025c-0.902,0-1.672,0.318-2.311,0.955
	c-0.638,0.639-0.959,1.411-0.968,2.321c0,0.303,0.027,0.552,0.082,0.747c-1.346-0.07-2.604-0.408-3.78-1.016
	c-1.174-0.605-2.174-1.41-2.998-2.414c-0.304,0.521-0.455,1.074-0.455,1.656c0,1.183,0.475,2.092,1.422,2.729
	c-0.489-0.009-1.01-0.144-1.563-0.408v0.035c0,0.776,0.262,1.473,0.782,2.087s1.159,0.991,1.914,1.131
	c-0.295,0.078-0.56,0.116-0.793,0.116c-0.132,0-0.334-0.019-0.606-0.058c0.219,0.652,0.606,1.192,1.168,1.621
	c0.561,0.428,1.189,0.648,1.889,0.664c-1.205,0.934-2.563,1.399-4.071,1.399c-0.272,0-0.533-0.017-0.782-0.046
	c1.54,0.979,3.217,1.469,5.029,1.469c1.167,0,2.259-0.188,3.277-0.561c1.02-0.373,1.895-0.866,2.625-1.48
	c0.731-0.613,1.361-1.324,1.891-2.134s0.917-1.652,1.167-2.531s0.377-1.757,0.385-2.635c0-0.187-0.004-0.327-0.012-0.42
	C60.521,30.111,61.066,29.544,61.502,28.875L61.502,28.875 M65.504,25.843V40.84c0,1.236-0.439,2.293-1.318,3.172
	s-1.94,1.322-3.185,1.33H46.008c-1.244,0-2.306-0.443-3.185-1.33c-0.88-0.887-1.318-1.943-1.318-3.172V25.843
	c0-1.235,0.438-2.293,1.318-3.172c0.879-0.879,1.94-1.321,3.185-1.33h14.993c1.244,0,2.306,0.443,3.185,1.33
	C65.064,23.559,65.504,24.615,65.504,25.843L65.504,25.843"/>
</svg>
