<?xml version="1.0" encoding="utf-8"?>
<!-- Generator: Adobe Illustrator 16.0.0, SVG Export Plug-In . SVG Version: 6.00 Build 0)  -->
<!DOCTYPE svg PUBLIC "-//W3C//DTD SVG 1.1//EN" "http://www.w3.org/Graphics/SVG/1.1/DTD/svg11.dtd">
<svg version="1.1" id="Layer_1" xmlns="http://www.w3.org/2000/svg" xmlns:xlink="http://www.w3.org/1999/xlink" x="0px" y="0px"
	 width="16px" height="12.667px" viewBox="45.379 9.518 16 12.667" enable-background="new 45.379 9.518 16 12.667"
	 xml:space="preserve">
<rect width="16" height="12.667"/>
<path fill="#9FA19E" d="M61.379,13.601v7.139c0,0.398-0.14,0.739-0.42,1.021c-0.28,0.282-0.616,0.423-1.007,0.423H46.806
	c-0.391,0-0.727-0.141-1.007-0.423c-0.28-0.282-0.42-0.623-0.42-1.021v-7.139c0.262,0.295,0.562,0.555,0.9,0.779
	c2.156,1.478,3.636,2.512,4.44,3.103c0.338,0.255,0.613,0.452,0.827,0.591c0.213,0.139,0.494,0.282,0.84,0.43
	c0.347,0.147,0.675,0.222,0.986,0.222h0.007h0.007c0.307,0,0.635-0.074,0.986-0.222c0.351-0.148,0.631-0.291,0.84-0.43
	c0.208-0.139,0.484-0.336,0.827-0.591c1.013-0.734,2.496-1.769,4.446-3.103C60.824,14.147,61.122,13.888,61.379,13.601
	L61.379,13.601 M61.379,10.955c0,0.475-0.146,0.927-0.44,1.356s-0.656,0.799-1.087,1.108c-2.24,1.567-3.633,2.541-4.18,2.921
	c-0.058,0.044-0.185,0.136-0.38,0.275c-0.195,0.139-0.355,0.253-0.48,0.342c-0.124,0.09-0.28,0.188-0.466,0.295
	c-0.187,0.108-0.358,0.188-0.514,0.242c-0.155,0.054-0.304,0.081-0.446,0.081h-0.007h-0.007c-0.138,0-0.287-0.027-0.446-0.081
	c-0.16-0.054-0.332-0.134-0.514-0.242c-0.182-0.107-0.338-0.206-0.466-0.295c-0.129-0.089-0.289-0.204-0.48-0.342
	c-0.191-0.139-0.318-0.231-0.38-0.275c-0.542-0.381-1.322-0.927-2.34-1.639s-1.629-1.14-1.833-1.283
	c-0.369-0.251-0.715-0.598-1.04-1.041c-0.324-0.443-0.489-0.851-0.493-1.223c0-0.47,0.125-0.859,0.374-1.168
	c0.249-0.309,0.6-0.466,1.053-0.47h13.146c0.387,0,0.72,0.141,1,0.423C61.233,10.223,61.375,10.561,61.379,10.955L61.379,10.955"/>
</svg>
