<?xml version="1.0" encoding="utf-8"?>
<!-- Generator: Adobe Illustrator 16.0.0, SVG Export Plug-In . SVG Version: 6.00 Build 0)  -->
<!DOCTYPE svg PUBLIC "-//W3C//DTD SVG 1.1//EN" "http://www.w3.org/Graphics/SVG/1.1/DTD/svg11.dtd">
<svg version="1.1" id="Layer_1" xmlns="http://www.w3.org/2000/svg" xmlns:xlink="http://www.w3.org/1999/xlink" x="0px" y="0px"
	 width="24px" height="24px" viewBox="0 0 24 24" enable-background="new 0 0 24 24" xml:space="preserve">
<rect width="24" height="24"/>
<path fill="#993D2E" d="M58.117,38.758c1.244,0,2.306,0.443,3.185,1.33c0.88,0.887,1.318,1.943,1.318,3.172v14.997
	c0,1.236-0.438,2.293-1.318,3.172c-0.879,0.88-1.94,1.322-3.185,1.33h-2.93v-9.294h3.104l0.467-3.627h-3.569v-2.309
	c0-0.583,0.121-1.022,0.361-1.317c0.241-0.296,0.719-0.438,1.436-0.432l1.902-0.023v-3.229c-0.654-0.094-1.58-0.141-2.777-0.141
	c-1.416,0-2.551,0.416-3.407,1.248c-0.854,0.832-1.279,2.01-1.271,3.534v2.67h-3.127v3.627h3.127v9.294h-8.309
	c-1.244,0-2.307-0.443-3.186-1.33s-1.317-1.942-1.317-3.172V43.26c0-1.236,0.438-2.293,1.317-3.172s1.941-1.322,3.186-1.33H58.117
	L58.117,38.758"/>
</svg>
