<?xml version="1.0" encoding="utf-8"?>
<!-- Generator: Adobe Illustrator 16.0.0, SVG Export Plug-In . SVG Version: 6.00 Build 0)  -->
<!DOCTYPE svg PUBLIC "-//W3C//DTD SVG 1.1//EN" "http://www.w3.org/Graphics/SVG/1.1/DTD/svg11.dtd">
<svg version="1.1" id="Layer_1" xmlns="http://www.w3.org/2000/svg" xmlns:xlink="http://www.w3.org/1999/xlink" x="0px" y="0px"
	 width="16px" height="20.21px" viewBox="-33.774 6.194 16 20.21" enable-background="new -33.774 6.194 16 20.21"
	 xml:space="preserve">
<rect x="41.903" y="25.742" width="16" height="20.21"/>
<path fill="#9FA19E" d="M-29.413,20.99v0.724c0,0.095-0.034,0.179-0.102,0.252s-0.155,0.109-0.263,0.109h-0.721
	c-0.102,0-0.187-0.036-0.254-0.109s-0.104-0.157-0.11-0.252V20.99c0-0.096,0.037-0.18,0.11-0.253
	c0.073-0.073,0.158-0.109,0.254-0.109h0.721c0.102,0,0.189,0.037,0.263,0.109C-29.441,20.81-29.408,20.894-29.413,20.99
	L-29.413,20.99 M-29.413,18.101v0.724c0,0.096-0.034,0.18-0.102,0.253c-0.068,0.073-0.155,0.109-0.263,0.109h-0.721
	c-0.102,0-0.187-0.037-0.254-0.109c-0.068-0.073-0.104-0.157-0.11-0.253v-0.724c0-0.095,0.037-0.18,0.11-0.252
	c0.073-0.073,0.158-0.109,0.254-0.109h0.721c0.102,0,0.189,0.036,0.263,0.109C-29.441,17.921-29.408,18.006-29.413,18.101
	L-29.413,18.101 M-26.503,18.101v0.724c0,0.096-0.037,0.18-0.11,0.253c-0.073,0.073-0.158,0.109-0.254,0.109h-0.721
	c-0.102,0-0.189-0.037-0.263-0.109c-0.074-0.073-0.107-0.157-0.102-0.253v-0.724c0-0.095,0.034-0.18,0.102-0.252
	c0.068-0.073,0.155-0.109,0.263-0.109h0.721c0.102,0,0.187,0.036,0.254,0.109C-26.546,17.921-26.509,18.006-26.503,18.101
	L-26.503,18.101 M-29.413,15.213v0.724c0,0.101-0.034,0.185-0.102,0.252s-0.155,0.104-0.263,0.11h-0.721
	c-0.102,0-0.187-0.037-0.254-0.11c-0.068-0.073-0.104-0.157-0.11-0.252v-0.724c0-0.096,0.037-0.18,0.11-0.252
	c0.073-0.073,0.158-0.107,0.254-0.102h0.721c0.102,0,0.189,0.034,0.263,0.102C-29.441,15.028-29.408,15.112-29.413,15.213
	L-29.413,15.213 M-20.684,20.99v0.724c0,0.095-0.037,0.179-0.11,0.252c-0.074,0.073-0.158,0.109-0.254,0.109h-0.73
	c-0.096,0-0.181-0.036-0.254-0.109c-0.073-0.073-0.11-0.157-0.11-0.252V20.99c0-0.096,0.037-0.18,0.11-0.253
	c0.074-0.073,0.159-0.109,0.254-0.109h0.73c0.096,0,0.181,0.037,0.254,0.109C-20.721,20.81-20.684,20.894-20.684,20.99
	L-20.684,20.99 M-23.594,18.101v0.724c0,0.096-0.037,0.18-0.11,0.253c-0.074,0.073-0.159,0.109-0.255,0.109h-0.729
	c-0.096,0-0.181-0.037-0.254-0.109c-0.074-0.073-0.107-0.157-0.102-0.253v-0.724c0-0.095,0.034-0.18,0.102-0.252
	c0.068-0.073,0.153-0.109,0.254-0.109h0.729c0.102,0,0.187,0.036,0.255,0.109C-23.636,17.921-23.599,18.006-23.594,18.101
	L-23.594,18.101 M-26.503,15.213v0.724c0,0.101-0.037,0.185-0.11,0.252c-0.073,0.067-0.158,0.104-0.254,0.11h-0.721
	c-0.102,0-0.189-0.037-0.263-0.11c-0.074-0.073-0.107-0.157-0.102-0.252v-0.724c0-0.096,0.034-0.18,0.102-0.252
	c0.068-0.073,0.155-0.107,0.263-0.102h0.721c0.102,0,0.187,0.034,0.254,0.102S-26.509,15.112-26.503,15.213L-26.503,15.213
	 M-29.413,12.333v0.716c0,0.101-0.034,0.185-0.102,0.252s-0.155,0.104-0.263,0.109h-0.721c-0.102,0-0.187-0.036-0.254-0.109
	c-0.068-0.073-0.104-0.157-0.11-0.252v-0.716c0-0.101,0.037-0.188,0.11-0.261c0.073-0.073,0.158-0.106,0.254-0.101h0.721
	c0.102,0,0.189,0.034,0.263,0.101C-29.441,12.139-29.408,12.226-29.413,12.333L-29.413,12.333 M-20.684,18.101v0.724
	c0,0.096-0.037,0.18-0.11,0.253c-0.074,0.073-0.158,0.109-0.254,0.109h-0.73c-0.096,0-0.181-0.037-0.254-0.109
	c-0.073-0.073-0.11-0.157-0.11-0.253v-0.724c0-0.095,0.037-0.18,0.11-0.252c0.074-0.073,0.159-0.109,0.254-0.109h0.73
	c0.096,0,0.181,0.036,0.254,0.109C-20.721,17.921-20.684,18.006-20.684,18.101L-20.684,18.101 M-23.594,15.213v0.724
	c0,0.101-0.037,0.185-0.11,0.252c-0.074,0.067-0.159,0.104-0.255,0.11h-0.729c-0.096,0-0.181-0.037-0.254-0.11
	c-0.074-0.073-0.107-0.157-0.102-0.252v-0.724c0-0.096,0.034-0.18,0.102-0.252c0.068-0.073,0.153-0.107,0.254-0.102h0.729
	c0.102,0,0.187,0.034,0.255,0.102S-23.599,15.112-23.594,15.213L-23.594,15.213 M-26.503,12.333v0.716
	c0,0.101-0.037,0.185-0.11,0.252c-0.073,0.067-0.158,0.104-0.254,0.109h-0.721c-0.102,0-0.189-0.036-0.263-0.109
	c-0.074-0.073-0.107-0.157-0.102-0.252v-0.716c0-0.101,0.034-0.188,0.102-0.261c0.068-0.073,0.155-0.106,0.263-0.101h0.721
	c0.102,0,0.187,0.034,0.254,0.101S-26.509,12.226-26.503,12.333L-26.503,12.333 M-29.413,9.445v0.715
	c0,0.101-0.034,0.188-0.102,0.261s-0.155,0.106-0.263,0.101h-0.721c-0.102,0-0.187-0.034-0.254-0.101s-0.104-0.154-0.11-0.261V9.445
	c0-0.102,0.037-0.186,0.11-0.253c0.073-0.067,0.158-0.104,0.254-0.109h0.721c0.102,0,0.189,0.037,0.263,0.109
	C-29.441,9.265-29.408,9.349-29.413,9.445L-29.413,9.445 M-20.684,15.213v0.724c0,0.101-0.037,0.185-0.11,0.252
	c-0.074,0.067-0.158,0.104-0.254,0.11h-0.73c-0.096,0-0.181-0.037-0.254-0.11c-0.073-0.073-0.11-0.157-0.11-0.252v-0.724
	c0-0.096,0.037-0.18,0.11-0.252c0.074-0.073,0.159-0.107,0.254-0.102h0.73c0.096,0,0.181,0.034,0.254,0.102
	C-20.721,15.028-20.684,15.112-20.684,15.213L-20.684,15.213 M-23.594,12.333v0.716c0,0.101-0.037,0.185-0.11,0.252
	c-0.074,0.067-0.159,0.104-0.255,0.109h-0.729c-0.096,0-0.181-0.036-0.254-0.109c-0.074-0.073-0.107-0.157-0.102-0.252v-0.716
	c0-0.101,0.034-0.188,0.102-0.261c0.068-0.073,0.153-0.106,0.254-0.101h0.729c0.102,0,0.187,0.034,0.255,0.101
	S-23.599,12.226-23.594,12.333L-23.594,12.333 M-26.503,9.445v0.715c0,0.101-0.037,0.188-0.11,0.261
	c-0.073,0.073-0.158,0.106-0.254,0.101h-0.721c-0.102,0-0.189-0.034-0.263-0.101c-0.074-0.067-0.107-0.154-0.102-0.261V9.445
	c0-0.102,0.034-0.186,0.102-0.253s0.155-0.104,0.263-0.109h0.721c0.102,0,0.187,0.037,0.254,0.109
	C-26.546,9.265-26.509,9.349-26.503,9.445L-26.503,9.445 M-20.684,12.333v0.716c0,0.101-0.037,0.185-0.11,0.252
	c-0.074,0.067-0.158,0.104-0.254,0.109h-0.73c-0.096,0-0.181-0.036-0.254-0.109c-0.073-0.073-0.11-0.157-0.11-0.252v-0.716
	c0-0.101,0.037-0.188,0.11-0.261c0.074-0.073,0.159-0.106,0.254-0.101h0.73c0.096,0,0.181,0.034,0.254,0.101
	C-20.721,12.139-20.684,12.226-20.684,12.333L-20.684,12.333 M-23.594,9.445v0.715c0,0.101-0.037,0.188-0.11,0.261
	c-0.074,0.073-0.159,0.106-0.255,0.101h-0.729c-0.096,0-0.181-0.034-0.254-0.101s-0.107-0.154-0.102-0.261V9.445
	c0-0.102,0.034-0.186,0.102-0.253s0.153-0.104,0.254-0.109h0.729c0.102,0,0.187,0.037,0.255,0.109
	C-23.636,9.265-23.599,9.349-23.594,9.445L-23.594,9.445 M-20.684,9.445v0.715c0,0.101-0.037,0.188-0.11,0.261
	c-0.074,0.073-0.158,0.106-0.254,0.101h-0.73c-0.096,0-0.181-0.034-0.254-0.101c-0.073-0.067-0.11-0.154-0.11-0.261V9.445
	c0-0.102,0.037-0.186,0.11-0.253c0.074-0.067,0.159-0.104,0.254-0.109h0.73c0.096,0,0.181,0.037,0.254,0.109
	C-20.721,9.265-20.684,9.349-20.684,9.445L-20.684,9.445 M-23.594,24.964h4.361V7.634h-13.09v17.33h4.369v-2.526
	c0-0.101,0.034-0.188,0.102-0.261c0.068-0.073,0.155-0.106,0.263-0.101h3.631c0.102,0,0.187,0.034,0.255,0.101
	s0.104,0.154,0.11,0.261V24.964L-23.594,24.964 M-17.774,6.918V25.68c0,0.197-0.074,0.368-0.221,0.514s-0.316,0.216-0.509,0.21
	h-14.541c-0.198,0-0.371-0.07-0.518-0.21c-0.147-0.14-0.218-0.312-0.212-0.514V6.918c0-0.197,0.07-0.368,0.212-0.514
	s0.314-0.216,0.518-0.21h14.541c0.198,0,0.368,0.07,0.509,0.21C-17.853,6.545-17.78,6.716-17.774,6.918L-17.774,6.918"/>
</svg>
