<?xml version="1.0" encoding="utf-8"?>
<!-- Generator: Adobe Illustrator 16.0.0, SVG Export Plug-In . SVG Version: 6.00 Build 0)  -->
<!DOCTYPE svg PUBLIC "-//W3C//DTD SVG 1.1//EN" "http://www.w3.org/Graphics/SVG/1.1/DTD/svg11.dtd">
<svg version="1.1" id="Layer_1" xmlns="http://www.w3.org/2000/svg" xmlns:xlink="http://www.w3.org/1999/xlink" x="0px" y="0px"
	 width="16px" height="16px" viewBox="-24.641 11.887 16 16" enable-background="new -24.641 11.887 16 16" xml:space="preserve">
<path fill="#FFFFFF" d="M-11.644,11.887c0.83,0,1.538,0.295,2.124,0.886s0.879,1.296,0.879,2.115v9.998
	c0,0.824-0.293,1.529-0.879,2.115c-0.586,0.585-1.294,0.881-2.124,0.886h-1.952V21.69h2.069l0.311-2.418h-2.38v-1.539
	c0-0.389,0.08-0.682,0.241-0.879c0.161-0.197,0.48-0.292,0.957-0.288l1.268-0.016v-2.153c-0.436-0.062-1.052-0.093-1.851-0.093
	c-0.944,0-1.701,0.277-2.271,0.832c-0.571,0.554-0.854,1.34-0.848,2.355v1.78h-2.084v2.418h2.084v6.196h-5.538
	c-0.83,0-1.538-0.295-2.124-0.886s-0.879-1.296-0.879-2.115v-9.998c0-0.824,0.293-1.529,0.879-2.115
	c0.586-0.585,1.294-0.881,2.124-0.886H-11.644L-11.644,11.887"/>
</svg>
