<?xml version="1.0" encoding="utf-8"?>
<!-- Generator: Adobe Illustrator 16.0.0, SVG Export Plug-In . SVG Version: 6.00 Build 0)  -->
<!DOCTYPE svg PUBLIC "-//W3C//DTD SVG 1.1//EN" "http://www.w3.org/Graphics/SVG/1.1/DTD/svg11.dtd">
<svg version="1.1" id="Layer_1" xmlns="http://www.w3.org/2000/svg" xmlns:xlink="http://www.w3.org/1999/xlink" x="0px" y="0px"
	 width="16px" height="16px" viewBox="3.104 3.281 16 16" enable-background="new 3.104 3.281 16 16" xml:space="preserve">
<rect x="21.815" y="23.766" width="16" height="16"/>
<path fill="#9FA19E" d="M19.104,15.922c0,0.204-0.04,0.469-0.119,0.797s-0.159,0.588-0.238,0.78
	c-0.158,0.379-0.619,0.781-1.383,1.205c-0.712,0.385-1.417,0.577-2.112,0.577c-0.204,0-0.404-0.014-0.603-0.042
	c-0.198-0.028-0.416-0.074-0.653-0.136c-0.238-0.062-0.416-0.119-0.535-0.169c-0.119-0.051-0.331-0.127-0.636-0.229
	c-0.305-0.102-0.489-0.169-0.551-0.203c-0.741-0.266-1.406-0.58-1.994-0.942c-0.967-0.6-1.968-1.417-3.003-2.452
	s-1.849-2.036-2.443-3.003c-0.368-0.583-0.684-1.247-0.95-1.994c-0.022-0.068-0.09-0.251-0.204-0.551
	c-0.113-0.3-0.189-0.512-0.229-0.636S3.355,8.62,3.282,8.388c-0.074-0.232-0.119-0.45-0.136-0.653
	C3.129,7.531,3.115,7.331,3.104,7.133c0-0.696,0.192-1.4,0.577-2.112c0.424-0.764,0.826-1.225,1.205-1.383
	C5.077,3.553,5.337,3.474,5.666,3.4c0.328-0.073,0.594-0.113,0.797-0.119c0.107,0,0.189,0.011,0.246,0.034
	C6.845,3.36,7.045,3.649,7.312,4.181C7.391,4.328,7.504,4.534,7.651,4.8s0.28,0.506,0.398,0.721s0.235,0.416,0.348,0.602
	c0.022,0.034,0.09,0.13,0.204,0.289C8.714,6.57,8.793,6.703,8.838,6.811s0.074,0.215,0.085,0.322c0,0.153-0.107,0.342-0.322,0.568
	c-0.215,0.226-0.45,0.436-0.705,0.628C7.642,8.521,7.405,8.722,7.184,8.931C6.963,9.141,6.856,9.316,6.862,9.457
	c0,0.068,0.02,0.153,0.059,0.255c0.04,0.102,0.071,0.178,0.094,0.229c0.022,0.051,0.076,0.141,0.161,0.271
	c0.084,0.13,0.13,0.204,0.136,0.221c0.571,1.035,1.23,1.925,1.977,2.672c0.747,0.746,1.634,1.405,2.664,1.977
	c0.017,0.005,0.091,0.048,0.221,0.127c0.13,0.079,0.221,0.133,0.271,0.161s0.127,0.06,0.229,0.094
	c0.102,0.034,0.187,0.054,0.254,0.059c0.142,0,0.317-0.107,0.526-0.322c0.209-0.215,0.41-0.45,0.602-0.704s0.402-0.489,0.628-0.704
	s0.416-0.325,0.568-0.331c0.102,0,0.209,0.028,0.322,0.085c0.113,0.057,0.246,0.139,0.399,0.246s0.249,0.172,0.289,0.195
	c0.187,0.113,0.39,0.232,0.611,0.356c0.22,0.125,0.461,0.254,0.721,0.39c0.26,0.136,0.464,0.252,0.611,0.348
	c0.532,0.26,0.82,0.461,0.865,0.602C19.092,15.735,19.104,15.814,19.104,15.922L19.104,15.922"/>
</svg>
