<?xml version="1.0" encoding="utf-8"?>
<!-- Generator: Adobe Illustrator 16.0.0, SVG Export Plug-In . SVG Version: 6.00 Build 0)  -->
<!DOCTYPE svg PUBLIC "-//W3C//DTD SVG 1.1//EN" "http://www.w3.org/Graphics/SVG/1.1/DTD/svg11.dtd">
<svg version="1.1" id="Layer_1" xmlns="http://www.w3.org/2000/svg" xmlns:xlink="http://www.w3.org/1999/xlink" x="0px" y="0px"
	 width="16px" height="16px" viewBox="-26.714 6.901 16 16" enable-background="new -26.714 6.901 16 16" xml:space="preserve">
<path fill="#FFFFFF" d="M-13.382,11.923c-0.389,0.171-0.809,0.288-1.26,0.35c0.472-0.274,0.796-0.679,0.973-1.213
	c-0.451,0.265-0.918,0.441-1.4,0.529c-0.42-0.456-0.952-0.684-1.594-0.684c-0.602,0-1.115,0.212-1.541,0.638
	c-0.425,0.425-0.64,0.94-0.646,1.547c0,0.202,0.018,0.368,0.055,0.498c-0.897-0.046-1.737-0.272-2.521-0.676
	c-0.783-0.404-1.449-0.941-1.999-1.609c-0.202,0.347-0.303,0.715-0.303,1.104c0,0.788,0.316,1.394,0.949,1.819
	c-0.327-0.005-0.674-0.096-1.042-0.272v0.023c0,0.519,0.174,0.982,0.521,1.392c0.348,0.41,0.773,0.661,1.276,0.754
	c-0.197,0.052-0.374,0.078-0.529,0.078c-0.088,0-0.223-0.013-0.405-0.039c0.146,0.436,0.405,0.796,0.778,1.081
	c0.374,0.285,0.793,0.433,1.26,0.443c-0.804,0.622-1.708,0.933-2.715,0.933c-0.181,0-0.355-0.01-0.521-0.031
	c1.027,0.653,2.144,0.979,3.353,0.979c0.778,0,1.506-0.124,2.186-0.373c0.679-0.249,1.263-0.578,1.75-0.987
	c0.488-0.41,0.908-0.884,1.26-1.423s0.612-1.101,0.778-1.687c0.166-0.585,0.251-1.171,0.257-1.757c0-0.125-0.003-0.218-0.008-0.28
	C-14.035,12.748-13.672,12.369-13.382,11.923L-13.382,11.923 M-10.714,9.902V19.9c0,0.824-0.293,1.529-0.879,2.115
	c-0.586,0.585-1.294,0.881-2.124,0.886h-9.995c-0.83,0-1.538-0.295-2.124-0.886s-0.879-1.296-0.879-2.115V9.902
	c0-0.824,0.293-1.529,0.879-2.115c0.586-0.585,1.294-0.881,2.124-0.886h9.995c0.83,0,1.538,0.295,2.124,0.886
	S-10.714,9.083-10.714,9.902L-10.714,9.902"/>
</svg>
