<?xml version="1.0" encoding="utf-8"?>
<!-- Generator: Adobe Illustrator 16.0.0, SVG Export Plug-In . SVG Version: 6.00 Build 0)  -->
<!DOCTYPE svg PUBLIC "-//W3C//DTD SVG 1.1//EN" "http://www.w3.org/Graphics/SVG/1.1/DTD/svg11.dtd">
<svg version="1.1" id="Layer_1" xmlns="http://www.w3.org/2000/svg" xmlns:xlink="http://www.w3.org/1999/xlink" x="0px" y="0px"
	 width="24px" height="24px" viewBox="0 0 24 24" enable-background="new 0 0 24 24" xml:space="preserve">
<rect width="24" height="24"/>
<path fill="#993D2E" d="M61.059,64.064h3.617V53.219h-3.617V64.064L61.059,64.064 M64.909,49.884
	c-0.009-0.544-0.194-0.995-0.56-1.353c-0.367-0.357-0.853-0.532-1.459-0.524c-0.605,0.009-1.097,0.183-1.47,0.524
	s-0.563,0.793-0.571,1.353c0,0.529,0.184,0.972,0.549,1.33c0.365,0.357,0.848,0.536,1.446,0.536h0.013
	c0.613,0,1.111-0.179,1.492-0.536C64.73,50.855,64.917,50.413,64.909,49.884L64.909,49.884 M74.044,64.064h3.617v-6.217
	c0-1.608-0.381-2.822-1.144-3.638s-1.77-1.229-3.021-1.235c-1.416,0-2.501,0.609-3.255,1.83h0.022v-1.586h-3.604
	c0.03,0.692,0.03,4.307,0,10.846h3.604V58c0-0.396,0.039-0.688,0.117-0.875c0.155-0.365,0.389-0.676,0.7-0.934
	c0.312-0.256,0.696-0.381,1.155-0.373c1.205,0,1.809,0.816,1.809,2.449L74.044,64.064L74.044,64.064 M81.359,48.473V63.47
	c0,1.236-0.438,2.293-1.317,3.173c-0.879,0.879-1.94,1.321-3.185,1.33H61.863c-1.244,0-2.307-0.443-3.186-1.33
	c-0.879-0.888-1.318-1.943-1.318-3.173V48.473c0-1.235,0.439-2.293,1.318-3.172s1.941-1.322,3.186-1.33h14.992
	c1.244,0,2.307,0.443,3.186,1.33S81.359,47.244,81.359,48.473L81.359,48.473"/>
</svg>
