<?xml version="1.0" encoding="utf-8"?>
<!-- Generator: Adobe Illustrator 16.0.0, SVG Export Plug-In . SVG Version: 6.00 Build 0)  -->
<!DOCTYPE svg PUBLIC "-//W3C//DTD SVG 1.1//EN" "http://www.w3.org/Graphics/SVG/1.1/DTD/svg11.dtd">
<svg version="1.1" id="Layer_1" xmlns="http://www.w3.org/2000/svg" xmlns:xlink="http://www.w3.org/1999/xlink" x="0px" y="0px"
	 width="24px" height="24px" viewBox="-48.446 0 24 24" enable-background="new -48.446 0 24 24" xml:space="preserve">
<path fill="#D06F6E" d="M-27.165,20.28V10.157h-2.112c0.211,0.653,0.315,1.334,0.315,2.041c0,1.314-0.334,2.527-1.003,3.639
	c-0.669,1.112-1.575,1.986-2.719,2.624s-2.392,0.964-3.745,0.979c-2.054,0-3.808-0.707-5.263-2.122
	c-1.454-1.415-2.186-3.122-2.193-5.12c0-0.707,0.105-1.388,0.315-2.041h-2.205V20.28c0,0.272,0.089,0.497,0.269,0.677
	c0.179,0.179,0.408,0.271,0.688,0.279h16.696c0.265,0,0.49-0.093,0.677-0.279C-27.259,20.769-27.165,20.545-27.165,20.28
	L-27.165,20.28 M-31.598,11.954c0-1.291-0.471-2.392-1.412-3.301c-0.94-0.909-2.08-1.364-3.418-1.364
	c-1.322,0-2.454,0.455-3.396,1.364s-1.416,2.01-1.424,3.301c-0.008,1.29,0.467,2.391,1.424,3.3s2.089,1.364,3.396,1.364
	c1.33,0,2.47-0.455,3.418-1.364C-32.061,14.344-31.591,13.244-31.598,11.954L-31.598,11.954 M-27.165,6.333V3.756
	c0-0.296-0.105-0.549-0.315-0.759s-0.463-0.318-0.758-0.326h-2.719c-0.304,0-0.56,0.108-0.77,0.326
	c-0.211,0.218-0.315,0.471-0.315,0.759v2.577c0,0.303,0.104,0.556,0.315,0.758c0.21,0.202,0.466,0.307,0.77,0.314h2.719
	c0.303,0,0.556-0.104,0.758-0.314S-27.173,6.628-27.165,6.333L-27.165,6.333 M-24.446,3.079v17.843c0,0.839-0.304,1.563-0.91,2.169
	S-26.686,24-27.526,24h-17.84c-0.848,0-1.571-0.303-2.17-0.909c-0.6-0.606-0.902-1.33-0.91-2.169V3.079
	c0-0.84,0.303-1.563,0.91-2.169c0.606-0.606,1.33-0.91,2.17-0.91h17.84c0.848,0,1.571,0.304,2.17,0.91S-24.454,2.239-24.446,3.079
	L-24.446,3.079"/>
</svg>
