<?xml version="1.0" encoding="utf-8"?>
<!-- Generator: Adobe Illustrator 16.0.0, SVG Export Plug-In . SVG Version: 6.00 Build 0)  -->
<!DOCTYPE svg PUBLIC "-//W3C//DTD SVG 1.1//EN" "http://www.w3.org/Graphics/SVG/1.1/DTD/svg11.dtd">
<svg version="1.1" id="Layer_1" xmlns="http://www.w3.org/2000/svg" xmlns:xlink="http://www.w3.org/1999/xlink" x="0px" y="0px"
	 width="10.667px" height="16px" viewBox="31.608 21.854 10.667 16" enable-background="new 31.608 21.854 10.667 16"
	 xml:space="preserve">
<rect width="10.667" height="16"/>
<path fill="#9FA19E" d="M39.614,27.188c0-0.736-0.262-1.363-0.786-1.881c-0.524-0.518-1.152-0.78-1.883-0.785
	c-0.731-0.005-1.362,0.257-1.891,0.785c-0.529,0.529-0.789,1.156-0.778,1.881c0.011,0.726,0.27,1.355,0.778,1.89
	c0.508,0.534,1.138,0.793,1.891,0.777c0.752-0.016,1.379-0.275,1.883-0.777C39.332,28.574,39.593,27.944,39.614,27.188
	L39.614,27.188 M42.275,27.188c0,0.757-0.114,1.379-0.342,1.866l-3.789,8.054c-0.114,0.233-0.28,0.415-0.498,0.544
	c-0.218,0.129-0.452,0.197-0.7,0.202c-0.249,0.005-0.485-0.062-0.708-0.202c-0.223-0.14-0.384-0.322-0.482-0.544l-3.805-8.054
	c-0.228-0.487-0.342-1.109-0.342-1.866c0-1.472,0.521-2.729,1.564-3.771c1.042-1.042,2.3-1.563,3.773-1.563
	c1.473,0,2.73,0.521,3.773,1.563C41.762,24.459,42.28,25.716,42.275,27.188L42.275,27.188"/>
</svg>
