<?xml version="1.0" encoding="utf-8"?>
<!-- Generator: Adobe Illustrator 16.0.0, SVG Export Plug-In . SVG Version: 6.00 Build 0)  -->
<!DOCTYPE svg PUBLIC "-//W3C//DTD SVG 1.1//EN" "http://www.w3.org/Graphics/SVG/1.1/DTD/svg11.dtd">
<svg version="1.1" id="Layer_1" xmlns="http://www.w3.org/2000/svg" xmlns:xlink="http://www.w3.org/1999/xlink" x="0px" y="0px"
	 width="16px" height="14.667px" viewBox="21.758 20.689 16 14.667" enable-background="new 21.758 20.689 16 14.667"
	 xml:space="preserve">
<rect width="16" height="14.667"/>
<path fill="#9FA19E" d="M26.699,28.023c-0.9,0.029-1.637,0.377-2.209,1.045h-1.114c-0.457,0-0.84-0.11-1.151-0.33
	c-0.311-0.22-0.467-0.544-0.467-0.972c0-1.923,0.344-2.885,1.033-2.885c0.033,0,0.153,0.057,0.361,0.171
	c0.208,0.114,0.479,0.23,0.815,0.348c0.336,0.118,0.666,0.177,0.989,0.177c0.374,0,0.743-0.063,1.108-0.189
	c-0.025,0.2-0.038,0.379-0.038,0.538C26.027,26.685,26.251,27.383,26.699,28.023L26.699,28.023 M35.629,33.236
	c0,0.656-0.203,1.173-0.61,1.552c-0.407,0.379-0.946,0.568-1.618,0.568h-7.287c-0.672,0-1.209-0.189-1.612-0.568
	c-0.403-0.378-0.606-0.896-0.61-1.552c0-0.29,0.01-0.571,0.031-0.843c0.021-0.273,0.058-0.571,0.112-0.893
	c0.054-0.322,0.128-0.619,0.224-0.892c0.095-0.273,0.213-0.538,0.354-0.794s0.313-0.479,0.517-0.666s0.442-0.334,0.716-0.44
	c0.273-0.106,0.583-0.159,0.927-0.159c0.058,0,0.178,0.059,0.361,0.177s0.386,0.249,0.61,0.391s0.521,0.273,0.89,0.391
	c0.369,0.118,0.745,0.177,1.126,0.177c0.382,0,0.757-0.059,1.126-0.177s0.666-0.249,0.89-0.391s0.427-0.273,0.61-0.391
	s0.301-0.177,0.354-0.177c0.34,0,0.651,0.053,0.934,0.159s0.519,0.252,0.709,0.44s0.363,0.409,0.517,0.666s0.274,0.521,0.361,0.794
	c0.087,0.273,0.16,0.57,0.218,0.892s0.098,0.619,0.118,0.893C35.619,32.665,35.629,32.946,35.629,33.236L35.629,33.236
	 M27.091,22.786c0,0.578-0.208,1.071-0.623,1.479c-0.415,0.408-0.919,0.613-1.512,0.617c-0.593,0.004-1.095-0.202-1.506-0.617
	s-0.621-0.908-0.629-1.479s0.202-1.065,0.629-1.485c0.427-0.42,0.929-0.624,1.506-0.611s1.081,0.216,1.512,0.611
	C26.9,21.696,27.108,22.191,27.091,22.786L27.091,22.786 M32.959,25.927c0,0.868-0.313,1.609-0.939,2.225s-1.379,0.921-2.259,0.917
	c-0.879-0.004-1.634-0.31-2.265-0.917c-0.63-0.607-0.944-1.349-0.939-2.225c0.004-0.875,0.317-1.615,0.939-2.218
	c0.623-0.603,1.377-0.911,2.265-0.923c0.888-0.012,1.641,0.295,2.259,0.923C32.638,24.336,32.951,25.076,32.959,25.927
	L32.959,25.927 M37.758,27.767c0,0.428-0.156,0.751-0.467,0.972c-0.311,0.22-0.693,0.33-1.145,0.33h-1.12
	c-0.573-0.668-1.309-1.016-2.209-1.045c0.452-0.64,0.679-1.338,0.679-2.096c0-0.159-0.015-0.338-0.044-0.538
	c0.365,0.126,0.734,0.189,1.108,0.189c0.328,0,0.66-0.059,0.996-0.177s0.606-0.234,0.809-0.348c0.203-0.114,0.324-0.171,0.361-0.171
	C37.414,24.882,37.758,25.844,37.758,27.767L37.758,27.767 M36.694,22.786c0,0.578-0.208,1.071-0.623,1.479
	c-0.415,0.408-0.919,0.613-1.512,0.617c-0.593,0.004-1.095-0.202-1.506-0.617c-0.411-0.416-0.621-0.908-0.629-1.479
	s0.201-1.065,0.629-1.485c0.427-0.42,0.929-0.624,1.506-0.611s1.081,0.216,1.512,0.611C36.503,21.696,36.71,22.191,36.694,22.786
	L36.694,22.786"/>
</svg>
