<?xml version="1.0" encoding="utf-8"?>
<!-- Generator: Adobe Illustrator 16.0.0, SVG Export Plug-In . SVG Version: 6.00 Build 0)  -->
<!DOCTYPE svg PUBLIC "-//W3C//DTD SVG 1.1//EN" "http://www.w3.org/Graphics/SVG/1.1/DTD/svg11.dtd">
<svg version="1.1" id="Layer_1" xmlns="http://www.w3.org/2000/svg" xmlns:xlink="http://www.w3.org/1999/xlink" x="0px" y="0px"
	 width="16px" height="16px" viewBox="-30.465 12.679 16 16" enable-background="new -30.465 12.679 16 16" xml:space="preserve">
<path fill="#FFFFFF" d="M-16.278,26.199V19.45h-1.408c0.14,0.436,0.21,0.889,0.21,1.361c0,0.876-0.223,1.684-0.669,2.425
	s-1.05,1.324-1.813,1.75c-0.762,0.425-1.594,0.643-2.497,0.653c-1.369,0-2.539-0.472-3.508-1.415
	c-0.969-0.943-1.457-2.081-1.462-3.413c0-0.472,0.07-0.925,0.21-1.361h-1.47v6.749c0,0.181,0.06,0.332,0.179,0.451
	c0.12,0.119,0.272,0.182,0.459,0.187h11.131c0.176,0,0.327-0.062,0.451-0.187C-16.34,26.525-16.278,26.375-16.278,26.199
	L-16.278,26.199 M-19.233,20.647c0-0.86-0.314-1.594-0.941-2.2s-1.387-0.91-2.279-0.91c-0.882,0-1.636,0.303-2.264,0.91
	s-0.944,1.34-0.949,2.2c-0.005,0.86,0.311,1.594,0.949,2.2c0.638,0.606,1.393,0.91,2.264,0.91c0.887,0,1.646-0.303,2.279-0.91
	C-19.542,22.241-19.228,21.508-19.233,20.647L-19.233,20.647 M-16.278,16.9v-1.718c0-0.197-0.07-0.365-0.21-0.505
	s-0.309-0.212-0.505-0.218h-1.813c-0.202,0-0.374,0.073-0.513,0.218c-0.14,0.145-0.21,0.313-0.21,0.505V16.9
	c0,0.202,0.07,0.371,0.21,0.505c0.14,0.135,0.311,0.205,0.513,0.21h1.813c0.202,0,0.371-0.07,0.505-0.21
	C-16.353,17.266-16.283,17.097-16.278,16.9L-16.278,16.9 M-14.465,14.731v11.895c0,0.56-0.202,1.042-0.607,1.446
	c-0.404,0.404-0.887,0.606-1.447,0.606h-11.893c-0.565,0-1.048-0.202-1.447-0.606c-0.399-0.404-0.602-0.886-0.607-1.446V14.731
	c0-0.56,0.202-1.042,0.607-1.446c0.404-0.404,0.887-0.606,1.447-0.606h11.893c0.565,0,1.048,0.202,1.447,0.606
	C-14.673,13.689-14.471,14.171-14.465,14.731L-14.465,14.731"/>
</svg>
