<?xml version="1.0" encoding="utf-8"?>
<!-- Generator: Adobe Illustrator 16.0.0, SVG Export Plug-In . SVG Version: 6.00 Build 0)  -->
<!DOCTYPE svg PUBLIC "-//W3C//DTD SVG 1.1//EN" "http://www.w3.org/Graphics/SVG/1.1/DTD/svg11.dtd">
<svg version="1.1" id="Layer_1" xmlns="http://www.w3.org/2000/svg" xmlns:xlink="http://www.w3.org/1999/xlink" x="0px" y="0px"
	 width="16px" height="16px" viewBox="-27.28 4.122 16 16" enable-background="new -27.28 4.122 16 16" xml:space="preserve">
<path fill="#FFFFFF" d="M-24.814,17.518h2.411v-7.23h-2.411V17.518L-24.814,17.518 M-22.248,8.064
	c-0.005-0.363-0.13-0.664-0.374-0.902c-0.244-0.239-0.568-0.355-0.972-0.35c-0.405,0.005-0.731,0.122-0.98,0.35
	c-0.249,0.228-0.376,0.528-0.381,0.902c0,0.352,0.122,0.648,0.366,0.886s0.565,0.357,0.964,0.357h0.008
	c0.41,0,0.742-0.119,0.996-0.357S-22.243,8.416-22.248,8.064L-22.248,8.064 M-16.157,17.518h2.411v-4.144
	c0-1.073-0.254-1.882-0.762-2.426c-0.508-0.544-1.18-0.819-2.015-0.824c-0.944,0-1.667,0.407-2.17,1.221h0.016v-1.058h-2.404
	c0.021,0.461,0.021,2.872,0,7.23h2.404v-4.043c0-0.264,0.026-0.458,0.078-0.583c0.104-0.244,0.259-0.451,0.467-0.622
	c0.207-0.171,0.464-0.254,0.77-0.249c0.804,0,1.206,0.544,1.206,1.633V17.518L-16.157,17.518 M-11.28,7.123v9.998
	c0,0.824-0.293,1.529-0.879,2.115c-0.586,0.585-1.294,0.881-2.124,0.886h-9.995c-0.83,0-1.538-0.295-2.124-0.886
	s-0.879-1.296-0.879-2.115V7.123c0-0.824,0.293-1.529,0.879-2.115c0.586-0.585,1.294-0.881,2.124-0.886h9.995
	c0.83,0,1.538,0.295,2.124,0.886S-11.28,6.304-11.28,7.123L-11.28,7.123"/>
</svg>
