<?xml version="1.0" encoding="utf-8"?>
<!-- Generator: Adobe Illustrator 16.0.0, SVG Export Plug-In . SVG Version: 6.00 Build 0)  -->
<!DOCTYPE svg PUBLIC "-//W3C//DTD SVG 1.1//EN" "http://www.w3.org/Graphics/SVG/1.1/DTD/svg11.dtd">
<svg version="1.1" id="Layer_1" xmlns="http://www.w3.org/2000/svg" xmlns:xlink="http://www.w3.org/1999/xlink" x="0px" y="0px"
	 width="24px" height="24px" viewBox="57.36 43.971 24 24" enable-background="new 57.36 43.971 24 24" xml:space="preserve">
<rect width="24" height="24"/>
<path fill="#D06F6E" d="M61.059,64.064h3.617V53.219h-3.617V64.064L61.059,64.064 M64.909,49.884
	c-0.008-0.544-0.194-0.995-0.56-1.353c-0.366-0.357-0.852-0.532-1.458-0.524c-0.606,0.008-1.097,0.183-1.47,0.524
	c-0.373,0.342-0.563,0.793-0.571,1.353c0,0.529,0.183,0.972,0.548,1.33c0.365,0.357,0.848,0.536,1.447,0.536h0.012
	c0.614,0,1.112-0.179,1.493-0.536C64.73,50.855,64.917,50.413,64.909,49.884L64.909,49.884 M74.044,64.064h3.617v-6.216
	c0-1.609-0.381-2.822-1.143-3.638c-0.763-0.816-1.77-1.229-3.022-1.236c-1.416,0-2.501,0.61-3.255,1.831h0.023v-1.586h-3.605
	c0.031,0.692,0.031,4.307,0,10.845h3.605V58c0-0.396,0.039-0.688,0.117-0.875c0.155-0.365,0.389-0.676,0.7-0.933
	c0.312-0.257,0.696-0.381,1.155-0.373c1.206,0,1.809,0.816,1.809,2.449V64.064L74.044,64.064 M81.36,48.473V63.47
	c0,1.236-0.439,2.293-1.318,3.172s-1.941,1.322-3.185,1.33H61.863c-1.244,0-2.306-0.443-3.185-1.33s-1.318-1.943-1.318-3.172V48.473
	c0-1.236,0.439-2.293,1.318-3.172s1.941-1.322,3.185-1.33h14.993c1.244,0,2.306,0.443,3.185,1.33S81.36,47.244,81.36,48.473
	L81.36,48.473"/>
</svg>
