<?xml version="1.0" encoding="utf-8"?>
<!-- Generator: Adobe Illustrator 16.0.0, SVG Export Plug-In . SVG Version: 6.00 Build 0)  -->
<!DOCTYPE svg PUBLIC "-//W3C//DTD SVG 1.1//EN" "http://www.w3.org/Graphics/SVG/1.1/DTD/svg11.dtd">
<svg version="1.1" id="Layer_1" xmlns="http://www.w3.org/2000/svg" xmlns:xlink="http://www.w3.org/1999/xlink" x="0px" y="0px"
	 width="24px" height="24px" viewBox="38.621 38.758 24 24" enable-background="new 38.621 38.758 24 24" xml:space="preserve">
<rect width="24" height="24"/>
<path fill="#D06F6E" d="M58.117,38.758c1.244,0,2.306,0.443,3.185,1.33s1.318,1.943,1.318,3.172v14.997
	c0,1.236-0.439,2.293-1.318,3.172s-1.941,1.322-3.185,1.33h-2.929v-9.294h3.104l0.467-3.627h-3.57v-2.309
	c0-0.583,0.121-1.022,0.362-1.317c0.241-0.296,0.719-0.439,1.435-0.432l1.902-0.023v-3.23c-0.653-0.093-1.579-0.14-2.777-0.14
	c-1.416,0-2.551,0.416-3.407,1.248c-0.855,0.832-1.279,2.01-1.271,3.534v2.67h-3.127v3.627h3.127v9.294h-8.308
	c-1.244,0-2.306-0.443-3.185-1.33s-1.318-1.943-1.318-3.172V43.26c0-1.236,0.439-2.293,1.318-3.172s1.941-1.322,3.185-1.33H58.117
	L58.117,38.758"/>
</svg>
