<svg name="tmplsvg-plain-svg" version="1.1" width="" height="" x="0" y="0" filter="none">
  <defs><filter id="fe_dbeb8ed0" filterUnits="userSpaceOnUse"></filter></defs>
  <rect x="0" y="0" width="16" height="16" min-width="1" min-height="1" class="hit-helper"></rect>
  <path fill="rgb(255,255,255)" fill-rule="evenOdd" stroke="none" stroke-width="0" stroke_dasharray="none" d="M14.18765192027224 13.519922254616134C14.18765192027224 13.519922254616134 14.18765192027224 6.77162293488824 14.18765192027224 6.77162293488824 14.18765192027224 6.77162293488824 12.77977637335926 6.77162293488824 12.77977637335926 6.77162293488824 12.919786096256683 7.206997084548103 12.989790957705395 7.66051182377713 12.989790957705395 8.132167152575315 12.989790957705395 9.008098477486232 12.766812510128018 9.816650469711693 12.320855614973262 10.5578231292517 11.874898719818505 11.298995788791707 11.270782693242584 11.882086167800454 10.508507535245503 12.30709426627794 9.746232377248418 12.732102364755425 8.913952357802623 12.949789439585356 8.01166747690812 12.960155490767734 6.642683519688866 12.960155490767734 5.473343056230756 12.48850016196955 4.503646086533787 11.545189504373177 3.533949116836817 10.601878846776804 3.046507859342084 9.46420472951085 3.041322314049587 8.132167152575315 3.0413223140495864 7.66051182377713 3.111327175498298 7.206997084548103 3.2513368983957216 6.77162293488824 3.2513368983957216 6.77162293488824 1.7812348079727758 6.77162293488824 1.7812348079727758 6.77162293488824 1.7812348079727758 6.77162293488824 1.7812348079727758 13.519922254616134 1.7812348079727758 13.519922254616134 1.7812348079727758 13.701328150307742 1.8408685788364931 13.851635892452217 1.9601361205639278 13.970845481049563 2.0794036622913628 14.090055069646906 2.232377248420029 14.152251376741173 2.419056878949927 14.157434402332363 2.419056878949927 14.157434402332363 13.54982984929509 14.157434402332363 13.54982984929509 14.157434402332363 13.726138389239994 14.157434402332363 13.87651920272241 14.095238095238095 14.000972289742343 13.970845481049563 14.125425376762271 13.846452866861027 14.18765192027224 13.696145124716551 14.18765192027224 13.519922254616134 14.18765192027224 13.519922254616134 14.18765192027224 13.519922254616134 14.18765192027224 13.519922254616134M11.231891103548856 7.968901846452868C11.231891103548856 7.108519598315517 10.918165613352777 6.375121477162294 10.290714632960622 5.768707482993198 9.663263652568466 5.162293488824101 8.90358126721763 4.8590864917395535 8.01166747690812 4.8590864917395535 7.1301247771836 4.8590864917395535 6.3756279371252615 5.162293488824101 5.748176956733106 5.768707482993198 5.120725976340949 6.375121477162294 4.804407713498621 7.108519598315517 4.799222168206125 7.968901846452868 4.7940366229136275 8.829284094590216 5.110354885755955 9.56268221574344 5.748176956733106 10.169096209912535 6.385999027710256 10.77551020408163 7.140495867768594 11.078717201166178 8.01166747690812 11.078717201166182 8.898395721925132 11.078717201166182 9.658078107275967 10.775510204081632 10.290714632960622 10.169096209912535 10.923351158645275 9.562682215743438 11.237076648841352 8.829284094590216 11.231891103548856 7.968901846452868 11.231891103548856 7.968901846452868 11.231891103548856 7.968901846452868 11.231891103548856 7.968901846452868M14.18765192027224 4.221574344023324C14.18765192027224 4.221574344023324 14.18765192027224 2.503401360544218 14.18765192027224 2.503401360544218 14.18765192027224 2.3064463880790407 14.117647058823527 2.1379980563654035 13.977637335926104 1.9980563654033046 13.837627613028681 1.8581146744412056 13.669097391022522 1.7855523161645612 13.472046669907632 1.7803692905733723 13.472046669907632 1.7803692905733723 11.659698590179874 1.7803692905733723 11.659698590179874 1.7803692905733723 11.457462323772482 1.7803692905733723 11.286339329120075 1.8529316488500167 11.146329606222654 1.9980563654033046 11.00631988332523 2.1431810819565924 10.936315021876517 2.3116294136702304 10.936315021876519 2.503401360544218 10.936315021876519 2.503401360544218 10.936315021876519 4.221574344023324 10.936315021876519 4.221574344023324 10.936315021876517 4.423712342079689 11.00631988332523 4.592160673793327 11.146329606222654 4.726919339164237 11.286339329120075 4.861678004535149 11.457462323772482 4.931648850016199 11.659698590179874 4.936831875607387 11.659698590179874 4.936831875607387 13.472046669907632 4.936831875607387 13.472046669907632 4.936831875607387 13.67428293631502 4.9368318756073855 13.84281315832118 4.866861030126337 13.977637335926104 4.726919339164237 14.112461513531029 4.586977648202138 14.182466374979741 4.418529316488501 14.18765192027224 4.221574344023324 14.18765192027224 4.221574344023324 14.18765192027224 4.221574344023324 14.18765192027224 4.221574344023324M16 2.052478134110787C16 2.052478134110787 16 13.947521865889213 16 13.947521865889213 16 14.507288629737607 15.797763733592609 14.989310009718176 15.39329120077783 15.393586005830906 14.988818667963049 15.797862001943637 14.506562955760815 15.999999999999998 13.946524064171122 15.999999999999998 13.946524064171122 15.999999999999998 2.0534759358288768 15.999999999999998 2.0534759358288768 15.999999999999998 1.4882514989466857 15.999999999999998 1.0059957867444498 15.797862001943637 0.6067087992221681 15.393586005830906 0.20742181169988655 14.989310009718176 0.005185545292497169 14.50728862973761 0 13.947521865889213 0 13.947521865889213 0 2.052478134110787 0 2.052478134110787 0 1.4927113702623904 0.2022362664073894 1.010689990281827 0.6067087992221681 0.6064139941690965 1.011181332036947 0.20213799805636556 1.493437044239183 0 2.0534759358288768 0 2.0534759358288768 0 13.946524064171122 0 13.946524064171122 0 14.511748501053313 0 14.994004213255547 0.20213799805636534 15.39329120077783 0.6064139941690965 15.79257818830011 1.0106899902818274 15.994814454707502 1.4927113702623909 16 2.052478134110787 16 2.052478134110787 16 2.052478134110787 16 2.052478134110787" min-width="1" min-height="1" width="100%" height="100%">
  </path></svg>
